<svg width="242" height="242" viewBox="0 0 242 242" fill="none" xmlns="http://www.w3.org/2000/svg">
<path d="M225.687 51.9313H16.3119C11.7778 51.9313 8.09766 55.6066 8.09766 60.1456V162.694L16.0799 167.681H225.92L233.902 162.694V60.1456C233.902 55.6066 230.222 51.9313 225.687 51.9313Z" fill="#2B3890"/>
<path d="M225.689 51.9313H217.352C221.886 51.9313 225.566 55.6066 225.566 60.1456V167.681H225.921L233.904 162.694V60.1456C233.904 55.6066 230.223 51.9313 225.689 51.9313Z" fill="#242E7A"/>
<path d="M233.902 162.693V191.321C233.902 195.86 230.222 199.54 225.688 199.54H16.3119C11.7778 199.54 8.09766 195.86 8.09766 191.321V162.693H233.902Z" fill="#DAE7EF"/>
<path d="M225.566 162.693V191.321C225.566 195.86 221.886 199.54 217.352 199.54H225.689C230.223 199.54 233.904 195.86 233.904 191.321V162.693H225.566Z" fill="#C1D5E4"/>
<path d="M20.8203 162.696V66.0778C20.8203 65.2899 21.4589 64.6514 22.2468 64.6514H219.755C220.543 64.6514 221.182 65.2899 221.182 66.0778V162.695H20.8203V162.696Z" fill="#B1E4F9"/>
<path d="M212.281 64.6514V162.696H221.182V66.0778C221.182 65.2899 220.543 64.6514 219.755 64.6514H212.281Z" fill="#90D8F9"/>
<path d="M125.246 184.769H116.753C114.736 184.769 113.102 183.134 113.102 181.117C113.102 179.1 114.736 177.465 116.753 177.465H125.246C127.264 177.465 128.898 179.1 128.898 181.117C128.898 183.134 127.263 184.769 125.246 184.769Z" fill="#242E7A"/>
<path d="M165.884 242H76.1124C75.0617 242 74.3304 240.955 74.6906 239.968L76.7419 234.347C77.6939 231.739 80.6376 229.95 83.9788 229.95H158.017C161.358 229.95 164.302 231.739 165.253 234.347L167.305 239.968C167.666 240.955 166.935 242 165.884 242Z" fill="#DAE7EF"/>
<path d="M141.53 199.54H100.472C104.249 211.476 100.812 222.218 90.1602 229.95H151.842C141.19 222.218 137.753 211.475 141.53 199.54Z" fill="#C1D5E4"/>
<path d="M100.473 199.54C101.42 202.534 101.913 205.452 101.953 208.267H140.05C140.09 205.452 140.583 202.534 141.53 199.54H100.473Z" fill="#98B9D3"/>
<path d="M134.86 16.9003H60.9336L88.6899 0H118.065C122.663 0 126.899 2.49799 129.124 6.52266L134.86 16.9003Z" fill="#DD5CA2"/>
<path d="M114.219 16.9003H51.4805L74.6 0H97.4241C102.023 0 106.258 2.49799 108.483 6.52266L114.219 16.9003Z" fill="#EAB14D"/>
<path d="M194.455 121.678H47.5451C44.4979 121.678 42.0273 119.207 42.0273 116.16V16.9003H194.455C197.502 16.9003 199.973 19.3708 199.973 22.4181V116.16C199.973 119.207 197.502 121.678 194.455 121.678Z" fill="#F9F6F6"/>
<path d="M194.455 16.9003H185.457C188.504 16.9003 190.975 19.3708 190.975 22.4181V116.16C190.975 119.208 188.504 121.678 185.457 121.678H194.455C197.502 121.678 199.972 119.207 199.972 116.16V22.4181C199.972 19.3704 197.502 16.9003 194.455 16.9003Z" fill="#DAE7EF"/>
<path d="M93.5785 16.9003H42.0273V6.30193C42.0273 2.82129 44.8491 0 48.3293 0H76.7827C81.3812 0 85.6166 2.49799 87.8414 6.52266L93.5785 16.9003Z" fill="#80B4FB"/>
<path d="M92.1955 82.7257C92.1851 82.7257 92.1747 82.7257 92.1638 82.7257C90.147 82.7082 88.5262 81.0591 88.5433 79.0423C88.5607 77.0354 88.5782 74.8049 88.5952 72.4809H74.9137C73.622 72.4809 72.4257 71.7979 71.7692 70.6857C71.1122 69.5731 71.0918 68.1958 71.7158 67.0647C74.4605 62.09 83.5676 45.6709 85.5277 43.2665C87.2756 41.1225 89.6464 40.2542 91.8651 40.9405C94.1069 41.6353 95.6988 43.8034 95.9205 46.4654C96.0235 47.708 95.997 56.7835 95.9474 65.1769H96.7098C98.7271 65.1769 100.362 66.8118 100.362 68.8287C100.362 70.8455 98.7266 72.4804 96.7098 72.4804H95.8992C95.877 75.4662 95.8567 77.8791 95.8463 79.1047C95.8293 81.1116 94.1976 82.7257 92.1955 82.7257ZM81.1178 65.1774H88.643C88.6723 60.1602 88.6921 55.3239 88.6898 51.8948C86.7448 55.1949 83.9618 60.0864 81.1178 65.1774Z" fill="#DD5CA2"/>
<path d="M162.57 82.7257C162.56 82.7257 162.55 82.7257 162.539 82.7257C160.522 82.7082 158.901 81.0591 158.918 79.0423C158.936 77.0354 158.953 74.8049 158.97 72.4809H145.289C143.997 72.4809 142.801 71.7979 142.144 70.6857C141.487 69.5731 141.467 68.1958 142.091 67.0647C144.835 62.09 153.943 45.6709 155.903 43.2665C157.65 41.1225 160.021 40.2542 162.24 40.9405C164.482 41.6353 166.074 43.8034 166.296 46.4654C166.399 47.708 166.373 56.7835 166.323 65.1769H167.085C169.103 65.1769 170.737 66.8118 170.737 68.8287C170.737 70.8455 169.102 72.4804 167.085 72.4804H166.275C166.252 75.4662 166.232 77.8791 166.222 79.1047C166.204 81.1116 164.573 82.7257 162.57 82.7257ZM151.493 65.1774H159.018C159.048 60.1602 159.068 55.3239 159.065 51.8948C157.12 55.1949 154.337 60.0864 151.493 65.1774Z" fill="#DD5CA2"/>
<path d="M121.002 84.4452C113.454 84.4452 107.312 78.304 107.312 70.7552V54.7028C107.312 47.1545 113.454 41.0133 121.002 41.0133C128.55 41.0133 134.692 47.1545 134.692 54.7028V70.7552C134.691 78.304 128.55 84.4452 121.002 84.4452ZM121.002 48.3177C117.481 48.3177 114.616 51.182 114.616 54.7033V70.7557C114.616 74.277 117.481 77.1417 121.002 77.1417C124.523 77.1417 127.388 74.277 127.388 70.7557V54.7033C127.388 51.182 124.523 48.3177 121.002 48.3177Z" fill="#DD5CA2"/>
<path d="M159.506 94.9841L126.614 138.335C123.283 142.726 126.414 149.034 131.926 149.034H197.71C203.222 149.034 206.354 142.726 203.023 138.335L170.131 94.9841C167.462 91.4671 162.174 91.4671 159.506 94.9841Z" fill="#FFE07D"/>
<path d="M203.022 138.335L170.131 94.9841C167.462 91.4671 162.174 91.4671 159.506 94.9841L157.879 97.1285L189.143 138.335C192.475 142.726 189.343 149.033 183.831 149.033H197.71C203.222 149.034 206.354 142.726 203.022 138.335Z" fill="#FFD064"/>
<path d="M164.82 128.492C162.802 128.492 161.168 126.857 161.168 124.84V106.488C161.168 104.47 162.803 102.836 164.82 102.836C166.837 102.836 168.471 104.471 168.471 106.488V124.84C168.471 126.857 166.837 128.492 164.82 128.492Z" fill="#242E7A"/>
<path d="M164.82 140.152C162.802 140.152 161.168 138.518 161.168 136.501V135.002C161.168 132.985 162.803 131.35 164.82 131.35C166.837 131.35 168.471 132.985 168.471 135.002V136.501C168.471 138.518 166.837 140.152 164.82 140.152Z" fill="#242E7A"/>
</svg>
