<svg width="186" height="186" viewBox="0 0 186 186" fill="none" xmlns="http://www.w3.org/2000/svg">
<path d="M92.9986 177.545C139.692 177.545 177.544 139.693 177.544 93C177.544 46.3069 139.692 8.45459 92.9986 8.45459C46.3054 8.45459 8.45312 46.3069 8.45312 93C8.45312 139.693 46.3054 177.545 92.9986 177.545Z" fill="#E7EFFF"/>
<path d="M18.5981 11.8364C21.3997 11.8364 23.6708 9.56523 23.6708 6.76365C23.6708 3.96206 21.3997 1.69092 18.5981 1.69092C15.7965 1.69092 13.5254 3.96206 13.5254 6.76365C13.5254 9.56523 15.7965 11.8364 18.5981 11.8364Z" fill="#FFA100"/>
<path d="M179.235 27.0546C182.036 27.0546 184.308 24.7835 184.308 21.9819C184.308 19.1803 182.036 16.9092 179.235 16.9092C176.433 16.9092 174.162 19.1803 174.162 21.9819C174.162 24.7835 176.433 27.0546 179.235 27.0546Z" fill="#FF4D69"/>
<path d="M155.561 184.309C158.363 184.309 160.634 182.038 160.634 179.236C160.634 176.435 158.363 174.164 155.561 174.164C152.759 174.164 150.488 176.435 150.488 179.236C150.488 182.038 152.759 184.309 155.561 184.309Z" fill="#00C99F"/>
<path d="M6.76218 158.946C9.56377 158.946 11.8349 156.674 11.8349 153.873C11.8349 151.071 9.56377 148.8 6.76218 148.8C3.96059 148.8 1.68945 151.071 1.68945 153.873C1.68945 156.674 3.96059 158.946 6.76218 158.946Z" fill="#00C99F"/>
<path d="M32.1269 33.8182H153.872C155.666 33.8182 157.387 34.5308 158.655 35.7993C159.923 37.0677 160.636 38.788 160.636 40.5819V135.273H25.3633V40.5819C25.3633 38.788 26.0759 37.0677 27.3443 35.7993C28.6127 34.5308 30.3331 33.8182 32.1269 33.8182Z" fill="#8FA2FF"/>
<path d="M160.636 135.273V143.727C158.4 146.707 155.965 149.531 153.348 152.182H32.6511C30.034 149.531 27.5992 146.707 25.3633 143.727V135.273H160.636Z" fill="#4E6AFF"/>
<path d="M32.125 50.7273H153.87V126.818C153.87 127.267 153.692 127.697 153.375 128.014C153.058 128.331 152.628 128.509 152.18 128.509H33.8159C33.3675 128.509 32.9374 128.331 32.6203 128.014C32.3031 127.697 32.125 127.267 32.125 126.818V50.7273Z" fill="white"/>
<path d="M111.598 169.091H74.3984C77.6912 164.701 79.4712 159.361 79.4712 153.873V152.182H106.526V153.873C106.526 159.361 108.306 164.701 111.598 169.091Z" fill="#323FD4"/>
<path d="M123.433 170.782V171.881C103.846 179.439 82.1476 179.439 62.5605 171.881V170.782C62.5605 169.885 62.9168 169.025 63.5511 168.391C64.1853 167.756 65.0455 167.4 65.9424 167.4H120.051C120.948 167.4 121.809 167.756 122.443 168.391C123.077 169.025 123.433 169.885 123.433 170.782Z" fill="#4E6AFF"/>
<path d="M96.3798 147.109H89.6162C88.7193 147.109 87.8591 146.753 87.2249 146.119C86.5907 145.484 86.2344 144.624 86.2344 143.727C86.2344 142.83 86.5907 141.97 87.2249 141.336C87.8591 140.702 88.7193 140.345 89.6162 140.345H96.3798C97.2767 140.345 98.1369 140.702 98.7711 141.336C99.4054 141.97 99.7616 142.83 99.7616 143.727C99.7616 144.624 99.4054 145.484 98.7711 146.119C98.1369 146.753 97.2767 147.109 96.3798 147.109Z" fill="white"/>
<path d="M50.7266 40.5818H152.181C152.63 40.5818 153.06 40.7599 153.377 41.077C153.694 41.3941 153.872 41.8242 153.872 42.2727V50.7272H50.7266V40.5818Z" fill="#323FD4"/>
<path d="M33.8159 40.5818H52.4159C54.2097 40.5818 55.9301 41.2944 57.1985 42.5628C58.4669 43.8312 59.1795 45.5516 59.1795 47.3454V50.7272H32.125V42.2727C32.125 41.8242 32.3031 41.3941 32.6203 41.077C32.9374 40.7599 33.3675 40.5818 33.8159 40.5818Z" fill="#4E6AFF"/>
<path d="M54.1069 47.3454C55.0408 47.3454 55.7978 46.5884 55.7978 45.6545C55.7978 44.7207 55.0408 43.9636 54.1069 43.9636C53.1731 43.9636 52.416 44.7207 52.416 45.6545C52.416 46.5884 53.1731 47.3454 54.1069 47.3454Z" fill="white"/>
<path d="M148.798 47.3454C149.732 47.3454 150.489 46.5884 150.489 45.6545C150.489 44.7207 149.732 43.9636 148.798 43.9636C147.864 43.9636 147.107 44.7207 147.107 45.6545C147.107 46.5884 147.864 47.3454 148.798 47.3454Z" fill="white"/>
<path d="M142.035 47.3454C142.969 47.3454 143.726 46.5884 143.726 45.6545C143.726 44.7207 142.969 43.9636 142.035 43.9636C141.101 43.9636 140.344 44.7207 140.344 45.6545C140.344 46.5884 141.101 47.3454 142.035 47.3454Z" fill="white"/>
<path d="M135.271 47.3454C136.205 47.3454 136.962 46.5884 136.962 45.6545C136.962 44.7207 136.205 43.9636 135.271 43.9636C134.337 43.9636 133.58 44.7207 133.58 45.6545C133.58 46.5884 134.337 47.3454 135.271 47.3454Z" fill="white"/>
<path d="M45.4497 64.2545H12.0373C11.1017 64.2491 10.1843 63.9958 9.37847 63.5203C8.57267 63.0449 7.9073 62.3643 7.45016 61.548C6.99302 60.7317 6.76044 59.8088 6.77614 58.8733C6.79183 57.9378 7.05522 57.0232 7.53948 56.2227L23.6707 29.946C24.208 29.0643 24.9631 28.3356 25.8633 27.83C26.7635 27.3244 27.7786 27.0588 28.8111 27.0588C29.8436 27.0588 30.8587 27.3244 31.7589 27.83C32.6592 28.3356 33.4142 29.0643 33.9515 29.946L50.0151 56.2227C50.5024 57.0281 50.766 57.9489 50.7787 58.8902C50.7915 59.8315 50.553 60.7591 50.0878 61.5775C49.6227 62.3959 48.9476 63.0754 48.1323 63.5459C47.317 64.0165 46.391 64.2611 45.4497 64.2545Z" fill="#FF4D69"/>
<path d="M31.6514 40.5818L30.6707 47.3455C30.6087 47.8128 30.379 48.2416 30.0244 48.5523C29.6698 48.8629 29.2145 49.0341 28.743 49.0341C28.2716 49.0341 27.8163 48.8629 27.4617 48.5523C27.1071 48.2416 26.8774 47.8128 26.8154 47.3455L25.8347 40.5818C25.7684 40.1627 25.7942 39.7341 25.9102 39.3259C26.0261 38.9177 26.2295 38.5396 26.5062 38.2178C26.7829 37.8961 27.1263 37.6384 27.5126 37.4626C27.8988 37.2869 28.3187 37.1973 28.743 37.2C29.1674 37.1973 29.5873 37.2869 29.9735 37.4626C30.3598 37.6384 30.7032 37.8961 30.9799 38.2178C31.2566 38.5396 31.46 38.9177 31.5759 39.3259C31.6919 39.7341 31.7176 40.1627 31.6514 40.5818Z" fill="white"/>
<path d="M28.7451 59.1818C30.6128 59.1818 32.1269 57.6678 32.1269 55.8C32.1269 53.9323 30.6128 52.4182 28.7451 52.4182C26.8774 52.4182 25.3633 53.9323 25.3633 55.8C25.3633 57.6678 26.8774 59.1818 28.7451 59.1818Z" fill="white"/>
<path d="M173.957 145.418H140.545C139.61 145.413 138.692 145.159 137.886 144.684C137.08 144.209 136.415 143.528 135.958 142.712C135.501 141.895 135.268 140.972 135.284 140.037C135.3 139.102 135.563 138.187 136.047 137.386L152.179 111.11C152.716 110.228 153.471 109.499 154.371 108.994C155.271 108.488 156.286 108.223 157.319 108.223C158.351 108.223 159.367 108.488 160.267 108.994C161.167 109.499 161.922 110.228 162.459 111.11L178.523 137.386C179.01 138.192 179.274 139.113 179.287 140.054C179.299 140.995 179.061 141.923 178.596 142.741C178.13 143.56 177.455 144.239 176.64 144.71C175.825 145.18 174.899 145.425 173.957 145.418Z" fill="#FF4D69"/>
<path d="M160.163 121.746L159.182 128.509C159.12 128.976 158.891 129.405 158.536 129.716C158.182 130.027 157.726 130.198 157.255 130.198C156.783 130.198 156.328 130.027 155.973 129.716C155.619 129.405 155.389 128.976 155.327 128.509L154.346 121.746C154.28 121.326 154.306 120.898 154.422 120.49C154.538 120.081 154.741 119.703 155.018 119.382C155.295 119.06 155.638 118.802 156.024 118.626C156.411 118.451 156.83 118.361 157.255 118.364C157.679 118.361 158.099 118.451 158.485 118.626C158.872 118.802 159.215 119.06 159.492 119.382C159.768 119.703 159.972 120.081 160.088 120.49C160.204 120.898 160.229 121.326 160.163 121.746Z" fill="white"/>
<path d="M157.253 140.345C159.121 140.345 160.635 138.831 160.635 136.964C160.635 135.096 159.121 133.582 157.253 133.582C155.385 133.582 153.871 135.096 153.871 136.964C153.871 138.831 155.385 140.345 157.253 140.345Z" fill="white"/>
<path d="M74.3981 93H72.7072V86.2363C72.7072 85.7879 72.5291 85.3578 72.2119 85.0407C71.8948 84.7236 71.4647 84.5454 71.0163 84.5454C70.5678 84.5454 70.1377 84.7236 69.8206 85.0407C69.5035 85.3578 69.3254 85.7879 69.3254 86.2363V93H59.907L65.8421 76.6658C65.9801 76.2478 65.9496 75.7925 65.7571 75.3966C65.5647 75.0007 65.2255 74.6955 64.8115 74.5458C64.3976 74.396 63.9416 74.4136 63.5404 74.5948C63.1393 74.776 62.8246 75.1064 62.6632 75.516L55.8996 94.116C55.8073 94.3713 55.7778 94.645 55.8136 94.9141C55.8495 95.1832 55.9496 95.4397 56.1055 95.6619C56.2614 95.8842 56.4685 96.0656 56.7093 96.1909C56.9501 96.3162 57.2176 96.3817 57.489 96.3818H69.3254V103.145C69.3254 103.594 69.5035 104.024 69.8206 104.341C70.1377 104.658 70.5678 104.836 71.0163 104.836C71.4647 104.836 71.8948 104.658 72.2119 104.341C72.5291 104.024 72.7072 103.594 72.7072 103.145V96.3818H74.3981C74.8466 96.3818 75.2767 96.2036 75.5938 95.8865C75.9109 95.5694 76.089 95.1393 76.089 94.6909C76.089 94.2424 75.9109 93.8123 75.5938 93.4952C75.2767 93.1781 74.8466 93 74.3981 93Z" fill="#4E6AFF"/>
<path d="M128.507 93.0001H126.817V86.2364C126.817 85.788 126.638 85.3579 126.321 85.0408C126.004 84.7237 125.574 84.5455 125.126 84.5455C124.677 84.5455 124.247 84.7237 123.93 85.0408C123.613 85.3579 123.435 85.788 123.435 86.2364V93.0001H114.016L119.951 76.6659C120.034 76.4556 120.074 76.2307 120.069 76.0047C120.063 75.7787 120.012 75.5561 119.919 75.3501C119.826 75.144 119.693 74.9587 119.527 74.8051C119.361 74.6516 119.166 74.5328 118.953 74.4559C118.741 74.379 118.515 74.3455 118.289 74.3575C118.063 74.3694 117.842 74.4264 117.639 74.5253C117.436 74.6241 117.254 74.7627 117.105 74.9329C116.957 75.1031 116.843 75.3014 116.773 75.5161L110.009 94.1161C109.917 94.3714 109.887 94.6451 109.923 94.9142C109.959 95.1833 110.059 95.4398 110.215 95.662C110.371 95.8843 110.578 96.0657 110.819 96.191C111.059 96.3163 111.327 96.3818 111.598 96.3819H123.435V103.146C123.435 103.594 123.613 104.024 123.93 104.341C124.247 104.658 124.677 104.836 125.126 104.836C125.574 104.836 126.004 104.658 126.321 104.341C126.638 104.024 126.817 103.594 126.817 103.146V96.3819H128.507C128.956 96.3819 129.386 96.2037 129.703 95.8866C130.02 95.5695 130.198 95.1394 130.198 94.691C130.198 94.2425 130.02 93.8124 129.703 93.4953C129.386 93.1782 128.956 93.0001 128.507 93.0001Z" fill="#4E6AFF"/>
<path d="M96.3808 74.4H89.6172C87.8233 74.4 86.103 75.1126 84.8345 76.381C83.5661 77.6495 82.8535 79.3698 82.8535 81.1637V98.0728C82.8535 99.8666 83.5661 101.587 84.8345 102.855C86.103 104.124 87.8233 104.836 89.6172 104.836H96.3808C98.1746 104.836 99.895 104.124 101.163 102.855C102.432 101.587 103.144 99.8666 103.144 98.0728V81.1637C103.144 79.3698 102.432 77.6495 101.163 76.381C99.895 75.1126 98.1746 74.4 96.3808 74.4ZM99.7626 98.0728C99.7626 98.9697 99.4063 99.8298 98.7721 100.464C98.1379 101.098 97.2777 101.455 96.3808 101.455H89.6172C88.7202 101.455 87.8601 101.098 87.2258 100.464C86.5916 99.8298 86.2353 98.9697 86.2353 98.0728V81.1637C86.2353 80.2667 86.5916 79.4066 87.2258 78.7724C87.8601 78.1381 88.7202 77.7818 89.6172 77.7818H96.3808C97.2777 77.7818 98.1379 78.1381 98.7721 78.7724C99.4063 79.4066 99.7626 80.2667 99.7626 81.1637V98.0728Z" fill="#4E6AFF"/>
<path d="M46.3447 76.091L48.5429 73.9097C48.8613 73.5913 49.0401 73.1595 49.0401 72.7092C49.0401 72.2589 48.8613 71.827 48.5429 71.5086C48.2245 71.1902 47.7926 71.0114 47.3423 71.0114C46.892 71.0114 46.4602 71.1902 46.1418 71.5086L43.9605 73.7068L41.7792 71.5086C41.4608 71.1902 41.029 71.0114 40.5787 71.0114C40.1284 71.0114 39.6965 71.1902 39.3781 71.5086C39.0597 71.827 38.8809 72.2589 38.8809 72.7092C38.8809 73.1595 39.0597 73.5913 39.3781 73.9097L41.5763 76.091L39.3781 78.2723C39.2205 78.4299 39.0954 78.6171 39.0101 78.8231C38.9248 79.0291 38.8809 79.2499 38.8809 79.4728C38.8809 79.6958 38.9248 79.9166 39.0101 80.1226C39.0954 80.3285 39.2205 80.5157 39.3781 80.6734C39.5358 80.831 39.723 80.9561 39.929 81.0414C40.1349 81.1267 40.3557 81.1706 40.5787 81.1706C40.8016 81.1706 41.0224 81.1267 41.2284 81.0414C41.4344 80.9561 41.6216 80.831 41.7792 80.6734L43.9605 78.4752L46.1418 80.6734C46.2994 80.831 46.4866 80.9561 46.6926 81.0414C46.8986 81.1267 47.1194 81.1706 47.3423 81.1706C47.5653 81.1706 47.7861 81.1267 47.9921 81.0414C48.198 80.9561 48.3852 80.831 48.5429 80.6734C48.7005 80.5157 48.8256 80.3285 48.9109 80.1226C48.9962 79.9166 49.0401 79.6958 49.0401 79.4728C49.0401 79.2499 48.9962 79.0291 48.9109 78.8231C48.8256 78.6171 48.7005 78.4299 48.5429 78.2723L46.3447 76.091Z" fill="#FF4D69"/>
<path d="M135.966 116.673L138.164 114.491C138.482 114.173 138.661 113.741 138.661 113.291C138.661 112.841 138.482 112.409 138.164 112.09C137.846 111.772 137.414 111.593 136.963 111.593C136.513 111.593 136.081 111.772 135.763 112.09L133.582 114.288L131.4 112.09C131.082 111.772 130.65 111.593 130.2 111.593C129.749 111.593 129.318 111.772 128.999 112.09C128.681 112.409 128.502 112.841 128.502 113.291C128.502 113.741 128.681 114.173 128.999 114.491L131.197 116.673L128.999 118.854C128.681 119.172 128.502 119.604 128.502 120.054C128.502 120.505 128.681 120.937 128.999 121.255C129.318 121.573 129.749 121.752 130.2 121.752C130.65 121.752 131.082 121.573 131.4 121.255L133.582 119.057L135.763 121.255C136.081 121.573 136.513 121.752 136.963 121.752C137.414 121.752 137.846 121.573 138.164 121.255C138.482 120.937 138.661 120.505 138.661 120.054C138.661 119.604 138.482 119.172 138.164 118.854L135.966 116.673Z" fill="#FF4D69"/>
<path d="M144.421 62.5635L146.619 60.3823C146.937 60.0639 147.116 59.632 147.116 59.1817C147.116 58.7314 146.937 58.2996 146.619 57.9812C146.301 57.6628 145.869 57.4839 145.418 57.4839C144.968 57.4839 144.536 57.6628 144.218 57.9812L142.037 60.1794L139.855 57.9812C139.537 57.6628 139.105 57.4839 138.655 57.4839C138.205 57.4839 137.773 57.6628 137.454 57.9812C137.136 58.2996 136.957 58.7314 136.957 59.1817C136.957 59.632 137.136 60.0639 137.454 60.3823L139.652 62.5635L137.454 64.7448C137.297 64.9025 137.172 65.0896 137.086 65.2956C137.001 65.5016 136.957 65.7224 136.957 65.9454C136.957 66.1683 137.001 66.3891 137.086 66.5951C137.172 66.8011 137.297 66.9882 137.454 67.1459C137.612 67.3036 137.799 67.4286 138.005 67.5139C138.211 67.5993 138.432 67.6432 138.655 67.6432C138.878 67.6432 139.099 67.5993 139.305 67.5139C139.511 67.4286 139.698 67.3036 139.855 67.1459L142.037 64.9477L144.218 67.1459C144.376 67.3036 144.563 67.4286 144.769 67.5139C144.975 67.5993 145.196 67.6432 145.418 67.6432C145.641 67.6432 145.862 67.5993 146.068 67.5139C146.274 67.4286 146.461 67.3036 146.619 67.1459C146.777 66.9882 146.902 66.8011 146.987 66.5951C147.072 66.3891 147.116 66.1683 147.116 65.9454C147.116 65.7224 147.072 65.5016 146.987 65.2956C146.902 65.0896 146.777 64.9025 146.619 64.7448L144.421 62.5635Z" fill="#FF4D69"/>
<path d="M42.271 116.673C43.2049 116.673 43.9619 115.916 43.9619 114.982C43.9619 114.048 43.2049 113.291 42.271 113.291C41.3371 113.291 40.5801 114.048 40.5801 114.982C40.5801 115.916 41.3371 116.673 42.271 116.673Z" fill="#8FA2FF"/>
<path d="M69.3257 65.9454C70.2595 65.9454 71.0166 65.1884 71.0166 64.2545C71.0166 63.3206 70.2595 62.5636 69.3257 62.5636C68.3918 62.5636 67.6348 63.3206 67.6348 64.2545C67.6348 65.1884 68.3918 65.9454 69.3257 65.9454Z" fill="#8FA2FF"/>
<path d="M142.035 87.9272C142.969 87.9272 143.726 87.1702 143.726 86.2363C143.726 85.3025 142.969 84.5454 142.035 84.5454C141.101 84.5454 140.344 85.3025 140.344 86.2363C140.344 87.1702 141.101 87.9272 142.035 87.9272Z" fill="#8FA2FF"/>
<path d="M89.6167 118.364C90.5506 118.364 91.3076 117.606 91.3076 116.673C91.3076 115.739 90.5506 114.982 89.6167 114.982C88.6828 114.982 87.9258 115.739 87.9258 116.673C87.9258 117.606 88.6828 118.364 89.6167 118.364Z" fill="#8FA2FF"/>
<path d="M120.052 69.3273C120.986 69.3273 121.743 68.5702 121.743 67.6363C121.743 66.7025 120.986 65.9454 120.052 65.9454C119.118 65.9454 118.361 66.7025 118.361 67.6363C118.361 68.5702 119.118 69.3273 120.052 69.3273Z" fill="#8FA2FF"/>
</svg>
