<svg width="164" height="164" viewBox="0 0 164 164" fill="none" xmlns="http://www.w3.org/2000/svg">
<path d="M66.5948 17.1918C60.4191 23.0753 55.2224 32.3874 51.6093 43.893C46.1178 41.0615 41.0646 37.4919 36.5879 33.3125C44.8955 25.5583 55.1788 19.9055 66.5948 17.1918Z" fill="#64C8F0"/>
<path d="M32.9695 36.9846C38.0612 41.756 43.855 45.7791 50.169 48.9156C47.7756 58.1047 46.3509 68.4547 46.1561 79.4401H15.4395C16.0621 63.0965 22.6068 48.2622 32.9695 36.9846Z" fill="#64C8F0"/>
<path d="M15.4395 84.5625H46.1561C46.3483 95.5454 47.7756 105.898 50.169 115.087C43.855 118.223 38.0612 122.247 32.9695 127.018C22.6068 115.738 16.0621 100.904 15.4395 84.5625Z" fill="#64C8F0"/>
<path d="M79.438 79.4375H51.2812C51.4632 68.9236 52.7547 59.3706 54.838 51.0374C62.4666 54.1662 70.7563 56.006 79.438 56.311V79.4375Z" fill="#64C8F0"/>
<path d="M79.4376 51.1885C71.2324 50.8759 63.4066 49.0693 56.2188 46.0353C61.5693 28.559 70.5175 17.4583 79.4376 15.6492V51.1885Z" fill="#64C8F0"/>
<path d="M84.5625 15.6466C93.4851 17.4557 102.433 28.5565 107.781 46.0327C100.591 49.0667 92.7676 50.8733 84.5625 51.1859V15.6466Z" fill="#64C8F0"/>
<path d="M84.5625 56.3135C93.2442 56.0086 101.534 54.1662 109.162 51.0399C111.246 59.3732 112.537 68.9262 112.719 79.4401H84.5625V56.3135Z" fill="#64C8F0"/>
<path d="M131.032 127.015C125.94 122.244 120.146 118.221 113.832 115.084C116.225 105.895 117.65 95.5454 117.845 84.5599H148.562C147.939 100.904 141.394 115.738 131.032 127.015Z" fill="#64C8F0"/>
<path d="M109.445 21.3225C105.611 19.5826 101.586 18.186 97.4062 17.1918C101.263 20.8664 104.738 25.8786 107.684 31.9261C107.666 31.5341 107.625 31.1471 107.625 30.75C107.625 27.4187 108.284 24.2438 109.445 21.3225Z" fill="#64C8F0"/>
<path d="M114.739 48.421C114.432 48.5799 114.14 48.7593 113.832 48.913C116.225 58.1021 117.65 68.4521 117.845 79.4375H148.562C148.226 70.5918 146.109 62.2124 142.64 54.5685C139.729 55.7216 136.567 56.375 133.251 56.375C125.973 56.375 119.408 53.3103 114.739 48.421Z" fill="#64C8F0"/>
<path d="M133.25 51.25C144.572 51.25 153.75 42.0718 153.75 30.75C153.75 19.4282 144.572 10.25 133.25 10.25C121.928 10.25 112.75 19.4282 112.75 30.75C112.75 42.0718 121.928 51.25 133.25 51.25Z" fill="#FA6450"/>
<path d="M117.831 30.75C117.831 20.2899 125.67 11.6773 135.792 10.4242C134.957 10.3192 134.111 10.25 133.25 10.25C121.929 10.25 112.75 19.4289 112.75 30.75C112.75 42.0711 121.929 51.25 133.25 51.25C134.111 51.25 134.957 51.1808 135.789 51.0757C125.67 49.8227 117.831 41.2101 117.831 30.75Z" fill="#DC4632"/>
<path d="M146.842 30.1274C143.211 26.4989 138.383 24.5001 133.25 24.5001C128.118 24.5001 123.29 26.4989 119.661 30.1299L117.85 28.3157C121.962 24.2029 127.433 21.9351 133.25 21.9351C139.067 21.9351 144.538 24.2003 148.653 28.3157L146.842 30.1274Z" fill="#BE2814"/>
<path d="M125.097 35.5624L123.285 33.7507C125.948 31.0883 129.486 29.6226 133.251 29.6226C137.015 29.6226 140.556 31.0883 143.216 33.7507L141.405 35.5624C139.226 33.3843 136.333 32.1851 133.251 32.1851C130.168 32.1851 127.275 33.3843 125.097 35.5624Z" fill="#BE2814"/>
<path d="M135.969 41C134.519 39.5496 131.985 39.5496 130.534 41L128.723 39.1883C131.139 36.7693 135.365 36.7693 137.781 39.1883L135.969 41Z" fill="#BE2814"/>
<path d="M51.6093 120.107C46.1178 122.938 41.0646 126.508 36.5879 130.687C39.0889 133.022 41.8051 135.118 44.6444 137.045L52.6445 123.046C52.296 122.07 51.927 121.124 51.6093 120.107Z" fill="#64C8F0"/>
<path d="M75.3246 84.5625H51.2832C51.4651 95.0764 52.7566 104.629 54.8399 112.963C56.3108 112.358 57.815 111.82 59.3397 111.33L73.1029 87.2454C73.6974 86.2025 74.4585 85.3133 75.3246 84.5625Z" fill="#64C8F0"/>
<path d="M90.8994 87.2454L104.663 111.33C106.187 111.82 107.691 112.36 109.162 112.963C111.246 104.629 112.537 95.0764 112.719 84.5625H88.6777C89.5413 85.3133 90.3024 86.2025 90.8994 87.2454Z" fill="#64C8F0"/>
<path d="M127.412 130.687C122.935 126.508 117.882 122.938 112.391 120.107C112.07 121.124 111.704 122.07 111.355 123.046L119.356 137.045C122.195 135.118 124.911 133.022 127.412 130.687Z" fill="#64C8F0"/>
<path d="M77.5518 89.7875L45.3821 146.083C43.4295 149.499 45.8972 153.75 49.8306 153.75H114.167C118.103 153.75 120.568 149.499 118.616 146.083L86.4487 89.7875C84.4833 86.3435 79.5172 86.3435 77.5518 89.7875Z" fill="#FAB400"/>
<path d="M51.9319 146.083L84.1015 89.7874C84.4167 89.2339 84.8292 88.8034 85.2751 88.4267C82.9458 86.4664 79.202 86.8969 77.5492 89.7874L45.3821 146.083C43.4295 149.499 45.8972 153.75 49.8306 153.75H56.3829C52.4469 153.75 49.9818 149.499 51.9319 146.083Z" fill="#DC9600"/>
<path d="M36.5879 33.3125C38.3791 34.9858 40.2881 36.531 42.2536 37.9993C47.7296 31.7878 54.3409 26.6064 61.7721 22.778C63.302 20.6845 64.9061 18.7985 66.5948 17.1918C55.1788 19.9055 44.8955 25.5583 36.5879 33.3125Z" fill="#46AAD2"/>
<path d="M25.6869 79.4376C26.2173 65.4027 31.0912 52.4852 39.0042 41.9815C36.9106 40.4132 34.876 38.7681 32.9695 36.9821C23.9085 46.8426 17.7688 59.4244 15.952 73.3516C15.9494 73.3721 15.9468 73.3952 15.9443 73.4157C15.688 75.3965 15.5163 77.4029 15.4395 79.435L25.6869 79.4376Z" fill="#46AAD2"/>
<path d="M39.0042 122.019C31.0912 111.515 26.2199 98.5999 25.6869 84.5625H15.4395C15.5163 86.5946 15.688 88.601 15.9443 90.5818C15.9468 90.6023 15.9494 90.6254 15.952 90.6459C17.7688 104.573 23.9085 117.155 32.9695 127.015C34.876 125.229 36.9106 123.587 39.0042 122.019Z" fill="#46AAD2"/>
<path d="M44.6393 137.04L44.6444 137.043L47.7911 131.533C45.8462 129.788 43.9807 127.958 42.2536 125.998C41.3003 126.711 40.365 127.441 39.4476 128.194C38.4765 129.004 37.513 129.824 36.5879 130.688C37.8512 131.866 39.176 132.976 40.5316 134.05C41.8641 135.092 43.235 136.089 44.6393 137.04Z" fill="#46AAD2"/>
<path d="M76.875 107.625V123C76.875 125.832 79.1684 128.125 82 128.125C84.8316 128.125 87.125 125.832 87.125 123V107.625C87.125 104.793 84.8316 102.5 82 102.5C79.1684 102.5 76.875 104.793 76.875 107.625Z" fill="#505050"/>
<path d="M76.875 138.375C76.875 141.207 79.1684 143.5 82 143.5C84.8316 143.5 87.125 141.207 87.125 138.375C87.125 135.543 84.8316 133.25 82 133.25C79.1684 133.25 76.875 135.543 76.875 138.375Z" fill="#505050"/>
</svg>
