<svg width="56" height="56" viewBox="0 0 56 56" fill="none" xmlns="http://www.w3.org/2000/svg">
<path d="M36.985 0H7.963C7.155 0 6.5 0.655 6.5 1.926V55C6.5 55.345 7.155 56 7.963 56H48.037C48.845 56 49.5 55.345 49.5 55V12.978C49.5 12.282 49.407 12.058 49.243 11.893L37.607 0.257C37.442 0.093 37.218 0 36.985 0Z" fill="#E9E9E0"/>
<path d="M37.5 0.151001V12H49.349L37.5 0.151001Z" fill="#D9D7CA"/>
<path d="M48.037 56H7.963C7.155 56 6.5 55.345 6.5 54.537V39H49.5V54.537C49.5 55.345 48.845 56 48.037 56Z" fill="#9777A8"/>
<path d="M17.0215 42.719V50.567C17.0215 51.041 16.9345 51.44 16.7615 51.763C16.5885 52.086 16.3565 52.346 16.0645 52.542C15.7725 52.738 15.4375 52.875 15.0595 52.952C14.6815 53.029 14.2915 53.068 13.8905 53.068C13.6905 53.068 13.4545 53.047 13.1865 53.006C12.9185 52.965 12.6395 52.902 12.3525 52.815C12.0655 52.728 11.7895 52.63 11.5255 52.521C11.2615 52.412 11.0385 52.289 10.8555 52.152L11.5525 51.045C11.6435 51.108 11.7735 51.175 11.9425 51.243C12.1115 51.311 12.2965 51.375 12.4965 51.434C12.6965 51.493 12.9065 51.545 13.1255 51.591C13.3445 51.637 13.5495 51.659 13.7405 51.659C14.2235 51.659 14.6085 51.565 14.8955 51.379C15.1825 51.193 15.3345 50.875 15.3535 50.429V42.718H17.0215V42.719Z" fill="white"/>
<path d="M25.185 50.238C25.185 50.602 25.11 50.956 24.959 51.298C24.808 51.64 24.597 51.941 24.323 52.2C24.049 52.459 23.713 52.667 23.311 52.822C22.909 52.977 22.455 53.054 21.944 53.054C21.725 53.054 21.5 53.042 21.267 53.02C21.034 52.998 20.8 52.958 20.563 52.904C20.326 52.849 20.1 52.774 19.886 52.678C19.672 52.582 19.488 52.466 19.332 52.329L19.619 51.153C19.747 51.226 19.908 51.297 20.104 51.365C20.3 51.433 20.502 51.497 20.712 51.556C20.922 51.615 21.131 51.663 21.341 51.7C21.551 51.737 21.746 51.755 21.929 51.755C22.485 51.755 22.911 51.625 23.207 51.365C23.503 51.105 23.651 50.72 23.651 50.21C23.651 49.9 23.547 49.636 23.337 49.417C23.127 49.198 22.865 49 22.551 48.822C22.237 48.644 21.897 48.467 21.532 48.289C21.167 48.111 20.826 47.901 20.507 47.66C20.188 47.419 19.924 47.134 19.714 46.806C19.504 46.478 19.4 46.068 19.4 45.576C19.4 45.13 19.482 44.733 19.646 44.387C19.81 44.041 20.031 43.746 20.309 43.505C20.587 43.264 20.911 43.079 21.28 42.951C21.649 42.823 22.039 42.76 22.449 42.76C22.868 42.76 23.292 42.799 23.72 42.876C24.148 42.953 24.494 43.079 24.759 43.252C24.704 43.37 24.641 43.5 24.568 43.642C24.495 43.784 24.426 43.915 24.363 44.038C24.3 44.161 24.245 44.264 24.199 44.346C24.153 44.428 24.126 44.474 24.117 44.483C24.062 44.456 24.001 44.42 23.932 44.374C23.863 44.328 23.766 44.283 23.638 44.237C23.51 44.191 23.342 44.16 23.132 44.141C22.922 44.122 22.653 44.127 22.325 44.155C22.142 44.174 21.97 44.225 21.805 44.312C21.64 44.399 21.495 44.505 21.367 44.633C21.239 44.761 21.139 44.904 21.066 45.064C20.993 45.224 20.957 45.377 20.957 45.522C20.957 45.886 21.061 46.18 21.271 46.404C21.481 46.628 21.741 46.823 22.05 46.992C22.359 47.161 22.697 47.325 23.062 47.484C23.427 47.643 23.766 47.838 24.081 48.065C24.396 48.292 24.657 48.578 24.867 48.919C25.077 49.26 25.185 49.7 25.185 50.238Z" fill="white"/>
<path d="M35.0815 47.914C35.0815 48.762 34.9745 49.509 34.7605 50.156C34.5465 50.803 34.2495 51.341 33.8715 51.769C33.4935 52.197 33.0515 52.521 32.5455 52.74C32.0395 52.959 31.4855 53.068 30.8845 53.068C30.2835 53.068 29.7295 52.959 29.2235 52.74C28.7175 52.521 28.2755 52.198 27.8975 51.769C27.5195 51.34 27.2225 50.803 27.0085 50.156C26.7945 49.509 26.6875 48.761 26.6875 47.914C26.6875 47.067 26.7945 46.321 27.0085 45.679C27.2225 45.037 27.5195 44.501 27.8975 44.073C28.2755 43.645 28.7175 43.319 29.2235 43.095C29.7295 42.871 30.2835 42.76 30.8845 42.76C31.4855 42.76 32.0395 42.871 32.5455 43.095C33.0515 43.319 33.4935 43.644 33.8715 44.073C34.2495 44.502 34.5465 45.037 34.7605 45.679C34.9745 46.321 35.0815 47.066 35.0815 47.914ZM30.8435 51.729C31.1805 51.729 31.5015 51.663 31.8075 51.531C32.1135 51.399 32.3865 51.182 32.6275 50.882C32.8685 50.582 33.0585 50.187 33.1945 49.699C33.3305 49.211 33.4045 48.617 33.4135 47.915C33.4045 47.231 33.3335 46.65 33.2015 46.172C33.0695 45.694 32.8875 45.299 32.6545 44.989C32.4215 44.679 32.1575 44.456 31.8615 44.319C31.5655 44.182 31.2535 44.114 30.9245 44.114C30.5875 44.114 30.2665 44.177 29.9605 44.305C29.6545 44.433 29.3815 44.649 29.1405 44.954C28.8995 45.259 28.7095 45.653 28.5735 46.137C28.4365 46.62 28.3635 47.212 28.3545 47.914C28.3635 48.598 28.4345 49.181 28.5665 49.664C28.6985 50.147 28.8805 50.541 29.1135 50.847C29.3465 51.153 29.6105 51.375 29.9065 51.517C30.2025 51.659 30.5155 51.729 30.8435 51.729Z" fill="white"/>
<path d="M44.6815 42.9241V53.0001H43.0135L39.0625 46.0551V53.0001H37.3945V42.9241H39.0625L43.0135 49.8691V42.9241H44.6815Z" fill="white"/>
<path d="M19.5 19V15C19.5 14.449 19.948 14 20.5 14C21.053 14 21.5 13.552 21.5 13C21.5 12.448 21.053 12 20.5 12C18.846 12 17.5 13.346 17.5 15V19C17.5 20.103 16.603 21 15.5 21C14.947 21 14.5 21.448 14.5 22C14.5 22.552 14.947 23 15.5 23C16.603 23 17.5 23.897 17.5 25V29C17.5 30.654 18.846 32 20.5 32C21.053 32 21.5 31.552 21.5 31C21.5 30.448 21.053 30 20.5 30C19.948 30 19.5 29.551 19.5 29V25C19.5 23.8 18.958 22.734 18.118 22C18.958 21.266 19.5 20.2 19.5 19Z" fill="#9777A8"/>
<path d="M27.5 20C28.3284 20 29 19.3284 29 18.5C29 17.6716 28.3284 17 27.5 17C26.6716 17 26 17.6716 26 18.5C26 19.3284 26.6716 20 27.5 20Z" fill="#9777A8"/>
<path d="M39.5 21C38.397 21 37.5 20.103 37.5 19V15C37.5 13.346 36.154 12 34.5 12C33.947 12 33.5 12.448 33.5 13C33.5 13.552 33.947 14 34.5 14C35.052 14 35.5 14.449 35.5 15V19C35.5 20.2 36.042 21.266 36.882 22C36.042 22.734 35.5 23.8 35.5 25V29C35.5 29.551 35.052 30 34.5 30C33.947 30 33.5 30.448 33.5 31C33.5 31.552 33.947 32 34.5 32C36.154 32 37.5 30.654 37.5 29V25C37.5 23.897 38.397 23 39.5 23C40.053 23 40.5 22.552 40.5 22C40.5 21.448 40.053 21 39.5 21Z" fill="#9777A8"/>
<path d="M27.5 24C26.947 24 26.5 24.448 26.5 25V28C26.5 28.552 26.947 29 27.5 29C28.053 29 28.5 28.552 28.5 28V25C28.5 24.448 28.053 24 27.5 24Z" fill="#9777A8"/>
</svg>
