<svg width="191" height="178" viewBox="0 0 191 178" fill="none" xmlns="http://www.w3.org/2000/svg">
<path fill-rule="evenodd" clip-rule="evenodd" d="M99.1508 0.0722636C125.246 1.42078 142.012 24.9951 158.411 45.4224C174.975 66.0555 194.533 87.6174 190.453 113.801C186.125 141.578 164.401 164.332 138.297 174.5C114.277 183.857 89.4829 172.612 65.8346 162.344C40.2598 151.238 9.18697 142.162 1.73663 115.202C-5.92549 87.4755 13.1604 60.8034 31.7145 38.8751C49.3632 18.0169 71.9293 -1.33445 99.1508 0.0722636Z" fill="#C8C8C8" fill-opacity="0.13"/>
<g clip-path="url(#clip0_5455_3473)">
<path d="M125.004 34H76.6641C71.3246 34 66.9961 38.3285 66.9961 43.668V134.332C66.9961 139.672 71.3246 144 76.6641 144H141.117C146.457 144 150.785 139.672 150.785 134.332V59.7812L125.004 34Z" fill="#E4F2F9"/>
<path d="M125.004 34H108.891V144H141.117C146.457 144 150.785 139.672 150.785 134.332V59.7812L125.004 34Z" fill="#BDE0F1"/>
<path d="M125.004 34V56.5586C125.004 58.3384 126.447 59.7812 128.227 59.7812H150.785L125.004 34Z" fill="#77BEE2"/>
<path d="M132.523 98.8828H85.2578C83.478 98.8828 82.0352 97.4399 82.0352 95.6602C82.0352 93.8804 83.478 92.4375 85.2578 92.4375H132.523C134.303 92.4375 135.746 93.8804 135.746 95.6602C135.746 97.4399 134.303 98.8828 132.523 98.8828Z" fill="#5F5F82"/>
<path d="M132.523 79.5469H85.2578C83.478 79.5469 82.0352 78.104 82.0352 76.3242C82.0352 74.5445 83.478 73.1016 85.2578 73.1016H132.523C134.303 73.1016 135.746 74.5445 135.746 76.3242C135.746 78.104 134.303 79.5469 132.523 79.5469Z" fill="#5F5F82"/>
<path d="M132.523 118.219H85.2578C83.478 118.219 82.0352 116.776 82.0352 114.996C82.0352 113.216 83.478 111.773 85.2578 111.773H132.523C134.303 111.773 135.746 113.216 135.746 114.996C135.746 116.776 134.303 118.219 132.523 118.219Z" fill="#5F5F82"/>
<path d="M135.746 95.6602C135.746 93.8804 134.303 92.4375 132.523 92.4375H108.891V98.8828H132.523C134.303 98.8828 135.746 97.4399 135.746 95.6602Z" fill="#3C3C55"/>
<path d="M135.746 76.3242C135.746 74.5445 134.303 73.1016 132.523 73.1016H108.891V79.5469H132.523C134.303 79.5469 135.746 78.104 135.746 76.3242Z" fill="#3C3C55"/>
<path d="M132.523 118.219C134.303 118.219 135.746 116.776 135.746 114.996C135.746 113.216 134.303 111.773 132.523 111.773H108.891V118.219H132.523Z" fill="#3C3C55"/>
<path d="M70.2188 144C54.226 144 41.2148 130.989 41.2148 114.996C41.2148 99.0033 54.226 85.9922 70.2188 85.9922C86.2115 85.9922 99.2227 99.0033 99.2227 114.996C99.2227 130.989 86.2115 144 70.2188 144Z" fill="#FF7350"/>
<path d="M70.2188 85.9922V144C86.2115 144 99.2227 130.989 99.2227 114.996C99.2227 99.0033 86.2115 85.9922 70.2188 85.9922Z" fill="#FF4B20"/>
<path d="M70.2188 92.4375C57.7799 92.4375 47.6602 102.557 47.6602 114.996C47.6602 127.435 57.7799 137.555 70.2188 137.555C82.6576 137.555 92.7773 127.435 92.7773 114.996C92.7773 102.557 82.6576 92.4375 70.2188 92.4375Z" fill="#E4F2F9"/>
<path d="M70.2188 92.4375V137.555C82.6576 137.555 92.7773 127.435 92.7773 114.996C92.7773 102.557 82.6576 92.4375 70.2188 92.4375Z" fill="#BDE0F1"/>
<path d="M78.8125 111.773H73.4414V102.105C73.4414 100.326 71.9985 98.8828 70.2188 98.8828C68.439 98.8828 66.9961 100.326 66.9961 102.105V114.996C66.9961 116.776 68.439 118.219 70.2188 118.219H78.8125C80.5923 118.219 82.0352 116.776 82.0352 114.996C82.0352 113.216 80.5923 111.773 78.8125 111.773Z" fill="#5F5F82"/>
<path d="M78.8125 111.773H73.4414V102.105C73.4414 100.326 71.9985 98.8828 70.2188 98.8828V118.219H78.8125C80.5923 118.219 82.0352 116.776 82.0352 114.996C82.0352 113.216 80.5923 111.773 78.8125 111.773Z" fill="#3C3C55"/>
<g clip-path="url(#clip1_5455_3473)">
<path d="M52.6862 56.6667C52.3065 56.6667 51.9481 56.4627 51.7569 56.1198L50.207 53.3304V55.6042C50.207 56.1907 49.731 56.6667 49.1445 56.6667C48.558 56.6667 48.082 56.1907 48.082 55.6042V49.2292C48.082 48.7447 48.4093 48.3211 48.8782 48.1992C49.3443 48.0802 49.8373 48.2885 50.0739 48.7121L51.6237 51.5029V49.2292C51.6237 48.6427 52.0997 48.1667 52.6862 48.1667C53.2727 48.1667 53.7487 48.6427 53.7487 49.2292V55.6042C53.7487 56.0887 53.4214 56.5122 52.9525 56.6341L52.6862 56.6667Z" fill="#F44336"/>
<path d="M58.3555 56.6667H57.6471C56.2801 56.6667 55.168 55.5546 55.168 54.1875V50.6458C55.168 49.2787 56.2801 48.1667 57.6471 48.1667H58.3555C59.7226 48.1667 60.8346 49.2787 60.8346 50.6458V54.1875C60.8346 55.5546 59.7226 56.6667 58.3555 56.6667ZM57.6471 50.2917C57.4516 50.2917 57.293 50.4503 57.293 50.6458V54.1875C57.293 54.383 57.4516 54.5417 57.6471 54.5417H58.3555C58.551 54.5417 58.7096 54.383 58.7096 54.1875V50.6458C58.7096 50.4503 58.551 50.2917 58.3555 50.2917H57.6471Z" fill="#F44336"/>
<path d="M65.082 56.6667C64.4955 56.6667 64.0195 56.1907 64.0195 55.6042V49.2292C64.0195 48.6427 66.1445 48.6427 66.1445 49.2292V55.6042C66.1445 56.1907 65.6685 56.6667 65.082 56.6667Z" fill="#F44336"/>
<path d="M66.8542 50.2917H63.3125C62.726 50.2917 62.25 49.8157 62.25 49.2292C62.25 48.6427 62.726 48.1667 63.3125 48.1667H66.8542C67.4407 48.1667 67.9167 48.6427 67.9167 49.2292C67.9167 49.8157 67.4407 50.2917 66.8542 50.2917Z" fill="#F44336"/>
<path d="M72.5195 68H70.3945C69.808 68 69.332 67.524 69.332 66.9375V60.5625C69.332 59.976 69.808 59.5 70.3945 59.5H72.5195C73.8866 59.5 74.9987 60.6121 74.9987 61.9792V65.5208C74.9987 66.8879 73.8866 68 72.5195 68ZM71.457 65.875H72.5195C72.715 65.875 72.8737 65.7163 72.8737 65.5208V61.9792C72.8737 61.7837 72.715 61.625 72.5195 61.625H71.457V65.875Z" fill="#F44336"/>
<path d="M42.0625 68C41.476 68 41 67.524 41 66.9375V61.9792C41 60.6121 42.1121 59.5 43.4792 59.5H45.6042C46.1907 59.5 46.6667 59.976 46.6667 60.5625C46.6667 61.149 46.1907 61.625 45.6042 61.625H43.4792C43.2837 61.625 43.125 61.7837 43.125 61.9792V66.9375C43.125 67.524 42.649 68 42.0625 68Z" fill="#F44336"/>
<path d="M45.6026 65.1667H42.061C41.4745 65.1667 41.4745 63.0417 42.061 63.0417H45.6026C46.1891 63.0417 46.6651 63.5177 46.6651 64.1042C46.6651 64.6907 46.1891 65.1667 45.6026 65.1667Z" fill="#F44336"/>
<path d="M66.8542 68C66.4745 68 66.1161 67.796 65.9248 67.4531L64.375 64.6623V66.9361C64.375 67.5226 63.899 67.9986 63.3125 67.9986C62.726 67.9986 62.25 67.524 62.25 66.9375V60.5625C62.25 60.078 62.5773 59.6544 63.0462 59.5326C63.5123 59.4121 64.0053 59.6232 64.2418 60.0454L65.7917 62.8362V60.5625C65.7917 59.976 66.2677 59.5 66.8542 59.5C67.4407 59.5 67.9167 59.976 67.9167 60.5625V66.9375C67.9167 67.422 67.5894 67.8456 67.1205 67.9674L66.8542 68Z" fill="#F44336"/>
<path d="M51.2695 68H50.5612C49.1941 68 48.082 66.8879 48.082 65.5208V61.9792C48.082 60.6121 49.1941 59.5 50.5612 59.5H51.2695C52.6366 59.5 53.7487 60.6121 53.7487 61.9792V65.5208C53.7487 66.8879 52.6366 68 51.2695 68ZM50.5612 61.625C50.3657 61.625 50.207 61.7837 50.207 61.9792V65.5208C50.207 65.7163 50.3657 65.875 50.5612 65.875H51.2695C51.465 65.875 51.6237 65.7163 51.6237 65.5208V61.9792C51.6237 61.7837 51.465 61.625 51.2695 61.625H50.5612Z" fill="#F44336"/>
<path d="M58.3555 68H57.6471C56.2801 68 55.168 66.8879 55.168 65.5208V60.5625C55.168 59.976 55.644 59.5 56.2305 59.5C56.817 59.5 57.293 59.976 57.293 60.5625V65.5208C57.293 65.7163 57.4516 65.875 57.6471 65.875H58.3555C58.551 65.875 58.7096 65.7163 58.7096 65.5208V60.5625C58.7096 59.976 59.1856 59.5 59.7721 59.5C60.3586 59.5 60.8346 59.976 60.8346 60.5625V65.5208C60.8346 66.8879 59.7226 68 58.3555 68Z" fill="#F44336"/>
<path d="M75 38.25V57.3042C74.2633 56.9075 73.4275 56.6667 72.5208 56.6667H72.1667V41.0833H43.8333V56.6667H43.4792C42.5725 56.6667 41.7367 56.9075 41 57.3042V38.25C41 35.9125 42.9125 34 45.25 34H70.75C73.0875 34 75 35.9125 75 38.25Z" fill="#607D8B"/>
<path d="M72.1654 41.0833V56.6667H70.3945C69.7712 56.6667 69.2045 56.8225 68.6804 57.0775C68.8645 56.6242 68.9779 56.1283 68.9779 55.6042V51.595C69.6437 51 70.0404 50.1642 70.0404 49.2292C70.0404 47.4725 68.6095 46.0417 66.8529 46.0417H66.0595C65.7479 45.985 65.4362 45.9567 65.082 45.9567C64.7279 45.9567 64.4162 45.985 64.1187 46.0417H63.3112C62.7162 46.0417 62.1495 46.2258 61.6537 46.5233C60.747 45.7867 59.6137 45.3333 58.3529 45.3333H57.6445C56.667 45.3333 55.7604 45.6167 54.967 46.0842C54.3295 45.6167 53.5362 45.3333 52.6862 45.3333C52.0487 45.3333 51.4395 45.4892 50.9154 45.7583C50.3345 45.4608 49.6687 45.2908 49.0029 45.3333L47.3737 45.7583C46.0845 46.41 45.2487 47.7417 45.2487 49.2292V55.6042C45.2487 55.9725 45.3195 56.3267 45.4187 56.6667H43.832V41.0833H72.1654Z" fill="white"/>
<path d="M52.6862 48.1667C52.0997 48.1667 51.6237 48.6427 51.6237 49.2292V51.5029L50.0739 48.7121C49.8812 48.3692 49.5199 48.1667 49.1417 48.1667C49.0539 48.1667 48.966 48.178 48.8782 48.1992C48.4093 48.3211 48.082 48.7447 48.082 49.2292V55.6042C48.082 56.1907 48.558 56.6667 49.1445 56.6667C49.731 56.6667 50.207 56.1907 50.207 55.6042V53.3304L51.7569 56.1212C51.9481 56.4627 52.3065 56.6667 52.6862 56.6667L52.9525 56.6341C53.4214 56.5122 53.7487 56.0887 53.7487 55.6042V49.2292C53.7487 48.6427 53.2727 48.1667 52.6862 48.1667Z" fill="#D43A2F"/>
<path d="M58.0013 48.1667H57.6471C56.2801 48.1667 55.168 49.2787 55.168 50.6458V54.1875C55.168 55.5546 56.2801 56.6667 57.6471 56.6667H58.0013V54.5417H57.6471C57.4516 54.5417 57.293 54.383 57.293 54.1875V50.6458C57.293 50.4503 57.4516 50.2917 57.6471 50.2917H58.0013V48.1667Z" fill="#D43A2F"/>
<path d="M45.6042 59.5H43.4792C42.1121 59.5 41 60.6121 41 61.9792V66.9375C41 67.524 41.476 68 42.0625 68C42.649 68 43.125 67.524 43.125 66.9375V65.1667H42.0625C41.476 65.1667 41.476 63.0417 42.0625 63.0417H43.125V61.9792C43.125 61.7837 43.2837 61.625 43.4792 61.625H45.6042C46.1907 61.625 46.6667 61.149 46.6667 60.5625C46.6667 59.976 46.1907 59.5 45.6042 59.5Z" fill="#D43A2F"/>
<path d="M45.6026 63.0417H43.1235H42.061C41.4745 63.0417 41.4745 65.1667 42.061 65.1667H43.1235H45.6026C46.1891 65.1667 46.6651 64.6907 46.6651 64.1042C46.6651 63.5177 46.1891 63.0417 45.6026 63.0417Z" fill="#D43A2F"/>
<path d="M50.5612 65.875C50.3657 65.875 50.207 65.7163 50.207 65.5208V61.9792C50.207 61.7837 50.3657 61.625 50.5612 61.625H51.2695C51.465 61.625 51.6237 61.7837 51.6237 61.9792V65.5208C51.6237 65.7163 51.465 65.875 51.2695 65.875H50.5612ZM51.2695 59.5H50.5612C49.1941 59.5 48.082 60.6121 48.082 61.9792V65.5208C48.082 66.8879 49.1941 68 50.5612 68H51.2695C52.6366 68 53.7487 66.8879 53.7487 65.5208V61.9792C53.7487 60.6121 52.6366 59.5 51.2695 59.5Z" fill="#D43A2F"/>
<path d="M56.2305 59.5C55.644 59.5 55.168 59.976 55.168 60.5625V65.5208C55.168 66.8879 56.2801 68 57.6471 68H58.0013V65.875H57.6471C57.4516 65.875 57.293 65.7163 57.293 65.5208V60.5625C57.293 59.976 56.817 59.5 56.2305 59.5Z" fill="#D43A2F"/>
<path d="M58 34H45.25C42.9125 34 41 35.9125 41 38.25V57.3042C41.7367 56.9075 42.5725 56.6667 43.4792 56.6667H43.8333V41.0833H58V34Z" fill="#546D79"/>
<path d="M57.9987 41.0833H43.832V56.6667H45.4187C45.3195 56.3267 45.2487 55.9725 45.2487 55.6042V49.2292C45.2487 47.7417 46.0845 46.41 47.3737 45.7583L49.0029 45.3333C49.0709 45.3291 49.1403 45.3263 49.2083 45.3263C49.8047 45.3263 50.394 45.4906 50.9154 45.7583C51.4395 45.4892 52.0487 45.3333 52.6862 45.3333C53.5362 45.3333 54.3295 45.6167 54.967 46.0842C55.7604 45.6167 56.667 45.3333 57.6445 45.3333H57.9987V41.0833Z" fill="#DEDEDE"/>
</g>
</g>
<defs>
<clipPath id="clip0_5455_3473">
<rect width="110" height="110" fill="white" transform="translate(41 34)"/>
</clipPath>
<clipPath id="clip1_5455_3473">
<rect width="34" height="34" fill="white" transform="translate(41 34)"/>
</clipPath>
</defs>
</svg>
