<svg width="303" height="157" viewBox="0 0 303 157" fill="none" xmlns="http://www.w3.org/2000/svg">
<g clip-path="url(#clip0_5455_3350)">
<rect width="303" height="157" rx="12" fill="white"/>
<circle cx="-40.1641" cy="86.8354" r="155" transform="rotate(15 -40.1641 86.8354)" fill="url(#paint0_linear_5455_3350)" fill-opacity="0.16"/>
<g clip-path="url(#clip1_5455_3350)">
<path d="M69.3679 74.5778H68.5234V75.4222H69.3679V74.5778Z" fill="url(#paint1_linear_5455_3350)"/>
<path d="M68.4091 77.0472L68.2891 77.8831L69.1249 78.0031L69.245 77.1673L68.4091 77.0472Z" fill="url(#paint2_linear_5455_3350)"/>
<path d="M67.941 79.4712L67.7031 80.2814L68.5133 80.5192L68.7511 79.7091L67.941 79.4712Z" fill="url(#paint3_linear_5455_3350)"/>
<path d="M67.1319 81.8069L66.7812 82.5752L67.5495 82.9261L67.9001 82.1579L67.1319 81.8069Z" fill="url(#paint4_linear_5455_3350)"/>
<path d="M66.003 84.0038L65.5469 84.7143L66.2567 85.1708L66.7136 84.4603L66.003 84.0038Z" fill="url(#paint5_linear_5455_3350)"/>
<path d="M36.4215 84.0035L35.7109 84.4597L36.1671 85.1702L36.8777 84.714L36.4215 84.0035Z" fill="url(#paint6_linear_5455_3350)"/>
<path d="M35.2915 81.808L34.5234 82.1588L34.8743 82.9269L35.6423 82.5761L35.2915 81.808Z" fill="url(#paint7_linear_5455_3350)"/>
<path d="M34.482 79.4721L33.6719 79.71L33.9097 80.5201L34.7199 80.2823L34.482 79.4721Z" fill="url(#paint8_linear_5455_3350)"/>
<path d="M34.0155 77.0457L33.1797 77.1661L33.3001 78.002L34.1359 77.8815L34.0155 77.0457Z" fill="url(#paint9_linear_5455_3350)"/>
<path d="M33.8991 74.5776H33.0547V75.4221H33.8991V74.5776Z" fill="url(#paint10_linear_5455_3350)"/>
<path d="M33.3001 71.9982L33.1797 72.834L34.0155 72.9544L34.1359 72.1186L33.3001 71.9982Z" fill="url(#paint11_linear_5455_3350)"/>
<path d="M33.9097 69.48L33.6719 70.2902L34.482 70.528L34.7199 69.7179L33.9097 69.48Z" fill="url(#paint12_linear_5455_3350)"/>
<path d="M39.6383 61.0024L39 61.5553L39.5529 62.1936L40.1912 61.6408L39.6383 61.0024Z" fill="url(#paint13_linear_5455_3350)"/>
<path d="M41.7496 59.4982L41.0391 59.955L41.4959 60.6649L42.2061 60.2087L41.7496 59.4982Z" fill="url(#paint14_linear_5455_3350)"/>
<path d="M44.0533 58.3095L43.2852 58.6602L43.6358 59.4283L44.404 59.0777L44.0533 58.3095Z" fill="url(#paint15_linear_5455_3350)"/>
<path d="M46.4978 57.4614L45.6875 57.699L45.925 58.5091L46.7353 58.2716L46.4978 57.4614Z" fill="url(#paint16_linear_5455_3350)"/>
<path d="M49.0468 56.9681L48.2109 57.0881L48.331 57.924L49.1668 57.8039L49.0468 56.9681Z" fill="url(#paint17_linear_5455_3350)"/>
<path d="M51.6335 56.8445H50.7891V57.6889H51.6335V56.8445Z" fill="url(#paint18_linear_5455_3350)"/>
<path d="M66.2567 64.8291L65.5469 65.2856L66.003 65.9961L66.7136 65.5396L66.2567 64.8291Z" fill="url(#paint19_linear_5455_3350)"/>
<path d="M67.5495 67.0737L66.7812 67.4247L67.1319 68.193L67.9001 67.8419L67.5495 67.0737Z" fill="url(#paint20_linear_5455_3350)"/>
<path d="M68.5133 69.4805L67.7031 69.7184L67.941 70.5285L68.7511 70.2907L68.5133 69.4805Z" fill="url(#paint21_linear_5455_3350)"/>
<path d="M69.1249 71.9988L68.2891 72.1193L68.4095 72.9551L69.2453 72.8347L69.1249 71.9988Z" fill="url(#paint22_linear_5455_3350)"/>
<path d="M51.6328 65.7111H48.6773V64.0222H51.6328C51.7832 64.0222 51.9225 63.9424 51.9976 63.8121C52.0735 63.6822 52.0741 63.5215 51.9996 63.3909C51.4596 62.4442 50.2992 61.4889 48.924 61.4889C47.4931 61.4889 46.2542 62.3247 45.7468 63.6H38.9415C38.4338 62.3247 37.1951 61.4889 35.7642 61.4889C34.3894 61.4889 33.2286 62.4442 32.6883 63.3908C32.6137 63.5215 32.6144 63.6817 32.69 63.8117C32.7655 63.9424 32.9047 64.0222 33.0551 64.0222H35.5884V65.7111H33.0551C32.9162 65.7111 32.7862 65.7794 32.7074 65.8938C32.6289 66.008 32.6111 66.1538 32.6606 66.2834C33.1557 67.5848 34.2001 68.2444 35.7642 68.2444C37.1951 68.2444 38.4338 67.4086 38.9415 66.1333H45.7468C46.2542 67.4086 47.4931 68.2444 48.924 68.2444C50.4885 68.2444 51.5332 67.5847 52.0274 66.2834C52.0768 66.1534 52.059 66.0079 51.9805 65.8935C51.9016 65.7793 51.7717 65.7111 51.6328 65.7111ZM48.9239 67.4C47.7609 67.4 46.768 66.6736 46.4526 65.5931C46.4002 65.4129 46.2349 65.2889 46.0475 65.2889H38.6405C38.4528 65.2889 38.2879 65.4129 38.2351 65.5931C37.9202 66.6736 36.927 67.4 35.7642 67.4C34.8241 67.4 34.1707 67.1288 33.7534 66.5555H36.0106C36.2439 66.5555 36.4329 66.3666 36.4329 66.1333V63.6C36.4329 63.3668 36.2439 63.1778 36.0106 63.1778H33.9111C34.3818 62.7087 35.0425 62.3333 35.7642 62.3333C36.927 62.3333 37.9202 63.0597 38.2352 64.1403C38.288 64.3204 38.4529 64.4444 38.6407 64.4444H46.0477C46.2351 64.4444 46.4003 64.3204 46.4528 64.1403C46.7681 63.0597 47.7609 62.3333 48.924 62.3333C49.6461 62.3333 50.3068 62.7087 50.7772 63.1778H48.2551C48.0218 63.1778 47.8328 63.3668 47.8328 63.6V66.1333C47.8328 66.3666 48.0218 66.5555 48.2551 66.5555H50.9348C50.5176 67.1288 49.8641 67.4 48.9239 67.4Z" fill="url(#paint23_linear_5455_3350)"/>
<path d="M66.8339 56H58.8117C58.7461 56 58.6814 56.0152 58.6231 56.0445L53.5564 58.5778C53.4132 58.6494 53.3229 58.7955 53.3229 58.9555V61.0667C53.3229 61.2999 53.5115 61.4889 53.7451 61.4889H60.5006V63.6V75.3074L59.5414 74.2882C59.4616 74.2037 59.3501 74.1556 59.234 74.1556V69.9334C59.234 69.7002 59.0453 69.5112 58.8117 69.5112H43.6118C43.3785 69.5112 43.1896 69.7002 43.1896 69.9334V74.1556C43.0731 74.1556 42.962 74.2037 42.8821 74.2882L36.1266 81.4659C36.0111 81.589 35.9795 81.7684 36.0464 81.9231C36.1134 82.0775 36.2655 82.1778 36.434 82.1778H38.9673V93.5778C38.9673 93.8114 39.1563 94 39.3896 94H44.4562H49.5229H63.034C63.2675 94 63.4562 93.8114 63.4562 93.5778V82.1777H65.9895C66.1581 82.1777 66.3101 82.0775 66.3771 81.923C66.4441 81.7683 66.4124 81.5889 66.297 81.4659L63.8784 78.8962V63.6V61.4889H66.8339C67.0675 61.4889 67.2562 61.2999 67.2562 61.0667V56.4222C67.2562 56.189 67.0675 56 66.8339 56ZM44.034 70.3555H58.3895V74.1555H57.5451V71.6222C57.5451 71.389 57.3564 71.2 57.1229 71.2H45.3007C45.0674 71.2 44.8784 71.389 44.8784 71.6222V74.1555H44.034V70.3555ZM56.7006 72.0444V74.1555H45.7229V72.0444H56.7006ZM49.1007 93.1555H44.8784V85.9777H49.1007V93.1555ZM62.6117 93.1555H51.634H50.7895H49.9451V85.5555C49.9451 85.3219 49.7561 85.1333 49.5229 85.1333H44.4562C44.223 85.1333 44.034 85.3219 44.034 85.5555V93.1555H39.8118V82.1777H48.6784V83.4444C48.6784 83.678 48.8674 83.8666 49.1007 83.8666H53.3229C53.5564 83.8666 53.7451 83.678 53.7451 83.4444V82.1777H62.6117V93.1555ZM52.9007 82.1777V83.0222H49.5229V82.1777H52.9007ZM49.5229 81.3333V80.4888H52.9007V81.3333H49.5229ZM65.0125 81.3333H63.034H53.7451V80.0666C53.7451 79.833 53.5564 79.6444 53.3229 79.6444H49.1007C48.8674 79.6444 48.6784 79.833 48.6784 80.0666V81.3333H39.3896H37.411L43.372 75H43.6118H58.8117H59.0519L65.0125 81.3333ZM63.034 64.0222V77.9991L61.3451 76.2046V64.0222H63.034ZM61.3451 63.1778V61.4889H63.034V63.1778H61.3451ZM66.4117 60.6444H63.4562H60.9229H54.1673V59.2165L58.9114 56.8444H64.3006V58.1111H65.1451V56.8444H66.4117V60.6444Z" fill="url(#paint24_linear_5455_3350)"/>
<path d="M65.1413 58.9556H64.2969V59.8H65.1413V58.9556Z" fill="url(#paint25_linear_5455_3350)"/>
<path d="M46.1413 89.3555H45.2969V90.1999H46.1413V89.3555Z" fill="url(#paint26_linear_5455_3350)"/>
<path d="M55.0092 85.9777H53.3203V87.6665H55.0092V85.9777Z" fill="url(#paint27_linear_5455_3350)"/>
<path d="M57.5444 85.9777H55.8555V87.6665H57.5444V85.9777Z" fill="url(#paint28_linear_5455_3350)"/>
<path d="M55.0092 88.511H53.3203V90.1999H55.0092V88.511Z" fill="url(#paint29_linear_5455_3350)"/>
<path d="M57.5444 88.511H55.8555V90.1999H57.5444V88.511Z" fill="url(#paint30_linear_5455_3350)"/>
</g>
<g clip-path="url(#clip2_5455_3350)">
<path d="M40.3182 127.884L41.1016 128.228L40.7572 129.012L39.9738 128.667L40.3182 127.884Z" fill="url(#paint31_linear_5455_3350)"/>
<path d="M30.5214 111.893L31.3047 112.238L30.9603 113.021L30.177 112.677L30.5214 111.893Z" fill="url(#paint32_linear_5455_3350)"/>
<path d="M41.3167 132.528C41.5878 132.647 41.8175 132.844 41.9767 133.094C42.1359 133.344 42.2175 133.635 42.2111 133.931C42.2047 134.227 42.1107 134.515 41.9409 134.758C41.7711 135 41.5331 135.187 41.2571 135.294C40.9811 135.402 40.6795 135.425 40.3903 135.361C40.1012 135.297 39.8375 135.149 39.6326 134.935C39.4277 134.721 39.2909 134.451 39.2394 134.159C39.1879 133.868 39.224 133.567 39.3432 133.296C39.5034 132.933 39.8011 132.648 40.1711 132.504C40.5411 132.36 40.9531 132.369 41.3167 132.528ZM40.4557 134.486C40.5719 134.538 40.7006 134.553 40.8256 134.531C40.9506 134.509 41.0663 134.45 41.1579 134.362C41.2496 134.275 41.3132 134.162 41.3406 134.038C41.368 133.914 41.3581 133.784 41.3121 133.666C41.266 133.548 41.1859 133.446 41.0819 133.373C40.9779 133.3 40.8547 133.26 40.7278 133.257C40.6009 133.255 40.4761 133.29 40.369 133.358C40.262 133.426 40.1776 133.524 40.1265 133.641C40.0582 133.797 40.0545 133.973 40.1162 134.132C40.1779 134.29 40.3 134.418 40.4557 134.486Z" fill="url(#paint33_linear_5455_3350)"/>
<path d="M45.8603 117.933L47.0099 117.048C47.0708 117.001 47.1431 116.971 47.2193 116.962C47.2955 116.953 47.3728 116.964 47.4431 116.995C47.5134 117.026 47.5741 117.075 47.6188 117.138C47.6635 117.2 47.6906 117.274 47.6972 117.35L47.8222 118.795L48.7072 119.945C48.754 120.006 48.7836 120.078 48.7929 120.154C48.8021 120.231 48.7907 120.308 48.7598 120.378C48.7289 120.449 48.6797 120.509 48.6173 120.554C48.5548 120.599 48.4815 120.626 48.405 120.632L46.9596 120.757L45.81 121.642C45.7492 121.689 45.6769 121.719 45.6006 121.728C45.5244 121.737 45.4471 121.726 45.3768 121.695C45.3065 121.664 45.2458 121.615 45.2011 121.552C45.1564 121.49 45.1294 121.417 45.1227 121.34L44.9977 119.895L44.1127 118.745C44.0659 118.684 44.0363 118.612 44.0271 118.536C44.0178 118.46 44.0292 118.382 44.0601 118.312C44.091 118.242 44.1403 118.181 44.2027 118.136C44.2651 118.092 44.3384 118.065 44.4149 118.058L45.8603 117.933ZM45.7524 119.472C45.8023 119.537 45.8325 119.615 45.8396 119.696L45.9078 120.487L46.537 120.003C46.6018 119.953 46.6796 119.922 46.7611 119.915L47.5521 119.847L47.0676 119.218C47.0177 119.153 46.9874 119.075 46.9803 118.994L46.9121 118.203L46.283 118.688C46.2181 118.737 46.1403 118.768 46.0588 118.775L45.2679 118.843L45.7524 119.472Z" fill="url(#paint34_linear_5455_3350)"/>
<path d="M24.493 121.917L25.9384 121.792L27.088 120.907C27.1489 120.86 27.2212 120.831 27.2974 120.821C27.3736 120.812 27.451 120.823 27.5212 120.854C27.5915 120.885 27.6522 120.934 27.6969 120.997C27.7416 121.059 27.7687 121.133 27.7753 121.209L27.9003 122.655L28.7853 123.804C28.8321 123.865 28.8617 123.937 28.871 124.014C28.8803 124.09 28.8688 124.167 28.8379 124.237C28.807 124.308 28.7578 124.368 28.6954 124.413C28.633 124.458 28.5597 124.485 28.4832 124.491L27.0378 124.617L25.8881 125.502C25.8273 125.548 25.755 125.578 25.6788 125.587C25.6025 125.596 25.5252 125.585 25.4549 125.554C25.3846 125.523 25.324 125.474 25.2793 125.412C25.2346 125.349 25.2075 125.276 25.2009 125.199L25.0758 123.754L24.1909 122.604C24.144 122.543 24.1144 122.471 24.1052 122.395C24.0959 122.319 24.1073 122.241 24.1382 122.171C24.1691 122.101 24.2184 122.04 24.2808 121.995C24.3432 121.951 24.4165 121.924 24.493 121.917ZM25.8306 123.331C25.8805 123.396 25.9107 123.474 25.9178 123.556L25.9861 124.346L26.6152 123.862C26.68 123.812 26.7578 123.782 26.8393 123.775L27.6303 123.706L27.1459 123.077C27.096 123.012 27.0658 122.935 27.0587 122.853L26.9903 122.062L26.3612 122.547C26.2964 122.596 26.2186 122.627 26.1371 122.634L25.3461 122.702L25.8306 123.331Z" fill="url(#paint35_linear_5455_3350)"/>
<path d="M22.6697 116.452L29.3597 115.604C29.9174 115.533 30.4838 115.615 30.9985 115.841L32.2788 116.404C32.5534 115.781 33.0638 115.293 33.6981 115.046C34.3323 114.799 35.0386 114.814 35.6619 115.087L37.2285 115.776L38.7783 112.251L39.5616 112.596L38.0119 116.121L39.5785 116.809C40.2012 117.084 40.6896 117.594 40.9365 118.229C41.1833 118.863 41.1685 119.569 40.8953 120.193L42.1756 120.755C42.6902 120.982 43.1337 121.344 43.4586 121.802L47.3557 127.306C47.4098 127.382 47.4373 127.474 47.4342 127.568C47.431 127.661 47.3972 127.751 47.338 127.824C47.2789 127.896 47.1976 127.947 47.1066 127.969C47.0156 127.991 46.92 127.982 46.8344 127.945L22.5514 117.269C22.4657 117.231 22.3948 117.166 22.3494 117.084C22.304 117.003 22.2867 116.908 22.3002 116.815C22.3136 116.723 22.357 116.637 22.4238 116.572C22.4905 116.506 22.5769 116.464 22.6697 116.452ZM39.2341 117.593L35.3175 115.871C34.902 115.689 34.4311 115.679 34.0083 115.843C33.5855 116.008 33.2452 116.333 33.0621 116.749L40.112 119.848C40.2941 119.433 40.304 118.962 40.1394 118.539C39.9748 118.116 39.6493 117.776 39.2341 117.593ZM45.7648 126.54L42.7603 122.297C42.525 121.965 42.2039 121.703 41.8312 121.539L30.6542 116.625C30.2815 116.461 29.8713 116.401 29.4675 116.453L24.3098 117.107L45.7648 126.54Z" fill="url(#paint36_linear_5455_3350)"/>
<path d="M24.4331 130.347L25.8646 129.981C25.9103 129.833 25.9665 129.689 26.0326 129.548C26.3158 128.901 26.742 128.325 27.2791 127.865C27.8162 127.406 28.4504 127.074 29.1342 126.894C29.1803 126.881 29.2237 126.86 29.2625 126.832C30.3553 126.065 30.9598 124.72 30.9655 124.707L31.9987 122.357C32.0444 122.253 32.1295 122.171 32.2352 122.13C32.3409 122.089 32.4587 122.092 32.5626 122.137L35.6959 123.515C35.7997 123.56 35.8812 123.646 35.9224 123.751C35.9635 123.857 35.961 123.975 35.9153 124.079L34.8824 126.428C34.6333 127.048 34.4843 127.704 34.4413 128.371L35.5227 128.407C35.8376 128.418 36.1362 128.55 36.3561 128.775C36.576 129.001 36.7002 129.303 36.7027 129.618C36.7051 129.933 36.5857 130.237 36.3694 130.466C36.153 130.695 35.8565 130.832 35.5418 130.847L35.0143 130.873C35.0672 131.304 35.0597 131.74 34.9922 132.168C35.3091 132.153 35.6208 132.253 35.8694 132.45C36.118 132.647 36.2865 132.928 36.3435 133.24C36.4005 133.552 36.3421 133.874 36.1793 134.146C36.0164 134.419 35.7602 134.622 35.4583 134.72L33.1284 135.472L33.8118 135.773C34.0715 135.887 34.2752 136.1 34.3781 136.364C34.481 136.628 34.4747 136.923 34.3605 137.182C34.2463 137.442 34.0337 137.646 33.7693 137.749C33.5049 137.852 33.2105 137.845 32.9508 137.731L31.6604 137.164L28.7721 137.137L28.5413 137.662L27.758 137.317L28.1024 136.534C28.1361 136.458 28.1915 136.392 28.2618 136.347C28.3322 136.302 28.4143 136.278 28.498 136.279L31.7563 136.309C31.8142 136.309 31.8714 136.322 31.9244 136.345L33.2952 136.948C33.3472 136.971 33.4061 136.972 33.4589 136.951C33.5118 136.931 33.5543 136.89 33.5772 136.838C33.6 136.786 33.6013 136.727 33.5807 136.674C33.5601 136.621 33.5194 136.579 33.4674 136.556L31.9171 135.875C30.7871 136.279 29.5451 136.235 28.4468 135.751C27.819 135.475 27.328 135.146 26.9333 134.73C26.8278 135.111 26.695 135.484 26.5357 135.845L25.7524 135.501C26.0759 134.774 26.2729 133.997 26.3349 133.204C26.362 132.893 26.3559 132.58 26.3169 132.27C26.2986 132.166 26.3195 132.059 26.3754 131.969C26.4313 131.879 26.5184 131.814 26.6198 131.784L29.8308 130.859C29.8454 130.855 29.8603 130.852 29.8753 130.849C30.5925 130.723 31.0346 130.033 31.2773 129.483L24.8466 131.124L23.0364 135.242L22.2531 134.897L24.1472 130.589C24.1734 130.53 24.2127 130.477 24.2622 130.435C24.3117 130.393 24.3702 130.363 24.4331 130.347ZM34.4432 125.301L32.0933 124.268L31.9211 124.659L34.271 125.693L34.4432 125.301ZM32.6099 123.093L32.4377 123.484L34.7876 124.518L34.9598 124.126L32.6099 123.093ZM35.4996 129.993C35.5514 129.99 35.602 129.977 35.6482 129.953C35.6943 129.929 35.7349 129.896 35.7672 129.856C35.7996 129.815 35.8229 129.768 35.8358 129.718C35.8486 129.668 35.8506 129.615 35.8416 129.564C35.8268 129.482 35.7842 129.407 35.721 129.352C35.6577 129.297 35.5776 129.265 35.4938 129.262L34.4958 129.229C34.5003 129.239 34.505 129.25 34.5104 129.26C34.6388 129.506 34.7454 129.762 34.8292 130.026L35.4996 129.993ZM35.4653 133.669C35.5042 133.587 35.5176 133.495 35.5038 133.405C35.49 133.316 35.4496 133.232 35.3878 133.166C35.326 133.099 35.2456 133.053 35.1572 133.033C35.0687 133.013 34.9762 133.019 34.8917 133.052L34.7415 133.111C34.7127 133.187 34.6821 133.262 34.6492 133.337C34.5065 133.662 34.3274 133.97 34.1155 134.254L35.1954 133.905C35.2542 133.887 35.3086 133.856 35.355 133.815C35.4014 133.775 35.439 133.725 35.4653 133.669ZM30.0469 131.688L27.198 132.508C27.2154 132.879 27.2009 133.25 27.1547 133.619C27.5268 134.228 28.0105 134.624 28.7911 134.968C29.5217 135.289 30.334 135.375 31.1158 135.214C31.8975 135.054 32.61 134.654 33.1548 134.071C33.6995 133.488 34.0496 132.75 34.1566 131.959C34.2636 131.168 34.1223 130.363 33.7521 129.656C33.6825 129.523 33.6372 129.377 33.6182 129.228C33.4749 128.126 33.758 127.048 33.9477 126.485L31.5555 125.433C31.2685 125.955 30.6647 126.893 29.7542 127.532C29.6329 127.618 29.4974 127.682 29.354 127.721C28.8261 127.859 28.334 128.109 27.9106 128.454C27.4871 128.798 27.1421 129.229 26.8986 129.718L31.8321 128.459C31.9029 128.441 31.9771 128.441 32.0477 128.46C32.1183 128.478 32.1829 128.515 32.2354 128.566C32.2879 128.616 32.3265 128.68 32.3476 128.75C32.3686 128.82 32.3715 128.894 32.3558 128.965C32.3341 129.063 31.8091 131.359 30.0469 131.688Z" fill="url(#paint37_linear_5455_3350)"/>
<path d="M32.2987 132.301L32.6891 132.476L33.0808 132.648C33.0559 132.704 32.4522 134.036 30.7271 134.339L30.5791 133.496C31.8395 133.275 32.2806 132.34 32.2987 132.301Z" fill="url(#paint38_linear_5455_3350)"/>
</g>
<path d="M38 36C44 36.4478 56 40.6746 56 54" stroke="#1E9BD0" stroke-dasharray="4 4"/>
<path d="M58 97C57.5771 102.667 53.5851 114 41 114" stroke="#1E9BD0" stroke-dasharray="4 4"/>
<ellipse cx="26.5" cy="16" rx="15.5" ry="16" fill="white" fill-opacity="0.25"/>
<path d="M24.1176 30.5179C23.7422 30.0071 23.4466 29.4589 23.228 28.8613L21.8685 29.0127L21.5122 27.2031L22.7759 26.6879C22.718 25.5554 22.9257 24.3849 23.4038 23.2869L22.4142 22.438L23.4207 20.8409L24.5935 21.3549C25.3776 20.4205 26.3529 19.7139 27.4084 19.2635L27.3346 17.9645L29.1165 17.512L29.5355 18.7053C30.6802 18.5851 31.8344 18.7452 32.9207 19.2047L32.9272 19.2087L33.7466 18.2183L35.2638 19.1745L34.7303 20.3451L34.7367 20.3491C35.6135 21.1269 36.2623 22.1031 36.6413 23.1835L37.8995 23.0465L38.2665 24.8534L37.0563 25.3431C37.1054 26.4897 36.8888 27.6743 36.384 28.7848L37.3602 29.6252L36.3537 31.2223L35.161 30.6958C34.3766 31.6009 33.4103 32.2933 32.3572 32.7255L32.4441 34.0919L30.6514 34.5472L30.2014 33.2554C29.568 33.316 28.9459 33.2859 28.3231 33.1676" stroke="url(#paint39_linear_5455_3350)" stroke-miterlimit="10" stroke-linecap="round" stroke-linejoin="round"/>
<path d="M25.3237 35.7945L25.1726 36.0342C24.7551 36.6967 23.9076 36.9141 23.2777 36.5171C22.6479 36.1202 22.4783 35.2618 22.8958 34.5993L23.0469 34.3596" stroke="url(#paint40_linear_5455_3350)" stroke-width="2" stroke-miterlimit="10" stroke-linecap="round" stroke-linejoin="round"/>
<path d="M34.2395 28.4097C33.4879 29.8282 32.2365 30.768 30.8679 31.1366C30.1797 31.3215 29.5491 31.7049 29.1006 32.282L27.4638 34.1442L23.6081 31.7143L24.5695 29.4593C24.9052 28.7899 24.9805 28.0389 24.8512 27.3206C24.6242 26.0597 24.8604 24.6863 25.6172 23.4854C27.2101 20.9579 30.4891 20.1789 32.8299 21.8296C34.8444 23.2498 35.459 26.1076 34.2395 28.4097Z" stroke="url(#paint41_linear_5455_3350)" stroke-miterlimit="10" stroke-linecap="round" stroke-linejoin="round"/>
<path d="M26.2922 36.1539L22.3053 33.6413C21.9498 33.4173 21.853 32.9329 22.0888 32.5588L22.4756 31.945C22.7114 31.5708 23.1902 31.4492 23.5456 31.6732L27.5325 34.1859C27.8879 34.4099 27.9848 34.8943 27.749 35.2684L27.3622 35.8822C27.1259 36.2561 26.6471 36.3776 26.2922 36.1539Z" stroke="url(#paint42_linear_5455_3350)" stroke-miterlimit="10" stroke-linecap="round" stroke-linejoin="round"/>
<path d="M27.1327 24.5645C28.097 23.0344 30.0576 22.5365 31.5111 23.4526C32.9647 24.3687 33.3615 26.3522 32.3972 27.8823" stroke="url(#paint43_linear_5455_3350)" stroke-miterlimit="10" stroke-linecap="round" stroke-linejoin="round"/>
</g>
<defs>
<linearGradient id="paint0_linear_5455_3350" x1="-40.1641" y1="-68.1645" x2="-40.1641" y2="241.835" gradientUnits="userSpaceOnUse">
<stop stop-color="#F7A71E"/>
<stop offset="1" stop-color="#F7A71E" stop-opacity="0"/>
</linearGradient>
<linearGradient id="paint1_linear_5455_3350" x1="68.9457" y1="74.5778" x2="68.9457" y2="75.4222" gradientUnits="userSpaceOnUse">
<stop stop-color="#F7A71E"/>
<stop offset="1" stop-color="#C15D00"/>
</linearGradient>
<linearGradient id="paint2_linear_5455_3350" x1="68.3491" y1="77.4651" x2="69.1849" y2="77.5852" gradientUnits="userSpaceOnUse">
<stop stop-color="#F7A71E"/>
<stop offset="1" stop-color="#C15D00"/>
</linearGradient>
<linearGradient id="paint3_linear_5455_3350" x1="67.8221" y1="79.8763" x2="68.6322" y2="80.1141" gradientUnits="userSpaceOnUse">
<stop stop-color="#F7A71E"/>
<stop offset="1" stop-color="#C15D00"/>
</linearGradient>
<linearGradient id="paint4_linear_5455_3350" x1="67.3407" y1="81.8069" x2="67.3407" y2="82.9261" gradientUnits="userSpaceOnUse">
<stop stop-color="#F7A71E"/>
<stop offset="1" stop-color="#C15D00"/>
</linearGradient>
<linearGradient id="paint5_linear_5455_3350" x1="66.1302" y1="84.0038" x2="66.1302" y2="85.1708" gradientUnits="userSpaceOnUse">
<stop stop-color="#F7A71E"/>
<stop offset="1" stop-color="#C15D00"/>
</linearGradient>
<linearGradient id="paint6_linear_5455_3350" x1="36.0662" y1="84.2316" x2="36.5224" y2="84.9421" gradientUnits="userSpaceOnUse">
<stop stop-color="#F7A71E"/>
<stop offset="1" stop-color="#C15D00"/>
</linearGradient>
<linearGradient id="paint7_linear_5455_3350" x1="34.9075" y1="81.9834" x2="35.2583" y2="82.7515" gradientUnits="userSpaceOnUse">
<stop stop-color="#F7A71E"/>
<stop offset="1" stop-color="#C15D00"/>
</linearGradient>
<linearGradient id="paint8_linear_5455_3350" x1="34.077" y1="79.591" x2="34.3148" y2="80.4012" gradientUnits="userSpaceOnUse">
<stop stop-color="#F7A71E"/>
<stop offset="1" stop-color="#C15D00"/>
</linearGradient>
<linearGradient id="paint9_linear_5455_3350" x1="33.5976" y1="77.1059" x2="33.718" y2="77.9418" gradientUnits="userSpaceOnUse">
<stop stop-color="#F7A71E"/>
<stop offset="1" stop-color="#C15D00"/>
</linearGradient>
<linearGradient id="paint10_linear_5455_3350" x1="33.4769" y1="74.5776" x2="33.4769" y2="75.4221" gradientUnits="userSpaceOnUse">
<stop stop-color="#F7A71E"/>
<stop offset="1" stop-color="#C15D00"/>
</linearGradient>
<linearGradient id="paint11_linear_5455_3350" x1="33.2399" y1="72.4161" x2="34.0757" y2="72.5365" gradientUnits="userSpaceOnUse">
<stop stop-color="#F7A71E"/>
<stop offset="1" stop-color="#C15D00"/>
</linearGradient>
<linearGradient id="paint12_linear_5455_3350" x1="33.7908" y1="69.8851" x2="34.601" y2="70.1229" gradientUnits="userSpaceOnUse">
<stop stop-color="#F7A71E"/>
<stop offset="1" stop-color="#C15D00"/>
</linearGradient>
<linearGradient id="paint13_linear_5455_3350" x1="39.3192" y1="61.2789" x2="39.872" y2="61.9172" gradientUnits="userSpaceOnUse">
<stop stop-color="#F7A71E"/>
<stop offset="1" stop-color="#C15D00"/>
</linearGradient>
<linearGradient id="paint14_linear_5455_3350" x1="41.6226" y1="59.4982" x2="41.6226" y2="60.6649" gradientUnits="userSpaceOnUse">
<stop stop-color="#F7A71E"/>
<stop offset="1" stop-color="#C15D00"/>
</linearGradient>
<linearGradient id="paint15_linear_5455_3350" x1="43.6693" y1="58.4848" x2="44.0199" y2="59.253" gradientUnits="userSpaceOnUse">
<stop stop-color="#F7A71E"/>
<stop offset="1" stop-color="#C15D00"/>
</linearGradient>
<linearGradient id="paint16_linear_5455_3350" x1="46.0927" y1="57.5802" x2="46.3302" y2="58.3904" gradientUnits="userSpaceOnUse">
<stop stop-color="#F7A71E"/>
<stop offset="1" stop-color="#C15D00"/>
</linearGradient>
<linearGradient id="paint17_linear_5455_3350" x1="48.6289" y1="57.0281" x2="48.7489" y2="57.8639" gradientUnits="userSpaceOnUse">
<stop stop-color="#F7A71E"/>
<stop offset="1" stop-color="#C15D00"/>
</linearGradient>
<linearGradient id="paint18_linear_5455_3350" x1="51.2113" y1="56.8445" x2="51.2113" y2="57.6889" gradientUnits="userSpaceOnUse">
<stop stop-color="#F7A71E"/>
<stop offset="1" stop-color="#C15D00"/>
</linearGradient>
<linearGradient id="paint19_linear_5455_3350" x1="66.1302" y1="64.8291" x2="66.1302" y2="65.9961" gradientUnits="userSpaceOnUse">
<stop stop-color="#F7A71E"/>
<stop offset="1" stop-color="#C15D00"/>
</linearGradient>
<linearGradient id="paint20_linear_5455_3350" x1="67.3407" y1="67.0737" x2="67.3407" y2="68.193" gradientUnits="userSpaceOnUse">
<stop stop-color="#F7A71E"/>
<stop offset="1" stop-color="#C15D00"/>
</linearGradient>
<linearGradient id="paint21_linear_5455_3350" x1="68.1082" y1="69.5995" x2="68.3461" y2="70.4096" gradientUnits="userSpaceOnUse">
<stop stop-color="#F7A71E"/>
<stop offset="1" stop-color="#C15D00"/>
</linearGradient>
<linearGradient id="paint22_linear_5455_3350" x1="68.707" y1="72.0591" x2="68.8274" y2="72.8949" gradientUnits="userSpaceOnUse">
<stop stop-color="#F7A71E"/>
<stop offset="1" stop-color="#C15D00"/>
</linearGradient>
<linearGradient id="paint23_linear_5455_3350" x1="42.3439" y1="61.4889" x2="42.3439" y2="68.2444" gradientUnits="userSpaceOnUse">
<stop stop-color="#F7A71E"/>
<stop offset="1" stop-color="#C15D00"/>
</linearGradient>
<linearGradient id="paint24_linear_5455_3350" x1="51.6339" y1="56" x2="51.6339" y2="94" gradientUnits="userSpaceOnUse">
<stop stop-color="#F7A71E"/>
<stop offset="1" stop-color="#C15D00"/>
</linearGradient>
<linearGradient id="paint25_linear_5455_3350" x1="64.7191" y1="58.9556" x2="64.7191" y2="59.8" gradientUnits="userSpaceOnUse">
<stop stop-color="#F7A71E"/>
<stop offset="1" stop-color="#C15D00"/>
</linearGradient>
<linearGradient id="paint26_linear_5455_3350" x1="45.7191" y1="89.3555" x2="45.7191" y2="90.1999" gradientUnits="userSpaceOnUse">
<stop stop-color="#F7A71E"/>
<stop offset="1" stop-color="#C15D00"/>
</linearGradient>
<linearGradient id="paint27_linear_5455_3350" x1="54.1648" y1="85.9777" x2="54.1648" y2="87.6665" gradientUnits="userSpaceOnUse">
<stop stop-color="#F7A71E"/>
<stop offset="1" stop-color="#C15D00"/>
</linearGradient>
<linearGradient id="paint28_linear_5455_3350" x1="56.6999" y1="85.9777" x2="56.6999" y2="87.6665" gradientUnits="userSpaceOnUse">
<stop stop-color="#F7A71E"/>
<stop offset="1" stop-color="#C15D00"/>
</linearGradient>
<linearGradient id="paint29_linear_5455_3350" x1="54.1648" y1="88.511" x2="54.1648" y2="90.1999" gradientUnits="userSpaceOnUse">
<stop stop-color="#F7A71E"/>
<stop offset="1" stop-color="#C15D00"/>
</linearGradient>
<linearGradient id="paint30_linear_5455_3350" x1="56.6999" y1="88.511" x2="56.6999" y2="90.1999" gradientUnits="userSpaceOnUse">
<stop stop-color="#F7A71E"/>
<stop offset="1" stop-color="#C15D00"/>
</linearGradient>
<linearGradient id="paint31_linear_5455_3350" x1="40.7099" y1="128.056" x2="40.3655" y2="128.839" gradientUnits="userSpaceOnUse">
<stop stop-color="#F7A71E"/>
<stop offset="1" stop-color="#C15D00"/>
</linearGradient>
<linearGradient id="paint32_linear_5455_3350" x1="30.913" y1="112.066" x2="30.5686" y2="112.849" gradientUnits="userSpaceOnUse">
<stop stop-color="#F7A71E"/>
<stop offset="1" stop-color="#C15D00"/>
</linearGradient>
<linearGradient id="paint33_linear_5455_3350" x1="41.3167" y1="132.528" x2="40.1113" y2="135.27" gradientUnits="userSpaceOnUse">
<stop stop-color="#F7A71E"/>
<stop offset="1" stop-color="#C15D00"/>
</linearGradient>
<linearGradient id="paint34_linear_5455_3350" x1="47.4431" y1="116.995" x2="45.3768" y2="121.695" gradientUnits="userSpaceOnUse">
<stop stop-color="#F7A71E"/>
<stop offset="1" stop-color="#C15D00"/>
</linearGradient>
<linearGradient id="paint35_linear_5455_3350" x1="27.5212" y1="120.854" x2="25.4549" y2="125.554" gradientUnits="userSpaceOnUse">
<stop stop-color="#F7A71E"/>
<stop offset="1" stop-color="#C15D00"/>
</linearGradient>
<linearGradient id="paint36_linear_5455_3350" x1="39.17" y1="112.423" x2="34.6929" y2="122.607" gradientUnits="userSpaceOnUse">
<stop stop-color="#F7A71E"/>
<stop offset="1" stop-color="#C15D00"/>
</linearGradient>
<linearGradient id="paint37_linear_5455_3350" x1="34.3258" y1="122.912" x2="27.9546" y2="137.404" gradientUnits="userSpaceOnUse">
<stop stop-color="#F7A71E"/>
<stop offset="1" stop-color="#C15D00"/>
</linearGradient>
<linearGradient id="paint38_linear_5455_3350" x1="32.1901" y1="132.253" x2="31.1846" y2="134.54" gradientUnits="userSpaceOnUse">
<stop stop-color="#F7A71E"/>
<stop offset="1" stop-color="#C15D00"/>
</linearGradient>
<linearGradient id="paint39_linear_5455_3350" x1="34.5087" y1="18.6986" x2="26.2234" y2="31.8451" gradientUnits="userSpaceOnUse">
<stop stop-color="#F7A71E"/>
<stop offset="1" stop-color="#C15D00"/>
</linearGradient>
<linearGradient id="paint40_linear_5455_3350" x1="24.1853" y1="35.0771" x2="23.2777" y2="36.5171" gradientUnits="userSpaceOnUse">
<stop stop-color="#F7A71E"/>
<stop offset="1" stop-color="#C15D00"/>
</linearGradient>
<linearGradient id="paint41_linear_5455_3350" x1="32.621" y1="21.6903" x2="25.5373" y2="32.9302" gradientUnits="userSpaceOnUse">
<stop stop-color="#F7A71E"/>
<stop offset="1" stop-color="#C15D00"/>
</linearGradient>
<linearGradient id="paint42_linear_5455_3350" x1="25.5391" y1="32.9295" x2="24.2987" y2="34.8976" gradientUnits="userSpaceOnUse">
<stop stop-color="#F7A71E"/>
<stop offset="1" stop-color="#C15D00"/>
</linearGradient>
<linearGradient id="paint43_linear_5455_3350" x1="31.5111" y1="23.4526" x2="29.7649" y2="26.2234" gradientUnits="userSpaceOnUse">
<stop stop-color="#F7A71E"/>
<stop offset="1" stop-color="#C15D00"/>
</linearGradient>
<clipPath id="clip0_5455_3350">
<rect width="303" height="157" rx="12" fill="white"/>
</clipPath>
<clipPath id="clip1_5455_3350">
<rect width="38" height="38" fill="white" transform="translate(32 56)"/>
</clipPath>
<clipPath id="clip2_5455_3350">
<rect width="27.382" height="27.382" fill="white" transform="matrix(-0.915431 -0.402475 -0.402475 0.915431 51.7031 117.934)"/>
</clipPath>
</defs>
</svg>
