<svg width="191" height="178" viewBox="0 0 191 178" fill="none" xmlns="http://www.w3.org/2000/svg">
<path fill-rule="evenodd" clip-rule="evenodd" d="M99.1508 0.0722636C125.246 1.42078 142.012 24.9951 158.411 45.4224C174.975 66.0555 194.533 87.6174 190.453 113.801C186.125 141.578 164.401 164.332 138.297 174.5C114.277 183.857 89.4829 172.612 65.8346 162.344C40.2598 151.238 9.18697 142.162 1.73663 115.202C-5.92549 87.4755 13.1604 60.8034 31.7145 38.8751C49.3632 18.0169 71.9293 -1.33445 99.1508 0.0722636Z" fill="#C8C8C8" fill-opacity="0.13"/>
<path d="M148.536 88.9918C148.536 118.019 125.009 141.537 95.99 141.537C66.9714 141.537 43.4609 118.019 43.4609 88.9918C43.4609 59.9813 66.9796 36.4627 95.99 36.4627C125 36.4627 148.536 59.9813 148.536 88.9918Z" fill="#EEECDE"/>
<path d="M138.621 131.243H54.594C54.3642 131.243 54.1836 131.063 54.1836 130.833C54.1836 130.603 54.3642 130.422 54.594 130.422H138.621C138.851 130.422 139.031 130.603 139.031 130.833C139.031 131.063 138.851 131.243 138.621 131.243Z" fill="#191D26"/>
<path d="M50.7094 131.243H43.8714C43.6415 131.243 43.4609 131.063 43.4609 130.833C43.4609 130.603 43.6415 130.422 43.8714 130.422H50.7094C50.9393 130.422 51.1199 130.603 51.1199 130.833C51.1199 131.063 50.9311 131.243 50.7094 131.243Z" fill="#191D26"/>
<path d="M148.123 131.243H142.016C141.786 131.243 141.605 131.063 141.605 130.833C141.605 130.603 141.786 130.422 142.016 130.422H148.123C148.353 130.422 148.534 130.603 148.534 130.833C148.534 131.063 148.353 131.243 148.123 131.243Z" fill="#191D26"/>
<path d="M60.1836 66.8769L81.6172 88.3104C83.3493 90.0425 86.1649 90.0507 87.897 88.3104C88.7672 87.4403 89.194 86.3075 89.194 85.1664C89.1858 84.0336 88.7508 82.8925 87.8888 82.0306L66.4634 60.597L60.1836 66.8769ZM83.3739 86.3403C82.6679 85.6343 82.6679 84.5015 83.3739 83.8037C84.0799 83.0978 85.2209 83.0978 85.9187 83.7955C86.6246 84.5015 86.6246 85.6425 85.9187 86.3485C85.2209 87.0463 84.0799 87.0463 83.3739 86.3403Z" fill="#899ABF"/>
<path d="M84.7533 90.0179C83.4563 90.0179 82.2413 89.5172 81.3219 88.5978L59.8966 67.1724C59.7324 67.0082 59.7324 66.7537 59.8966 66.5895L66.1764 60.3097C66.3324 60.1537 66.6033 60.1537 66.7593 60.3097L88.1928 81.7433C89.1122 82.6627 89.613 83.8776 89.613 85.1746C89.613 86.4716 89.1122 87.6866 88.1928 88.606C87.2652 89.5172 86.0503 90.0179 84.7533 90.0179ZM60.7667 66.8769L81.9048 88.0149C83.4727 89.5828 86.0339 89.591 87.6018 88.0149C88.3652 87.2515 88.7839 86.2418 88.7839 85.1664C88.7839 84.091 88.3652 83.0813 87.6018 82.3179L66.4637 61.1798L60.7667 66.8769Z" fill="#191D26"/>
<path d="M47.4656 52.5112L57.5708 62.6164L67.5119 52.6753C69.4492 56.7962 68.7268 61.853 65.3201 65.2597C60.9776 69.6022 53.9343 69.6022 49.5917 65.2597C46.1358 61.8119 45.438 56.6649 47.4656 52.5112Z" fill="#899ABF"/>
<path d="M64.252 50.4507C65.196 51.3948 65.9266 52.4537 66.4602 53.5948L61.6169 58.4381L51.5117 48.3328C55.6654 46.3052 60.8125 47.003 64.252 50.4507Z" fill="#899ABF"/>
<path d="M57.4485 68.9209C54.4933 68.9209 51.5381 67.7963 49.2971 65.547C45.8165 62.0664 44.9381 56.7552 47.0971 52.3306C47.1545 52.2074 47.2694 52.1254 47.4008 52.1089C47.5321 52.0843 47.6635 52.1254 47.762 52.2239L57.5717 62.0336L67.2254 52.3798C67.3239 52.2813 67.4553 52.2403 67.5866 52.2649C67.718 52.2895 67.8329 52.3716 67.8903 52.4948C69.9508 56.8783 69.0314 62.1239 65.6165 65.547C63.3508 67.7963 60.4038 68.9209 57.4485 68.9209ZM47.5896 53.2171C45.8985 57.2149 46.7769 61.8694 49.8717 64.9642C54.05 69.1425 60.8471 69.1425 65.0172 64.9642C68.0545 61.9269 68.9657 57.338 67.365 53.3813L57.8426 62.8955C57.6784 63.0597 57.4239 63.0597 57.2597 62.8955L47.5896 53.2171Z" fill="#191D26"/>
<path d="M61.6196 58.8485C61.5129 58.8485 61.4062 58.8074 61.3323 58.7254L51.2189 48.6201C51.1286 48.5298 51.0793 48.3903 51.104 48.2589C51.1286 48.1276 51.2107 48.0127 51.3256 47.9552C55.7585 45.7963 61.0696 46.6746 64.542 50.1552C65.5025 51.1157 66.2741 52.2074 66.8323 53.4142C66.9062 53.5701 66.8734 53.7589 66.7502 53.8739L61.907 58.7172C61.8249 58.8074 61.7182 58.8485 61.6196 58.8485ZM52.2204 48.4642L61.6196 57.8634L65.9704 53.5127C65.4614 52.4948 64.7965 51.5672 63.9674 50.7463C60.8808 47.6515 56.2264 46.7731 52.2204 48.4642Z" fill="#191D26"/>
<path d="M60.561 65.3582L64.9364 60.9828C65.2565 60.6627 65.2565 60.1455 64.9364 59.8254L64.7065 59.5955C64.3864 59.2754 63.8692 59.2754 63.5491 59.5955L59.1737 63.9709C58.8536 64.291 58.8536 64.8082 59.1737 65.1284L59.4036 65.3582C59.7237 65.6784 60.2409 65.6784 60.561 65.3582Z" fill="#434C6D"/>
<path d="M59.9766 66.0067C59.6647 66.0067 59.3445 65.8836 59.1065 65.6455L58.8766 65.4157C58.4005 64.9396 58.4005 64.1515 58.8766 63.6754L63.2602 59.3C63.7199 58.8321 64.5326 58.8321 65.0005 59.3L65.2304 59.5299C65.4602 59.7597 65.5915 60.0716 65.5915 60.4C65.5915 60.7284 65.4602 61.0403 65.2304 61.2701L60.855 65.6455C60.6087 65.8836 60.2968 66.0067 59.9766 66.0067ZM64.1221 59.7515C64.0154 59.7515 63.9087 59.7925 63.8348 59.8746L59.4512 64.25C59.2953 64.406 59.2953 64.6687 59.4512 64.8328L59.6811 65.0627C59.8371 65.2187 60.0998 65.2187 60.2639 65.0627L64.6393 60.6873C64.7132 60.6134 64.7624 60.5067 64.7624 60.4C64.7624 60.2933 64.7214 60.1866 64.6393 60.1127L64.4095 59.8828C64.3356 59.7925 64.2371 59.7515 64.1221 59.7515Z" fill="#191D26"/>
<path d="M80.9177 81.7433C80.811 81.7433 80.7043 81.7022 80.6304 81.6201L67.0528 68.0507C66.8886 67.8865 66.8886 67.6321 67.0528 67.4679C67.217 67.3037 67.4715 67.3037 67.6357 67.4679L81.2051 81.0373C81.3692 81.2015 81.3692 81.4559 81.2051 81.6201C81.123 81.7022 81.0163 81.7433 80.9177 81.7433Z" fill="#191D26"/>
<path d="M84.6539 87.2761C84.0875 87.2761 83.5211 87.0627 83.086 86.6276C82.6674 86.2089 82.4375 85.6589 82.4375 85.0679C82.4375 84.4768 82.6674 83.9268 83.086 83.5082C83.9479 82.6462 85.3517 82.638 86.2136 83.5C87.0756 84.3619 87.0756 85.7739 86.2136 86.6358C85.7785 87.0627 85.2203 87.2761 84.6539 87.2761ZM84.6539 83.6806C84.2927 83.6806 83.9397 83.8201 83.6606 84.091C83.3979 84.3537 83.2502 84.6985 83.2502 85.0679C83.2502 85.4373 83.3979 85.7821 83.6606 86.0447C84.2024 86.5865 85.089 86.5947 85.6308 86.053C86.1726 85.5112 86.1726 84.6246 85.6308 84.0828C85.3599 83.8119 85.0069 83.6806 84.6539 83.6806Z" fill="#191D26"/>
<path d="M89.0556 63.4784L66.5712 85.9627C65.2988 87.2351 63.2384 87.2351 61.966 85.9627C60.6936 84.6903 60.6936 82.6299 61.966 81.3575L84.4503 58.8731L89.0556 63.4784Z" fill="#EEAF4B"/>
<path d="M64.271 87.3254C63.2941 87.3254 62.3747 86.9478 61.6769 86.25C60.9874 85.5604 60.6016 84.6328 60.6016 83.656C60.6016 82.6791 60.9792 81.7515 61.6769 81.0619L84.1613 58.5776C84.3172 58.4216 84.5881 58.4216 84.7441 58.5776L89.3493 63.1828C89.4232 63.2567 89.4725 63.3634 89.4725 63.4701C89.4725 63.5769 89.4314 63.6836 89.3493 63.7575L66.8568 86.25C66.1672 86.9478 65.2478 87.3254 64.271 87.3254ZM84.4486 59.4478L62.2516 81.6448C61.7098 82.1784 61.4143 82.9007 61.4143 83.656C61.4143 84.4194 61.7098 85.1336 62.2516 85.6672C63.3269 86.7425 65.1986 86.7425 66.274 85.6672L88.471 63.4701L84.4486 59.4478Z" fill="#191D26"/>
<path d="M95.1718 60.359L88.5307 67C87.4225 68.1082 85.6247 68.1082 84.5165 67L80.568 63.0515C79.7553 62.2388 79.4762 60.9993 79.9606 59.9567C81.1591 57.3791 80.3218 53.7754 77.6867 51.1403C74.7233 48.1769 70.5285 47.4791 67.9509 49.4082C67.6143 49.6627 67.1382 49.6134 66.8345 49.3179C66.4733 48.9567 66.5061 48.3739 66.8919 48.0291C69.7322 45.5172 73.3031 44.2694 76.8576 44.2694C80.7076 44.2694 84.574 45.7388 87.5128 48.6776L95.1718 56.3366C96.28 57.453 96.28 59.2508 95.1718 60.359Z" fill="#434C6D"/>
<path d="M88.3633 67.1638L95.3278 60.1993L97.4577 62.3293L90.4933 69.2938L88.3633 67.1638Z" fill="#434C6D"/>
<path d="M100.376 63.6836L91.855 72.2045C91.2639 72.7955 90.3117 72.7955 89.7206 72.2045C89.1296 71.6134 89.1296 70.6612 89.7206 70.0701L98.2415 61.5492C98.8326 60.9582 99.7848 60.9582 100.376 61.5492C100.967 62.1403 100.967 63.0925 100.376 63.6836Z" fill="#434C6D"/>
<path d="M86.5268 68.2395C85.6977 68.2395 84.8603 67.9194 84.2282 67.2873L80.2797 63.3388C79.3193 62.3784 79.0402 60.95 79.5902 59.7843C80.7394 57.3134 79.8447 53.8739 77.3984 51.4358C74.5991 48.6366 70.6506 47.9142 68.2044 49.7448C67.7118 50.1142 66.9977 50.0567 66.5544 49.6134C66.2999 49.3589 66.1685 49.0306 66.185 48.6694C66.1932 48.3082 66.3574 47.9634 66.6282 47.7254C69.4521 45.2298 73.0887 43.8589 76.8648 43.8589C81.0021 43.8589 84.885 45.4679 87.8074 48.3903L95.4663 56.0492C96.7305 57.3134 96.7305 59.3739 95.4663 60.6381L88.8253 67.2791C88.185 67.9276 87.3559 68.2395 86.5268 68.2395ZM71.3977 47.9224C73.6305 47.9224 76.0603 48.9403 77.973 50.853C80.6574 53.5373 81.6178 57.3463 80.329 60.1291C79.9268 60.9828 80.1402 62.0418 80.8544 62.756L84.8029 66.7045C85.7469 67.6485 87.2902 67.6485 88.2342 66.7045L94.8753 60.0634C95.8193 59.1194 95.8193 57.5761 94.8753 56.6321L87.2163 48.9731C84.4499 46.2067 80.7641 44.6798 76.8484 44.6798C73.2693 44.6798 69.8297 45.9769 67.1536 48.341C67.0469 48.4313 66.9894 48.5627 66.9812 48.694C66.9812 48.8172 67.0223 48.9403 67.1126 49.0306C67.2685 49.1866 67.523 49.2112 67.6954 49.0798C68.7544 48.3 70.0432 47.9224 71.3977 47.9224Z" fill="#191D26"/>
<path d="M90.5018 69.709C90.3951 69.709 90.2884 69.6679 90.2145 69.5858L88.0802 67.4515C87.916 67.2873 87.916 67.0328 88.0802 66.8687L95.0496 59.8993C95.2137 59.7351 95.4682 59.7351 95.6324 59.8993L97.7667 62.0336C97.8406 62.1075 97.8899 62.2142 97.8899 62.3209C97.8899 62.4276 97.8488 62.5343 97.7667 62.6082L90.7973 69.5776C90.7152 69.6679 90.6085 69.709 90.5018 69.709ZM88.9503 67.1642L90.5018 68.7157L96.8884 62.3291L95.3369 60.7776L88.9503 67.1642Z" fill="#191D26"/>
<path d="M90.7858 73.0582C90.2933 73.0582 89.8008 72.8694 89.4314 72.5C88.6843 71.753 88.6843 70.538 89.4314 69.7828L97.9522 61.2619C98.6993 60.5149 99.9142 60.5149 100.661 61.2619C101.408 62.0089 101.408 63.2239 100.661 63.9709L92.1403 72.5C91.7709 72.8694 91.2784 73.0582 90.7858 73.0582ZM99.3067 61.5246C99.0276 61.5246 98.7485 61.6313 98.5269 61.8448L90.0142 70.3657C89.5873 70.7925 89.5873 71.4903 90.0142 71.9171C90.4411 72.344 91.1388 72.344 91.5657 71.9171L100.087 63.3963C100.513 62.9694 100.513 62.2716 100.087 61.8448C99.8731 61.6313 99.594 61.5246 99.3067 61.5246Z" fill="#191D26"/>
<path d="M65.1484 126.663H135.696V130.833H65.1484V126.663Z" fill="#434C6D"/>
<path d="M135.696 131.243H65.1487C64.9189 131.243 64.7383 131.063 64.7383 130.833V126.663C64.7383 126.433 64.9189 126.252 65.1487 126.252H135.696C135.926 126.252 136.107 126.433 136.107 126.663V130.833C136.107 131.063 135.918 131.243 135.696 131.243ZM65.5592 130.422H135.286V127.073H65.5592V130.422Z" fill="#191D26"/>
<path d="M69.1797 83.6888H131.658V126.663H69.1797V83.6888Z" fill="#FBC592"/>
<path d="M135.917 83.6888L131.657 72.5164H69.1784L64.918 83.6888H135.917Z" fill="#E86060"/>
<path d="M135.919 84.0992H64.9195C64.7882 84.0992 64.6568 84.0336 64.583 83.9186C64.5091 83.8037 64.4927 83.6642 64.5337 83.541L68.7942 72.3686C68.8516 72.2127 69.0076 72.106 69.18 72.106H131.658C131.831 72.106 131.978 72.2127 132.044 72.3686L136.305 83.541C136.354 83.6642 136.337 83.8119 136.255 83.9186C136.173 84.0254 136.05 84.0992 135.919 84.0992ZM65.5188 83.2783H135.32L131.371 72.9269H69.4673L65.5188 83.2783Z" fill="#191D26"/>
<path d="M131.658 127.073H69.18C68.9501 127.073 68.7695 126.893 68.7695 126.663V83.6888C68.7695 83.4589 68.9501 83.2784 69.18 83.2784H131.658C131.888 83.2784 132.069 83.4589 132.069 83.6888V126.663C132.069 126.893 131.888 127.073 131.658 127.073ZM69.5904 126.252H131.248V84.0992H69.5904V126.252Z" fill="#191D26"/>
<path d="M122.694 76.6209V126.663H98.3789V76.6209L110.536 68.4119L122.694 76.6209Z" fill="#FFDCC0"/>
<path d="M122.694 127.073H98.3792C98.1493 127.073 97.9688 126.893 97.9688 126.663V76.6209C97.9688 76.4813 98.0344 76.3582 98.1493 76.2843L110.307 68.0754C110.446 67.9851 110.627 67.9851 110.767 68.0754L122.924 76.2843C123.039 76.3582 123.105 76.4895 123.105 76.6209V126.671C123.105 126.893 122.916 127.073 122.694 127.073ZM98.7896 126.252H122.275V76.8343L110.528 68.9045L98.7896 76.8343V126.252Z" fill="#191D26"/>
<path d="M124.886 74.741L110.537 65.0545L96.1875 74.741V78.0985L110.537 68.4119L124.886 78.0985V74.741Z" fill="#FF7E7A"/>
<path d="M124.886 78.5089C124.804 78.5089 124.722 78.4843 124.656 78.4351L110.537 68.8963L96.4176 78.4351C96.2945 78.5172 96.1303 78.5254 95.999 78.4597C95.8676 78.3858 95.7773 78.2463 95.7773 78.0985V74.741C95.7773 74.6015 95.843 74.4783 95.9579 74.4045L110.307 64.7097C110.447 64.6194 110.627 64.6194 110.767 64.7097L125.116 74.4045C125.231 74.4783 125.297 74.6097 125.297 74.741V78.0985C125.297 78.2545 125.215 78.3858 125.075 78.4597C125.018 78.4925 124.952 78.5089 124.886 78.5089ZM110.537 68.0015C110.619 68.0015 110.701 68.0261 110.767 68.0754L124.476 77.3351V74.9627L110.537 65.547L96.5982 74.9627V77.3269L110.307 68.0672C110.373 68.0179 110.455 68.0015 110.537 68.0015Z" fill="#191D26"/>
<path d="M103.961 78.7963H117.103V97.603H103.961V78.7963Z" fill="#434C6D"/>
<g opacity="0.1">
<path d="M117.111 78.8045V82.2687C111.464 82.2687 106.883 86.8492 106.883 92.497V97.6112H103.969V78.8045H117.111Z" fill="black"/>
</g>
<path d="M105.191 111.369H115.879V126.663H105.191V111.369Z" fill="#BF7460"/>
<g opacity="0.1">
<path d="M115.879 111.369V113.602H112.103C109.353 113.602 107.121 115.835 107.121 118.585V126.671H105.191V111.369H115.879Z" fill="black"/>
</g>
<path d="M115.88 127.073H105.192C104.962 127.073 104.781 126.893 104.781 126.663V111.369C104.781 111.14 104.962 110.959 105.192 110.959H115.88C116.11 110.959 116.29 111.14 116.29 111.369V126.663C116.29 126.893 116.11 127.073 115.88 127.073ZM105.602 126.252H115.469V111.78H105.602V126.252Z" fill="#191D26"/>
<path d="M117.104 98.0134H103.961C103.731 98.0134 103.551 97.8328 103.551 97.603V78.7963C103.551 78.5664 103.731 78.3858 103.961 78.3858H117.104C117.334 78.3858 117.514 78.5664 117.514 78.7963V97.603C117.514 97.8328 117.334 98.0134 117.104 98.0134ZM104.372 97.1925H116.693V79.2067H104.372V97.1925Z" fill="#191D26"/>
<path d="M96.6719 103.062H124.402V105.82H96.6719V103.062Z" fill="#FF7E7A"/>
<path d="M124.402 106.231H96.6722C96.4423 106.231 96.2617 106.05 96.2617 105.82V103.062C96.2617 102.832 96.4423 102.651 96.6722 102.651H124.402C124.632 102.651 124.812 102.832 124.812 103.062V105.82C124.812 106.05 124.632 106.231 124.402 106.231ZM97.0826 105.41H123.992V103.472H97.0826V105.41Z" fill="#191D26"/>
<path d="M117.104 84.0992H103.961C103.731 84.0992 103.551 83.9186 103.551 83.6888C103.551 83.4589 103.731 83.2784 103.961 83.2784H117.104C117.334 83.2784 117.514 83.4589 117.514 83.6888C117.514 83.9186 117.334 84.0992 117.104 84.0992Z" fill="#191D26"/>
<path d="M110.535 98.0134C110.306 98.0134 110.125 97.8328 110.125 97.603V83.6888C110.125 83.4589 110.306 83.2784 110.535 83.2784C110.765 83.2784 110.946 83.4589 110.946 83.6888V97.603C110.946 97.8328 110.765 98.0134 110.535 98.0134Z" fill="#191D26"/>
<path d="M75.1133 90.5761H92.4424V101.404H75.1133V90.5761Z" fill="#434C6D"/>
<g opacity="0.1">
<path d="M92.4502 90.5843V93.4H85.6942C81.3681 93.4 77.8711 96.9052 77.8711 101.223V101.412H75.1211V90.5843H92.4502Z" fill="black"/>
</g>
<path d="M92.4427 101.822H75.1136C74.8837 101.822 74.7031 101.642 74.7031 101.412V90.5761C74.7031 90.3462 74.8837 90.1656 75.1136 90.1656H92.4427C92.6725 90.1656 92.8531 90.3462 92.8531 90.5761V101.404C92.8531 101.634 92.6725 101.822 92.4427 101.822ZM75.524 101.001H92.0322V90.9865H75.524V101.001Z" fill="#191D26"/>
<path d="M92.4427 93.8022H75.1136C74.8837 93.8022 74.7031 93.6216 74.7031 93.3918C74.7031 93.1619 74.8837 92.9813 75.1136 92.9813H92.4427C92.6725 92.9813 92.8531 93.1619 92.8531 93.3918C92.8531 93.6216 92.6725 93.8022 92.4427 93.8022Z" fill="#191D26"/>
<path d="M83.7815 101.822C83.5517 101.822 83.3711 101.642 83.3711 101.412V93.4C83.3711 93.1701 83.5517 92.9895 83.7815 92.9895C84.0114 92.9895 84.192 93.1701 84.192 93.4V101.412C84.192 101.634 84.0032 101.822 83.7815 101.822Z" fill="#191D26"/>
<path d="M75.1133 108.184H92.4424V119.012H75.1133V108.184Z" fill="#434C6D"/>
<g opacity="0.1">
<path d="M92.4502 108.193V111.008H85.6942C81.3681 111.008 77.8711 114.513 77.8711 118.831V119.02H75.1211V108.193H92.4502Z" fill="black"/>
</g>
<path d="M92.4427 119.431H75.1136C74.8837 119.431 74.7031 119.25 74.7031 119.02V108.184C74.7031 107.954 74.8837 107.774 75.1136 107.774H92.4427C92.6725 107.774 92.8531 107.954 92.8531 108.184V119.012C92.8531 119.242 92.6725 119.431 92.4427 119.431ZM75.524 118.61H92.0322V108.595H75.524V118.61Z" fill="#191D26"/>
<path d="M92.4427 111.41H75.1136C74.8837 111.41 74.7031 111.23 74.7031 111C74.7031 110.77 74.8837 110.59 75.1136 110.59H92.4427C92.6725 110.59 92.8531 110.77 92.8531 111C92.8531 111.23 92.6725 111.41 92.4427 111.41Z" fill="#191D26"/>
<path d="M83.7815 119.431C83.5517 119.431 83.3711 119.25 83.3711 119.02V111C83.3711 110.77 83.5517 110.59 83.7815 110.59C84.0114 110.59 84.192 110.77 84.192 111V119.012C84.192 119.242 84.0032 119.431 83.7815 119.431Z" fill="#191D26"/>
</svg>
