<svg width="136" height="128" viewBox="0 0 136 128" fill="none" xmlns="http://www.w3.org/2000/svg">
<path fill-rule="evenodd" clip-rule="evenodd" d="M70.5996 0.0519648C89.1806 1.02169 101.118 17.974 112.795 32.6633C124.59 47.5006 138.516 63.0058 135.611 81.8346C132.529 101.809 117.061 118.171 98.4734 125.483C81.3697 132.211 63.7156 124.126 46.877 116.741C28.6666 108.756 6.54151 102.229 1.23655 82.8419C-4.2192 62.9037 9.37077 43.7238 22.582 27.9552C35.1487 12.9559 51.2167 -0.959602 70.5996 0.0519648Z" fill="#F7B239" fill-opacity="0.1"/>
<g clip-path="url(#clip0_5396_5545)">
<path d="M92.1888 28.8633H43.3149C42.4284 28.8633 41.7031 29.5885 41.7031 30.4751V97.2516C41.7031 98.1382 42.4284 98.8634 43.3149 98.8634H92.1888C93.0753 98.8634 93.8005 98.1382 93.8005 97.2516C93.8005 96.6246 93.8005 31.642 93.8005 30.4751C93.8005 29.5885 93.0753 28.8633 92.1888 28.8633Z" fill="#E4EAF8"/>
<path d="M45.9286 97.2516V30.4751C45.9286 29.5885 46.6544 28.8633 47.5404 28.8633H43.3149C42.4284 28.8633 41.7031 29.5885 41.7031 30.4751V97.2516C41.7031 98.1382 42.4284 98.8634 43.3149 98.8634H47.5404C46.6544 98.8634 45.9286 98.1382 45.9286 97.2516Z" fill="#C7D2E5"/>
<path d="M81.4057 45.2455H58.2868C57.7036 45.2455 57.2305 44.7724 57.2305 44.1892C57.2305 43.6054 57.7036 43.1328 58.2868 43.1328H81.4057C81.9889 43.1328 82.4621 43.6054 82.4621 44.1892C82.4621 44.7724 81.9889 45.2455 81.4057 45.2455Z" fill="#C7D2E5"/>
<path d="M81.4057 53.1154H58.2868C57.7036 53.1154 57.2305 52.6422 57.2305 52.0585C57.2305 51.4753 57.7036 51.0022 58.2868 51.0022H81.4057C81.9889 51.0022 82.4621 51.4753 82.4621 52.0585C82.4621 52.6422 81.9889 53.1154 81.4057 53.1154Z" fill="#C7D2E5"/>
<path d="M81.4057 60.9848H58.2868C57.7036 60.9848 57.2305 60.5121 57.2305 59.9284C57.2305 59.3447 57.7036 58.872 58.2868 58.872H81.4057C81.9889 58.872 82.4621 59.3447 82.4621 59.9284C82.4621 60.5121 81.9889 60.9848 81.4057 60.9848Z" fill="#C7D2E5"/>
<path d="M79.4259 68.8547H58.2868C57.7036 68.8547 57.2305 68.3815 57.2305 67.7983C57.2305 67.2146 57.7036 66.7419 58.2868 66.7419H79.4259C80.0091 66.7419 80.4823 67.2146 80.4823 67.7983C80.4823 68.3815 80.0091 68.8547 79.4259 68.8547Z" fill="#C7D2E5"/>
<path d="M75.7543 76.724H58.2868C57.7036 76.724 57.2305 76.2514 57.2305 75.6677C57.2305 75.0845 57.7036 74.6113 58.2868 74.6113H75.7543C76.338 74.6113 76.8112 75.0845 76.8112 75.6677C76.8112 76.2514 76.338 76.724 75.7543 76.724Z" fill="#C7D2E5"/>
<path d="M72.0848 84.5939H58.2868C57.7036 84.5939 57.2305 84.1213 57.2305 83.5375C57.2305 82.9538 57.7036 82.4812 58.2868 82.4812H72.0848C72.668 82.4812 73.1411 82.9538 73.1411 83.5375C73.1411 84.1213 72.668 84.5939 72.0848 84.5939Z" fill="#C7D2E5"/>
<path d="M53.3471 45.2455H51.0095C50.4263 45.2455 49.9531 44.7724 49.9531 44.1892C49.9531 43.6054 50.4258 43.1328 51.0095 43.1328H53.3471C53.9303 43.1328 54.4034 43.6054 54.4034 44.1892C54.4034 44.7724 53.9308 45.2455 53.3471 45.2455Z" fill="#C7D2E5"/>
<path d="M53.3471 53.1154H51.0095C50.4263 53.1154 49.9531 52.6422 49.9531 52.0585C49.9531 51.4753 50.4258 51.0022 51.0095 51.0022H53.3471C53.9303 51.0022 54.4034 51.4753 54.4034 52.0585C54.4034 52.6422 53.9308 53.1154 53.3471 53.1154Z" fill="#C7D2E5"/>
<path d="M53.3471 60.9848H51.0095C50.4263 60.9848 49.9531 60.5121 49.9531 59.9284C49.9531 59.3447 50.4258 58.872 51.0095 58.872H53.3471C53.9303 58.872 54.4034 59.3447 54.4034 59.9284C54.4034 60.5121 53.9308 60.9848 53.3471 60.9848Z" fill="#C7D2E5"/>
<path d="M53.3471 68.8547H51.0095C50.4263 68.8547 49.9531 68.3815 49.9531 67.7983C49.9531 67.2146 50.4258 66.7419 51.0095 66.7419H53.3471C53.9303 66.7419 54.4034 67.2146 54.4034 67.7983C54.4034 68.3815 53.9308 68.8547 53.3471 68.8547Z" fill="#C7D2E5"/>
<path d="M53.3471 76.724H51.0095C50.4263 76.724 49.9531 76.2514 49.9531 75.6677C49.9531 75.0845 50.4258 74.6113 51.0095 74.6113H53.3471C53.9303 74.6113 54.4034 75.0845 54.4034 75.6677C54.4034 76.2514 53.9308 76.724 53.3471 76.724Z" fill="#C7D2E5"/>
<path d="M53.3471 84.5939H51.0095C50.4263 84.5939 49.9531 84.1213 49.9531 83.5375C49.9531 82.9538 50.4258 82.4812 51.0095 82.4812H53.3471C53.9303 82.4812 54.4034 82.9538 54.4034 83.5375C54.4034 84.1213 53.9308 84.5939 53.3471 84.5939Z" fill="#C7D2E5"/>
<path d="M71.7227 80.7636L87.3295 47.2931L91.2858 49.1378L75.679 82.6088L71.7227 80.7636Z" fill="#F4B537"/>
<path d="M75.6777 82.6088L91.2845 49.1378L95.2408 50.9829L79.634 84.4535L75.6777 82.6088Z" fill="#FECA57"/>
<path d="M71.7229 80.7642L70.6863 91.3514C70.6051 92.1786 71.6102 92.647 72.1918 92.0536L79.6355 84.454L71.7229 80.7642Z" fill="#F9E4C7"/>
<path d="M75.6295 82.5858L71.7229 80.7642L70.6863 91.3514C70.6051 92.1786 71.6102 92.647 72.1918 92.0536L74.9812 89.2055L75.6295 82.5858Z" fill="#F2D5B1"/>
<path d="M98.565 43.858L99.326 42.2265C100.368 39.9915 99.4403 37.3329 97.2645 36.3182C95.0882 35.3035 92.4553 36.3016 91.4134 38.5367L90.6523 40.1682L98.565 43.858Z" fill="#FF6B6B"/>
<path d="M95.2901 40.3482C95.077 40.2489 94.9846 39.9952 95.084 39.7816L95.6645 38.5367C96.0869 37.632 96.7695 36.9297 97.5775 36.4816C97.4755 36.4239 97.3719 36.3684 97.264 36.3182C95.0882 35.3035 92.4553 36.3016 91.4128 38.5367L90.6523 40.1682L98.565 43.858L99.3244 42.2292L95.2901 40.3482Z" fill="#EE5253"/>
<path d="M46.0684 37.3756H37.3376C36.7544 37.3756 36.2812 36.903 36.2812 36.3193C36.2812 35.7356 36.7539 35.2629 37.3376 35.2629H46.0684C46.6516 35.2629 47.1248 35.7356 47.1248 36.3193C47.1248 36.903 46.6516 37.3756 46.0684 37.3756Z" fill="#576574"/>
<path d="M46.0684 45.2455H37.3376C36.7544 45.2455 36.2812 44.7724 36.2812 44.1892C36.2812 43.6054 36.7539 43.1328 37.3376 43.1328H46.0684C46.6516 43.1328 47.1248 43.6054 47.1248 44.1892C47.1248 44.7724 46.6516 45.2455 46.0684 45.2455Z" fill="#576574"/>
<path d="M46.0684 53.1154H37.3376C36.7544 53.1154 36.2812 52.6422 36.2812 52.0585C36.2812 51.4753 36.7539 51.0022 37.3376 51.0022H46.0684C46.6516 51.0022 47.1248 51.4753 47.1248 52.0585C47.1248 52.6422 46.6516 53.1154 46.0684 53.1154Z" fill="#576574"/>
<path d="M46.0684 60.9848H37.3376C36.7544 60.9848 36.2812 60.5121 36.2812 59.9284C36.2812 59.3447 36.7539 58.872 37.3376 58.872H46.0684C46.6516 58.872 47.1248 59.3447 47.1248 59.9284C47.1248 60.5121 46.6516 60.9848 46.0684 60.9848Z" fill="#576574"/>
<path d="M46.0684 68.8547H37.3376C36.7544 68.8547 36.2812 68.3815 36.2812 67.7983C36.2812 67.2146 36.7539 66.7419 37.3376 66.7419H46.0684C46.6516 66.7419 47.1248 67.2146 47.1248 67.7983C47.1248 68.3815 46.6516 68.8547 46.0684 68.8547Z" fill="#576574"/>
<path d="M46.0684 76.724H37.3376C36.7544 76.724 36.2812 76.2514 36.2812 75.6677C36.2812 75.0845 36.7539 74.6113 37.3376 74.6113H46.0684C46.6516 74.6113 47.1248 75.0845 47.1248 75.6677C47.1248 76.2514 46.6516 76.724 46.0684 76.724Z" fill="#576574"/>
<path d="M46.0684 84.5939H37.3376C36.7544 84.5939 36.2812 84.1213 36.2812 83.5375C36.2812 82.9538 36.7539 82.4812 37.3376 82.4812H46.0684C46.6516 82.4812 47.1248 82.9538 47.1248 83.5375C47.1248 84.1213 46.6516 84.5939 46.0684 84.5939Z" fill="#576574"/>
<path d="M46.0684 92.4638H37.3376C36.7544 92.4638 36.2812 91.9906 36.2812 91.4074C36.2812 90.8237 36.7539 90.3505 37.3376 90.3505H46.0684C46.6516 90.3505 47.1248 90.8237 47.1248 91.4074C47.1248 91.9906 46.6516 92.4638 46.0684 92.4638Z" fill="#576574"/>
<path d="M71.2241 85.8607L70.6863 91.3513C70.6051 92.1786 71.6102 92.6475 72.1918 92.0536L76.0525 88.1123L71.2241 85.8607Z" fill="#576574"/>
<path d="M75.1302 87.6824L71.2241 85.8607L71.0313 87.8287L70.6863 91.3513C70.6051 92.1786 71.6102 92.647 72.1918 92.0531L74.9812 89.2055L75.1302 87.6824Z" fill="#3E4B5A"/>
<path d="M97.3804 47.5981L88.5139 43.4634C88.202 43.3181 87.8309 43.4532 87.6856 43.7651L86.4978 46.3115C86.3526 46.6234 86.4877 46.9946 86.7996 47.1404L95.666 51.2745C95.9779 51.4203 96.3491 51.2852 96.4949 50.9728L97.6821 48.4269C97.8279 48.1145 97.6928 47.7439 97.3804 47.5981Z" fill="#8AC2FF"/>
<path d="M99.095 43.9216L90.2291 39.7869C89.9167 39.6417 89.5455 39.7768 89.4002 40.0887L88.213 42.6351C88.0672 42.9469 88.2023 43.3181 88.5142 43.4634L97.3807 47.5981C97.6931 47.7439 98.0643 47.6087 98.2095 47.2963L99.3967 44.7505C99.5425 44.438 99.4074 44.0669 99.095 43.9216Z" fill="#54A0FF"/>
<path d="M90.3679 47.1398C90.0561 46.9946 89.9209 46.6234 90.0662 46.311L90.8796 44.5667L88.5142 43.4634C88.2018 43.3181 87.8306 43.4532 87.6854 43.7651L86.4982 46.311C86.3524 46.6234 86.4875 46.9946 86.7999 47.1398L95.6663 51.2745C95.9782 51.4198 96.3494 51.2847 96.4947 50.9728L96.8685 50.1711L90.3679 47.1398Z" fill="#54A0FF"/>
<path d="M92.0828 43.4634C91.7709 43.3181 91.6358 42.9469 91.7811 42.6351L92.5944 40.8903L90.2291 39.7869C89.9167 39.6417 89.5455 39.7768 89.4002 40.0887L88.213 42.6351C88.0672 42.9469 88.2023 43.3181 88.5147 43.4634L97.3812 47.5981C97.6931 47.7439 98.0643 47.6087 98.2095 47.2963L98.5834 46.4947L92.0828 43.4634Z" fill="#338DEF"/>
</g>
<defs>
<clipPath id="clip0_5396_5545">
<rect width="70" height="70" fill="white" transform="translate(33 29)"/>
</clipPath>
</defs>
</svg>
