<svg width="191" height="178" viewBox="0 0 191 178" fill="none" xmlns="http://www.w3.org/2000/svg">
<path fill-rule="evenodd" clip-rule="evenodd" d="M99.1508 0.0722636C125.246 1.42078 142.012 24.9951 158.411 45.4224C174.975 66.0555 194.533 87.6174 190.453 113.801C186.125 141.578 164.401 164.332 138.297 174.5C114.277 183.857 89.4829 172.612 65.8346 162.344C40.2598 151.238 9.18697 142.162 1.73663 115.202C-5.92549 87.4755 13.1604 60.8034 31.7145 38.8751C49.3632 18.0169 71.9293 -1.33445 99.1508 0.0722636Z" fill="#C8C8C8" fill-opacity="0.13"/>
<path d="M134.994 44.0976H70.4747C69.9871 44.0946 69.5037 44.1887 69.0528 44.3746C68.602 44.5605 68.1926 44.8343 67.8488 45.1801C67.505 45.526 67.2335 45.9369 67.0503 46.3888C66.867 46.8407 66.7757 47.3247 66.7816 47.8123V96.3627L66.7266 96.3702L81.03 129.607H81.0407H134.994C135.992 129.604 136.948 129.206 137.652 128.499C138.357 127.793 138.753 126.837 138.754 125.839V47.8123C138.753 47.3211 138.654 46.8351 138.464 46.3822C138.274 45.9293 137.996 45.5184 137.647 45.1732C137.297 44.828 136.883 44.5553 136.428 44.3707C135.973 44.1861 135.486 44.0933 134.994 44.0976Z" fill="#C79A83"/>
<path d="M128.171 54.4101H77.2979C76.7973 54.4046 76.3148 54.5966 75.9548 54.9445C75.5949 55.2924 75.3866 55.7681 75.375 56.2685V96.5732C77.4908 97.6258 79.4205 99.017 81.0877 100.692L87.576 116.345C87.5765 117.331 87.5163 118.315 87.3955 119.293L119.203 119.136L129.864 108.551L129.945 56.2685C129.945 55.233 129.206 54.4101 128.171 54.4101Z" fill="#C9FCFD"/>
<path d="M122.86 108.551C122.377 108.545 121.896 108.636 121.448 108.819C121.001 109.002 120.594 109.274 120.253 109.617C119.912 109.96 119.643 110.368 119.463 110.817C119.283 111.267 119.195 111.747 119.204 112.231V119.136C119.502 119 119.778 118.819 120.022 118.599L129.411 109.222C129.595 109.023 129.748 108.796 129.864 108.551H122.86Z" fill="#ABD6D6"/>
<path d="M109.535 49.6836V46.3127C109.535 44.5178 108.822 42.7964 107.553 41.5273C106.284 40.2581 104.562 39.5451 102.768 39.5451C100.973 39.5451 99.2513 40.2581 97.9822 41.5273C96.713 42.7964 96 44.5178 96 46.3127V49.6836H83.5391V58.707H121.781V49.6836H109.535Z" fill="#AFB9BF"/>
<path d="M139.679 79.4115L104.625 102.432L107.637 107.015L142.691 83.9963L139.679 79.4115Z" fill="#E87187"/>
<path d="M147.734 80.6834C146.935 79.4679 145.687 78.6194 144.262 78.3244C142.838 78.0295 141.355 78.3124 140.139 79.1107L139.68 79.4115L145.704 88.5789L146.164 88.2781C146.766 87.8828 147.284 87.3727 147.689 86.777C148.094 86.1813 148.377 85.5116 148.523 84.8062C148.669 84.1009 148.674 83.3737 148.539 82.6663C148.404 81.9589 148.13 81.2851 147.734 80.6834Z" fill="#5FA8ED"/>
<path d="M142.691 83.9963L107.637 107.015L110.649 111.599L145.703 88.5789L142.691 83.9963Z" fill="#AD5E73"/>
<path d="M104.627 102.412L99.6211 111.859L110.649 111.559H110.651L104.627 102.412Z" fill="#E1B7A3"/>
<path d="M81.8203 56.2685C81.8319 55.7681 82.0402 55.2924 82.4001 54.9445C82.7601 54.5966 83.2426 54.4046 83.7432 54.4101H77.2979C76.7973 54.4046 76.3148 54.5966 75.9548 54.9445C75.5949 55.2924 75.3866 55.7681 75.375 56.2685V96.5732C77.4908 97.6258 79.4205 99.017 81.0877 100.692C81.3379 100.942 81.5821 101.198 81.8203 101.46V56.2685Z" fill="#AFDDDD"/>
<path d="M65.4746 94.2143C69.8481 94.214 74.1235 95.5106 77.7601 97.9401C81.3967 100.37 84.2312 103.823 85.9051 107.864C87.579 111.904 88.0172 116.35 87.1642 120.64C86.3113 124.929 84.2055 128.87 81.1131 131.962C78.0207 135.055 74.0807 137.161 69.7913 138.015C65.5018 138.868 61.0557 138.431 57.015 136.757C52.9743 135.084 49.5206 132.25 47.0906 128.613C44.6606 124.977 43.3635 120.702 43.3633 116.328C43.3633 110.464 45.6928 104.839 49.8394 100.692C53.986 96.5451 59.6101 94.2149 65.4746 94.2143Z" fill="#EDB740"/>
<path d="M65.4768 100.533C68.6006 100.533 71.6543 101.459 74.2517 103.194C76.8492 104.929 78.8738 107.396 80.0694 110.282C81.265 113.168 81.578 116.343 80.9688 119.407C80.3596 122.471 78.8555 125.285 76.6468 127.494C74.4381 129.704 71.6239 131.208 68.5602 131.818C65.4964 132.427 62.3207 132.115 59.4346 130.919C56.5485 129.724 54.0817 127.7 52.346 125.103C50.6103 122.506 49.6838 119.452 49.6836 116.328C49.6835 112.139 51.3474 108.122 54.3091 105.16C57.2709 102.198 61.2879 100.533 65.4768 100.533Z" fill="#F3CE7D"/>
<path d="M68.6974 100.863C66.3998 100.386 64.0247 100.426 61.7449 100.982C59.465 101.538 57.3376 102.595 55.5174 104.076C53.6972 105.557 52.2299 107.425 51.2221 109.544C50.2143 111.663 49.6914 113.98 49.6914 116.327C49.6914 118.674 50.2143 120.991 51.2221 123.11C52.2299 125.229 53.6972 127.097 55.5174 128.578C57.3376 130.059 59.465 131.116 61.7449 131.672C64.0247 132.228 66.3998 132.268 68.6974 131.791C65.1445 131.05 61.9551 129.108 59.6658 126.292C57.3764 123.475 56.1266 119.956 56.1266 116.327C56.1266 112.698 57.3764 109.179 59.6658 106.363C61.9551 103.546 65.1445 101.604 68.6974 100.863Z" fill="#CEAE6F"/>
<path d="M120.453 71.8125H121.863C122.205 71.8125 122.533 71.6767 122.775 71.4349C123.016 71.1932 123.152 70.8653 123.152 70.5234C123.152 70.1816 123.016 69.8537 122.775 69.6119C122.533 69.3702 122.205 69.2344 121.863 69.2344H120.453C120.111 69.2344 119.783 69.3702 119.542 69.6119C119.3 69.8537 119.164 70.1816 119.164 70.5234C119.164 70.8653 119.3 71.1932 119.542 71.4349C119.783 71.6767 120.111 71.8125 120.453 71.8125Z" fill="#83A8A7"/>
<path d="M117.352 70.5234C117.352 70.1816 117.216 69.8537 116.974 69.6119C116.733 69.3702 116.405 69.2344 116.063 69.2344H95.3906C95.0487 69.2344 94.7209 69.3702 94.4791 69.6119C94.2374 69.8537 94.1016 70.1816 94.1016 70.5234C94.1016 70.8653 94.2374 71.1932 94.4791 71.4349C94.7209 71.6767 95.0487 71.8125 95.3906 71.8125H116.063C116.405 71.8125 116.733 71.6767 116.974 71.4349C117.216 71.1932 117.352 70.8653 117.352 70.5234Z" fill="#83A8A7"/>
<path d="M83.6016 71.8125H90.9097C91.2516 71.8125 91.5794 71.6767 91.8212 71.4349C92.0629 71.1932 92.1987 70.8653 92.1987 70.5234C92.1987 70.1816 92.0629 69.8537 91.8212 69.6119C91.5794 69.3702 91.2516 69.2344 90.9097 69.2344H83.6016C83.2597 69.2344 82.9318 69.3702 82.6901 69.6119C82.4483 69.8537 82.3125 70.1816 82.3125 70.5234C82.3125 70.8653 82.4483 71.1932 82.6901 71.4349C82.9318 71.6767 83.2597 71.8125 83.6016 71.8125Z" fill="#83A8A7"/>
<path d="M121.865 79.332H117.914C117.572 79.332 117.244 79.4678 117.003 79.7096C116.761 79.9513 116.625 80.2792 116.625 80.6211C116.625 80.963 116.761 81.2909 117.003 81.5326C117.244 81.7743 117.572 81.9102 117.914 81.9102H121.866C122.208 81.9102 122.535 81.7743 122.777 81.5326C123.019 81.2909 123.155 80.963 123.155 80.6211C123.155 80.2792 123.019 79.9513 122.777 79.7096C122.535 79.4678 122.208 79.332 121.866 79.332H121.865Z" fill="#83A8A7"/>
<path d="M113.635 79.332H108.25C107.908 79.332 107.58 79.4678 107.338 79.7096C107.097 79.9513 106.961 80.2792 106.961 80.6211C106.961 80.963 107.097 81.2909 107.338 81.5326C107.58 81.7743 107.908 81.9102 108.25 81.9102H113.635C113.977 81.9102 114.305 81.7743 114.547 81.5326C114.788 81.2909 114.924 80.963 114.924 80.6211C114.924 80.2792 114.788 79.9513 114.547 79.7096C114.305 79.4678 113.977 79.332 113.635 79.332Z" fill="#83A8A7"/>
<path d="M83.6016 81.9102H104.488C104.83 81.9102 105.158 81.7743 105.4 81.5326C105.642 81.2909 105.778 80.963 105.778 80.6211C105.778 80.2792 105.642 79.9513 105.4 79.7096C105.158 79.4678 104.83 79.332 104.488 79.332H83.6016C83.2597 79.332 82.9318 79.4678 82.6901 79.7096C82.4483 79.9513 82.3125 80.2792 82.3125 80.6211C82.3125 80.963 82.4483 81.2909 82.6901 81.5326C82.9318 81.7743 83.2597 81.9102 83.6016 81.9102Z" fill="#83A8A7"/>
<path d="M109.187 90.0742H83.6016C83.2597 90.0742 82.9318 90.21 82.6901 90.4518C82.4483 90.6935 82.3125 91.0214 82.3125 91.3633C82.3125 91.7052 82.4483 92.033 82.6901 92.2748C82.9318 92.5165 83.2597 92.6523 83.6016 92.6523H109.187C109.529 92.6523 109.857 92.5165 110.099 92.2748C110.34 92.033 110.476 91.7052 110.476 91.3633C110.476 91.0214 110.34 90.6935 110.099 90.4518C109.857 90.21 109.529 90.0742 109.187 90.0742Z" fill="#83A8A7"/>
<path d="M93.8943 99.957H87.4453C87.1034 99.957 86.7756 100.093 86.5338 100.335C86.2921 100.576 86.1562 100.904 86.1562 101.246C86.1562 101.588 86.2921 101.916 86.5338 102.158C86.7756 102.399 87.1034 102.535 87.4453 102.535H93.8943C94.2362 102.535 94.564 102.399 94.8058 102.158C95.0475 101.916 95.1833 101.588 95.1833 101.246C95.1833 100.904 95.0475 100.576 94.8058 100.335C94.564 100.093 94.2362 99.957 93.8943 99.957Z" fill="#83A8A7"/>
<path d="M79.8867 58.5283C79.5448 58.5283 79.217 58.6641 78.9752 58.9058C78.7335 59.1476 78.5977 59.4755 78.5977 59.8174V60.4587C78.5977 60.8005 78.7335 61.1284 78.9752 61.3702C79.217 61.6119 79.5448 61.7477 79.8867 61.7477C80.2286 61.7477 80.5565 61.6119 80.7982 61.3702C81.04 61.1284 81.1758 60.8005 81.1758 60.4587V59.8174C81.1758 59.4755 81.04 59.1476 80.7982 58.9058C80.5565 58.6641 80.2286 58.5283 79.8867 58.5283Z" fill="#F4F8FC"/>
<path d="M79.8867 63.3182C79.5448 63.3182 79.217 63.454 78.9752 63.6958C78.7335 63.9375 78.5977 64.2654 78.5977 64.6073V83.2274C78.5977 83.5693 78.7335 83.8971 78.9752 84.1389C79.217 84.3806 79.5448 84.5164 79.8867 84.5164C80.2286 84.5164 80.5565 84.3806 80.7982 84.1389C81.04 83.8971 81.1758 83.5693 81.1758 83.2274V64.6073C81.1758 64.2654 81.04 63.9375 80.7982 63.6958C80.5565 63.454 80.2286 63.3182 79.8867 63.3182Z" fill="#F4F8FC"/>
<path d="M65.474 110.416C66.0759 110.417 66.653 110.656 67.0787 111.082C67.5043 111.508 67.7438 112.085 67.7445 112.687C67.7445 113.03 67.8807 113.359 68.1232 113.601C68.3657 113.844 68.6946 113.98 69.0376 113.98C69.3806 113.98 69.7095 113.844 69.952 113.601C70.1945 113.359 70.3307 113.03 70.3307 112.687C70.3307 110.46 68.7132 108.58 66.7796 108.014V107.171C66.7796 106.83 66.6438 106.502 66.402 106.26C66.1603 106.018 65.8324 105.882 65.4905 105.882C65.1486 105.882 64.8208 106.018 64.579 106.26C64.3373 106.502 64.2015 106.83 64.2015 107.171V108.014C63.1687 108.279 62.2552 108.885 61.6081 109.732C60.9609 110.58 60.6177 111.62 60.6336 112.687C60.6341 113.972 61.1445 115.204 62.0528 116.113C62.9611 117.022 64.193 117.534 65.4781 117.536C65.7761 117.534 66.0716 117.591 66.3475 117.704C66.6234 117.817 66.8745 117.983 67.0862 118.193C67.298 118.403 67.4664 118.652 67.5817 118.927C67.6971 119.202 67.7572 119.497 67.7586 119.795C67.76 120.093 67.7027 120.388 67.59 120.664C67.4772 120.94 67.3112 121.191 67.1014 121.403C66.8916 121.615 66.6422 121.783 66.3674 121.898C66.0925 122.014 65.7976 122.074 65.4996 122.075C65.4912 122.075 65.4826 122.074 65.4742 122.074C65.4658 122.074 65.4572 122.074 65.4489 122.075C64.8514 122.068 64.2807 121.826 63.8603 121.401C63.44 120.977 63.2039 120.404 63.2031 119.806C63.2053 119.636 63.1737 119.467 63.1101 119.309C63.0465 119.151 62.9522 119.008 62.8327 118.887C62.7132 118.766 62.5708 118.669 62.4138 118.604C62.2568 118.538 62.0884 118.504 61.9182 118.504C61.7481 118.504 61.5796 118.538 61.4226 118.604C61.2657 118.669 61.1233 118.766 61.0037 118.887C60.8842 119.008 60.7899 119.151 60.7263 119.309C60.6628 119.467 60.6311 119.636 60.6333 119.806C60.6174 120.872 60.9607 121.913 61.6079 122.761C62.2551 123.608 63.1686 124.214 64.2015 124.479V125.483C64.2015 125.825 64.3373 126.153 64.579 126.395C64.8208 126.637 65.1486 126.772 65.4905 126.772C65.8324 126.772 66.1603 126.637 66.402 126.395C66.6438 126.153 66.7796 125.825 66.7796 125.483V124.479C68.7132 123.913 70.3307 122.033 70.3307 119.806C70.3284 118.52 69.8163 117.288 68.9066 116.379C67.9969 115.47 66.764 114.959 65.4781 114.957C64.8759 114.958 64.2982 114.719 63.872 114.294C63.4458 113.868 63.2061 113.291 63.2056 112.689C63.205 112.087 63.4437 111.509 63.8691 111.083C64.2945 110.657 64.8718 110.417 65.474 110.416Z" fill="#4E6CCA"/>
<path d="M65.4922 134.853C65.1503 134.853 64.8224 134.989 64.5807 135.231C64.3389 135.473 64.2031 135.8 64.2031 136.142V138.402C64.6328 138.426 65.0586 138.44 65.4922 138.44C65.9257 138.44 66.3516 138.426 66.7812 138.401V136.142C66.7812 135.8 66.6454 135.473 66.4037 135.231C66.1619 134.989 65.8341 134.853 65.4922 134.853Z" fill="#BA903A"/>
<path d="M64.2031 94.2525V96.5127C64.2031 96.8545 64.3389 97.1824 64.5807 97.4242C64.8224 97.6659 65.1503 97.8017 65.4922 97.8017C65.8341 97.8017 66.1619 97.6659 66.4037 97.4242C66.6454 97.1824 66.7812 96.8545 66.7812 96.5127V94.2527C66.3516 94.228 65.9242 94.2143 65.4922 94.2143C65.0601 94.2143 64.6328 94.228 64.2031 94.2525Z" fill="#BA903A"/>
<path d="M87.5492 114.996H85.2891C84.9472 114.996 84.6193 115.132 84.3776 115.374C84.1358 115.615 84 115.943 84 116.285C84 116.627 84.1358 116.955 84.3776 117.197C84.6193 117.438 84.9472 117.574 85.2891 117.574H87.5494C87.5739 117.145 87.5877 116.719 87.5877 116.285C87.5877 115.852 87.5739 115.426 87.5492 114.996Z" fill="#BA903A"/>
<path d="M45.6606 114.996H43.4017C43.377 115.426 43.3633 115.853 43.3633 116.285C43.3633 116.717 43.377 117.145 43.4015 117.574H45.6606C46.0025 117.574 46.3304 117.438 46.5721 117.197C46.8139 116.955 46.9497 116.627 46.9497 116.285C46.9497 115.943 46.8139 115.615 46.5721 115.374C46.3304 115.132 46.0025 114.996 45.6606 114.996Z" fill="#BA903A"/>
<path d="M80.1744 99.8066L78.5768 101.404C78.3351 101.646 78.1992 101.974 78.1992 102.316C78.1992 102.657 78.335 102.985 78.5767 103.227C78.8185 103.469 79.1463 103.605 79.4882 103.605C79.8301 103.605 80.158 103.469 80.3998 103.227L81.9974 101.63C81.4255 100.987 80.8168 100.379 80.1744 99.8066Z" fill="#BA903A"/>
<path d="M50.5546 129.427L48.957 131.025C49.5289 131.667 50.1376 132.276 50.78 132.848L52.3773 131.25C52.6137 131.007 52.7449 130.681 52.7426 130.342C52.7404 130.003 52.6048 129.679 52.3652 129.44C52.1256 129.2 51.8013 129.064 51.4624 129.062C51.1236 129.06 50.7975 129.191 50.5546 129.427Z" fill="#BA903A"/>
<path d="M50.7798 99.8066C50.1375 100.379 49.5289 100.987 48.957 101.63L50.5548 103.228C50.7973 103.466 51.1241 103.599 51.4642 103.598C51.8042 103.596 52.1299 103.46 52.3704 103.22C52.6108 102.98 52.7465 102.654 52.7478 102.314C52.7492 101.974 52.6161 101.647 52.3776 101.404L50.7798 99.8066Z" fill="#BA903A"/>
<path d="M78.5767 129.427C78.335 129.669 78.1992 129.997 78.1992 130.339C78.1992 130.68 78.335 131.008 78.5767 131.25L80.1741 132.847C80.8165 132.275 81.4252 131.667 81.9971 131.025L80.3997 129.427C80.158 129.185 79.8301 129.05 79.4882 129.05C79.1464 129.05 78.8185 129.185 78.5767 129.427Z" fill="#BA903A"/>
</svg>
