<svg width="40" height="50" viewBox="0 0 40 50" fill="none" xmlns="http://www.w3.org/2000/svg">
<path d="M38.5518 20.3125C38.5518 30.668 30.2463 39.0625 20.0005 39.0625C9.75479 39.0625 1.44922 30.668 1.44922 20.3125C1.44922 9.95703 9.75479 1.46484 20.0005 1.46484C30.2463 1.46484 38.5518 9.95703 38.5518 20.3125Z" fill="#F9F9F9"/>
<path d="M38.5513 20.3125C38.5513 30.668 30.2457 39.0625 20 39.0625V1.46484C30.2457 1.46484 38.5513 9.95703 38.5513 20.3125Z" fill="#E2DFF4"/>
<path d="M19.999 0C8.97879 0 -0.250287 9.17344 0.00517971 20.8457C0.00517971 20.8516 0.00614576 20.8565 0.00614576 20.8623C0.157841 26.5916 2.70236 31.7651 6.59959 35.3203C11.3939 39.696 15.4042 44.3276 18.8009 49.3594C19.3753 50.2125 20.6225 50.2128 21.1971 49.3594C24.5927 44.3292 28.6026 39.6974 33.3985 35.3203C37.291 31.7695 39.84 26.5994 39.9919 20.8623C39.9919 20.8565 39.9929 20.8516 39.9929 20.8457C40.2485 9.16631 31.0128 0 19.999 0ZM37.0952 20.7686C37.0952 20.7734 37.0943 20.7783 37.0943 20.7832C36.8455 30.0446 29.3252 37.5977 19.999 37.5977C10.6581 37.5977 3.15233 30.0326 2.90382 20.7832C2.90382 20.7783 2.90285 20.7734 2.90285 20.7686C2.65367 11.0207 10.3784 2.92969 19.999 2.92969C29.6065 2.92969 37.3447 11.0067 37.0952 20.7686Z" fill="#1E9BD0"/>
<path d="M40.0006 20.3125C40.0006 26.173 37.4892 31.5896 33.3995 35.3203C28.6051 39.696 24.5948 44.3275 21.1981 49.3594C20.9285 49.7598 20.4792 50 20 50V37.5977C29.5044 37.5977 37.102 29.7667 37.102 20.3125C37.102 10.7275 29.4302 2.92969 20 2.92969V0C31.0284 0 40.0006 9.11231 40.0006 20.3125Z" fill="#1473CC"/>
<path d="M14.5899 16.3086C13.7895 16.3086 13.1406 15.6527 13.1406 14.8438V9.375C13.1406 8.56602 13.7895 7.91016 14.5899 7.91016C15.3904 7.91016 16.0393 8.56602 16.0393 9.375V14.8438C16.0393 15.6527 15.3904 16.3086 14.5899 16.3086Z" fill="#1473CC"/>
<path d="M20.0008 9.375L10.0488 19.4336V30.4688C10.0488 31.2773 10.6981 31.9336 11.4981 31.9336H15.4596C15.4596 31.9336 16.9089 31.25 20.0008 31.25C23.0927 31.25 24.542 31.9336 24.542 31.9336H28.5035C29.3035 31.9336 29.9528 31.2773 29.9528 30.4688V19.4336L20.0008 9.375Z" fill="#FFC157"/>
<path d="M29.952 19.4336V30.4688C29.952 31.2773 29.3027 31.9336 28.5027 31.9336H24.5412C24.5412 31.9336 23.0919 31.25 20 31.25V9.375L29.952 19.4336Z" fill="#F7A71E"/>
<path d="M23.0921 22.7539H16.9083C16.1083 22.7539 15.459 23.4102 15.459 24.2188V31.9336H24.5414V24.2188C24.5414 23.4102 23.8921 22.7539 23.0921 22.7539Z" fill="#00C1FF"/>
<path d="M24.5412 24.2188V31.9336H20V22.7539H23.0919C23.8919 22.7539 24.5412 23.4102 24.5412 24.2188Z" fill="#002D3D"/>
<path d="M32.6184 22.1299C32.3353 22.416 31.9643 22.5586 31.5933 22.5586C31.2223 22.5586 30.8512 22.416 30.5681 22.1299L19.9987 11.4463L9.42931 22.1299C8.86311 22.7012 7.94521 22.7012 7.379 22.1299C6.81377 21.5576 6.81377 20.6299 7.379 20.0576L18.9736 8.33887C19.2567 8.05273 19.6277 7.91016 19.9987 7.91016C20.3697 7.91016 20.7408 8.05273 21.0239 8.33887L32.6184 20.0576C33.1837 20.6299 33.1837 21.5576 32.6184 22.1299Z" fill="#1E9BD0"/>
<path d="M32.6197 22.1299C32.3366 22.416 31.9656 22.5586 31.5946 22.5586C31.2235 22.5586 30.8525 22.416 30.5694 22.1299L20 11.4463V7.91016C20.371 7.91016 20.7421 8.05273 21.0252 8.33887L32.6197 20.0576C33.1849 20.6299 33.1849 21.5576 32.6197 22.1299Z" fill="#1473CC"/>
<path d="M22.9944 18.75C22.9944 19.5586 22.3451 20.2148 21.5451 20.2148H18.4532C17.6532 20.2148 17.0039 19.5586 17.0039 18.75C17.0039 17.9414 17.6532 17.2852 18.4532 17.2852H21.5451C22.3451 17.2852 22.9944 17.9414 22.9944 18.75Z" fill="#BCFBFF"/>
<path d="M21.5459 20.2148H20V17.2852H21.5459C22.346 17.2852 22.9953 17.9414 22.9953 18.75C22.9953 19.5586 22.346 20.2148 21.5459 20.2148Z" fill="#ACCEFF"/>
</svg>
