<svg width="22" height="22" viewBox="0 0 22 22" fill="none" xmlns="http://www.w3.org/2000/svg">
<path d="M10.5753 4.58301C9.60313 4.58442 8.6711 5.02813 7.98364 5.81683C7.29619 6.60552 6.90944 7.67482 6.9082 8.7902H8.77253C8.77253 7.6491 9.58165 6.7219 10.5753 6.7219C11.569 6.7219 12.3781 7.6491 12.3781 8.7902C12.3781 9.42973 11.9298 9.89387 11.2446 10.5291C11.0208 10.7303 10.8058 10.9441 10.6005 11.1697C9.67021 12.236 9.64317 13.3685 9.64317 13.4947V14.208H11.5075L11.5066 13.531C11.5075 13.5139 11.5373 13.1182 11.9177 12.683C12.0575 12.5226 12.2337 12.3621 12.4164 12.1932C13.1425 11.5184 14.2415 10.4992 14.2415 8.7902C14.2408 7.67483 13.8543 6.60537 13.167 5.81658C12.4796 5.0278 11.5475 4.58414 10.5753 4.58301ZM9.64317 15.2775H11.5075V17.4163H9.64317V15.2775Z" fill="#2D2D2D"/>
<path d="M11 0C4.9346 0 0 4.9346 0 11C0 17.0654 4.9346 22 11 22C17.0654 22 22 17.0654 22 11C22 4.9346 17.0654 0 11 0ZM11 19.8C6.1479 19.8 2.2 15.8521 2.2 11C2.2 6.1479 6.1479 2.2 11 2.2C15.8521 2.2 19.8 6.1479 19.8 11C19.8 15.8521 15.8521 19.8 11 19.8Z" fill="#2D2D2D"/>
</svg>
