<svg width="22" height="22" viewBox="0 0 22 22" fill="none" xmlns="http://www.w3.org/2000/svg">
<path d="M1.37524 14.3552L0.375235 14.3552L1.37524 14.3552ZM1.375 6.10534L2.375 6.10531L1.375 6.10534ZM10.7249 17.5553C11.2772 17.5553 11.7249 17.1076 11.7249 16.5553C11.7249 16.003 11.2772 15.5553 10.725 15.5553L10.7249 17.5553ZM3.5752 16.5551L3.57522 15.5551H3.57521L3.5752 16.5551ZM18.9745 6.10421L17.9745 6.10422V6.10423L18.9745 6.10421ZM1.92458 6.75514C1.37229 6.75514 0.924576 7.20285 0.924576 7.75514C0.924576 8.30742 1.37229 8.75514 1.92458 8.75514V6.75514ZM18.4246 8.75514C18.9769 8.75514 19.4246 8.30742 19.4246 7.75514C19.4246 7.20285 18.9769 6.75514 18.4246 6.75514V8.75514ZM14.0237 15.4551L13.3166 14.748C13.1291 14.9356 13.0237 15.1899 13.0237 15.4551H14.0237ZM17.9837 11.4951L18.6908 10.788C18.3003 10.3975 17.6671 10.3975 17.2766 10.788L17.9837 11.4951ZM20.6237 14.1351L21.3308 14.8422C21.5183 14.6547 21.6237 14.4004 21.6237 14.1351C21.6237 13.8699 21.5183 13.6156 21.3308 13.428L20.6237 14.1351ZM16.6637 18.0951V19.0951C16.9289 19.0951 17.1833 18.9898 17.3708 18.8022L16.6637 18.0951ZM14.0237 18.0951H13.0237C13.0237 18.6474 13.4714 19.0951 14.0237 19.0951V18.0951ZM3.575 4.90527H16.7743V2.90527H3.575V4.90527ZM2.37524 14.3552L2.375 6.10531L0.375 6.10536L0.375235 14.3552L2.37524 14.3552ZM10.725 15.5553L3.57522 15.5551L3.57518 17.5551L10.7249 17.5553L10.725 15.5553ZM17.9745 6.10423L17.9746 8.30529L19.9746 8.30525L19.9745 6.10419L17.9745 6.10423ZM3.575 2.90527C1.80765 2.90527 0.37495 4.33802 0.375 6.10536L2.375 6.10531C2.37498 5.44255 2.91224 4.90527 3.575 4.90527V2.90527ZM16.7743 4.90527C17.4379 4.90527 17.9745 5.44212 17.9745 6.10422L19.9745 6.1042C19.9745 4.33608 18.541 2.90527 16.7743 2.90527V4.90527ZM0.375235 14.3552C0.375286 16.1225 1.80793 17.5551 3.57518 17.5551L3.57521 15.5551C2.91249 15.5551 2.37525 15.0179 2.37524 14.3552L0.375235 14.3552ZM1.92458 8.75514H18.4246V6.75514H1.92458V8.75514ZM14.7308 16.1622L18.6908 12.2022L17.2766 10.788L13.3166 14.748L14.7308 16.1622ZM17.2766 12.2022L19.9166 14.8422L21.3308 13.428L18.6908 10.788L17.2766 12.2022ZM19.9166 13.428L15.9566 17.388L17.3708 18.8022L21.3308 14.8422L19.9166 13.428ZM16.6637 17.0951H14.0237V19.0951H16.6637V17.0951ZM15.0237 18.0951V15.4551H13.0237V18.0951H15.0237Z" fill="black"/>
</svg>
