<svg width="22" height="22" viewBox="0 0 22 22" fill="none" xmlns="http://www.w3.org/2000/svg">
<path fill-rule="evenodd" clip-rule="evenodd" d="M9.02891 11.743H7.75474C7.50842 11.7431 7.27244 11.644 7.09999 11.4681C6.92755 11.2922 6.83315 11.0543 6.83807 10.808V9.53385C6.83807 9.02759 7.24848 8.61719 7.75474 8.61719H9.02891C9.53517 8.61719 9.94557 9.02759 9.94557 9.53385V10.8264C9.94557 11.3326 9.53517 11.743 9.02891 11.743ZM8.58891 9.97385H8.19474V10.368H8.58891V9.97385Z" fill="#0B1C3F"/>
<path d="M7.45312 14.0615H11.514C11.8937 14.0615 12.2015 13.7537 12.2015 13.374C12.2015 12.9943 11.8937 12.6865 11.514 12.6865H7.45312C7.07343 12.6865 6.76562 12.9943 6.76562 13.374C6.76562 13.7537 7.07343 14.0615 7.45312 14.0615Z" fill="#0B1C3F"/>
<path d="M12.834 15.0059H7.45312C7.07343 15.0059 6.76562 15.3137 6.76562 15.6934C6.76562 16.0731 7.07343 16.3809 7.45312 16.3809H12.834C13.2137 16.3809 13.5215 16.0731 13.5215 15.6934C13.5215 15.3137 13.2137 15.0059 12.834 15.0059Z" fill="#0B1C3F"/>
<path fill-rule="evenodd" clip-rule="evenodd" d="M17.9032 8.65348L11.4865 2.23681C11.3514 2.12106 11.1785 2.05907 11.0007 2.06265H8.25065C5.84591 2.06265 3.89648 4.01207 3.89648 6.41681V15.5835C3.89648 17.9882 5.84591 19.9376 8.25065 19.9376H13.7507C16.1554 19.9376 18.1048 17.9882 18.1048 15.5835V9.16681C18.1079 8.9758 18.0355 8.79129 17.9032 8.65348ZM11.6882 4.39098L15.7765 8.47931H12.834C12.2012 8.47931 11.6882 7.96631 11.6882 7.33348V4.39098ZM8.25065 18.5626H13.7507C15.3939 18.5576 16.7248 17.2267 16.7298 15.5835V9.85431H12.834C11.4418 9.85431 10.3132 8.7257 10.3132 7.33348V3.43765H8.25065C6.60739 3.44268 5.27652 4.77355 5.27148 6.41681V15.5835C5.27652 17.2267 6.60739 18.5576 8.25065 18.5626Z" fill="#0B1C3F"/>
</svg>
