<svg width="146" height="138" viewBox="0 0 146 138" fill="none" xmlns="http://www.w3.org/2000/svg">
<path fill-rule="evenodd" clip-rule="evenodd" d="M75.7907 0.0560246C95.738 1.10151 108.554 19.3782 121.089 35.2151C133.751 51.2115 148.701 67.9281 145.582 88.2279C142.273 109.763 125.668 127.403 105.714 135.286C87.3527 142.541 68.4005 133.823 50.3238 125.862C30.7745 117.252 7.0225 110.216 1.32748 89.3139C-4.52944 67.8181 10.0598 47.1397 24.2425 30.1392C37.7331 13.9681 54.9826 -1.03457 75.7907 0.0560246Z" fill="#F7B239" fill-opacity="0.1"/>
<path d="M104.888 86.0833V82.6667L108.305 69C108.305 69 107.423 65.4808 104.888 64.6301V47.3611V42.8056V41.6667L104.655 41.4332C104.208 40.0278 103.11 38.9299 101.705 38.4835L101.471 38.25H100.332H41.1102H39.9714L39.7379 38.4835C38.3325 38.9299 37.2346 40.0278 36.7882 41.4332L36.5547 41.6667V42.8056V47.3611V86.0833C36.5547 88.5991 38.5944 90.6389 41.1102 90.6389H100.332C102.848 90.6389 104.888 88.5991 104.888 86.0833Z" fill="url(#paint0_linear_5396_5857)"/>
<path d="M103.749 99.75C105.636 99.75 107.165 98.2203 107.165 96.3333C107.165 94.4464 105.636 92.9167 103.749 92.9167C101.862 92.9167 100.332 94.4464 100.332 96.3333C100.332 98.2203 101.862 99.75 103.749 99.75Z" fill="url(#paint1_linear_5396_5857)"/>
<path d="M96.9238 89.5H41.1183C39.2346 89.5 37.7016 87.9671 37.7016 86.0833V48.5H79.8405C80.4692 48.5 80.9794 47.9898 80.9794 47.3611C80.9794 46.7324 80.4692 46.2222 79.8405 46.2222H37.7016V42.8056C37.7016 40.9218 39.2346 39.3889 41.1183 39.3889H100.34C102.224 39.3889 103.757 40.9218 103.757 42.8056V46.2222H100.34C99.7118 46.2222 99.2016 46.7324 99.2016 47.3611C99.2016 47.9898 99.7118 48.5 100.34 48.5H103.757V59.8889C103.757 60.5176 104.267 61.0278 104.896 61.0278C105.525 61.0278 106.035 60.5176 106.035 59.8889V42.8056C106.035 39.6656 103.48 37.1111 100.34 37.1111H41.1183C37.9784 37.1111 35.4238 39.6656 35.4238 42.8056V86.0833C35.4238 89.2233 37.9784 91.7778 41.1183 91.7778H96.9238C97.5525 91.7778 98.0627 91.2676 98.0627 90.6389C98.0627 90.0102 97.5536 89.5 96.9238 89.5Z" fill="url(#paint2_linear_5396_5857)"/>
<path d="M42.258 43.9444C42.887 43.9444 43.3969 43.4346 43.3969 42.8056C43.3969 42.1766 42.887 41.6667 42.258 41.6667C41.629 41.6667 41.1191 42.1766 41.1191 42.8056C41.1191 43.4346 41.629 43.9444 42.258 43.9444Z" fill="url(#paint3_linear_5396_5857)"/>
<path d="M47.9514 43.9444C48.5804 43.9444 49.0903 43.4346 49.0903 42.8056C49.0903 42.1766 48.5804 41.6667 47.9514 41.6667C47.3224 41.6667 46.8125 42.1766 46.8125 42.8056C46.8125 43.4346 47.3224 43.9444 47.9514 43.9444Z" fill="url(#paint4_linear_5396_5857)"/>
<path d="M53.6467 43.9444C54.2757 43.9444 54.7856 43.4346 54.7856 42.8056C54.7856 42.1766 54.2757 41.6667 53.6467 41.6667C53.0177 41.6667 52.5078 42.1766 52.5078 42.8056C52.5078 43.4346 53.0177 43.9444 53.6467 43.9444Z" fill="url(#paint5_linear_5396_5857)"/>
<path d="M96.9245 47.3611C96.9245 46.7325 96.4143 46.2222 95.7856 46.2222H84.3967C83.768 46.2222 83.2578 46.7325 83.2578 47.3611C83.2578 47.9898 83.768 48.5 84.3967 48.5H95.7856C96.4154 48.5 96.9245 47.9898 96.9245 47.3611Z" fill="url(#paint6_linear_5396_5857)"/>
<path d="M54.5488 64.1108C54.772 64.3328 55.0625 64.4445 55.354 64.4445C55.6456 64.4445 55.9371 64.3328 56.1592 64.1108L58.7707 61.4993L61.3822 64.1108C61.6054 64.3328 61.8958 64.4445 62.1874 64.4445C62.4789 64.4445 62.7705 64.3328 62.9925 64.1108C63.4379 63.6655 63.4379 62.9457 62.9925 62.5004L60.3811 59.8889L62.9925 57.2774C63.4379 56.8321 63.4379 56.1123 62.9925 55.667C62.5472 55.2217 61.8275 55.2217 61.3822 55.667L58.7707 58.2785L56.1592 55.667C55.7139 55.2217 54.9941 55.2217 54.5488 55.667C54.1035 56.1123 54.1035 56.8321 54.5488 57.2774L57.1603 59.8889L54.5488 62.5004C54.1047 62.9457 54.1047 63.6655 54.5488 64.1108Z" fill="url(#paint7_linear_5396_5857)"/>
<path d="M78.4668 64.1108C78.69 64.3328 78.9804 64.4445 79.272 64.4445C79.5635 64.4445 79.8551 64.3328 80.0772 64.1108L82.6887 61.4993L85.3001 64.1108C85.5233 64.3328 85.8138 64.4445 86.1053 64.4445C86.3969 64.4445 86.6884 64.3328 86.9105 64.1108C87.3558 63.6655 87.3558 62.9457 86.9105 62.5004L84.299 59.8889L86.9105 57.2774C87.3558 56.8321 87.3558 56.1123 86.9105 55.667C86.4652 55.2217 85.7454 55.2217 85.3001 55.667L82.6887 58.2785L80.0772 55.667C79.6319 55.2217 78.9121 55.2217 78.4668 55.667C78.0215 56.1123 78.0215 56.8321 78.4668 57.2774L81.0783 59.8889L78.4668 62.5004C78.0226 62.9457 78.0226 63.6655 78.4668 64.1108Z" fill="url(#paint8_linear_5396_5857)"/>
<path d="M49.281 81.021C49.6295 81.5426 50.3356 81.685 50.8606 81.3365C62.9306 73.2902 78.5276 73.2902 90.5976 81.3365C90.7912 81.4663 91.011 81.5278 91.2274 81.5278C91.5953 81.5278 91.9563 81.3501 92.1761 81.021C92.5246 80.4982 92.3834 79.7898 91.8606 79.4413C79.0242 70.8826 62.434 70.8826 49.5976 79.4413C49.0737 79.7898 48.9325 80.4971 49.281 81.021Z" fill="url(#paint9_linear_5396_5857)"/>
<path d="M108.2 65.4433C107.115 64.0857 105.496 63.3056 103.757 63.3056C102.018 63.3056 100.399 64.0846 99.3139 65.4433C98.2297 66.8019 97.8277 68.5536 98.2138 70.2494L102.646 89.7528C102.765 90.271 103.226 90.6389 103.757 90.6389C104.287 90.6389 104.75 90.271 104.867 89.7528L109.3 70.2494C109.685 68.5536 109.284 66.8031 108.2 65.4433ZM107.079 69.7448L103.757 84.3613L100.435 69.7448C100.203 68.7289 100.444 67.6789 101.094 66.8646C101.744 66.0503 102.715 65.5833 103.757 65.5833C104.799 65.5833 105.769 66.0503 106.419 66.8646C107.07 67.6789 107.309 68.7289 107.079 69.7448Z" fill="url(#paint10_linear_5396_5857)"/>
<path d="M103.757 91.7778C101.244 91.7778 99.2012 93.821 99.2012 96.3333C99.2012 98.8457 101.244 100.889 103.757 100.889C106.269 100.889 108.312 98.8457 108.312 96.3333C108.312 93.821 106.269 91.7778 103.757 91.7778ZM103.757 98.6111C102.501 98.6111 101.479 97.5895 101.479 96.3333C101.479 95.0771 102.501 94.0556 103.757 94.0556C105.013 94.0556 106.035 95.0771 106.035 96.3333C106.035 97.5895 105.013 98.6111 103.757 98.6111Z" fill="url(#paint11_linear_5396_5857)"/>
<defs>
<linearGradient id="paint0_linear_5396_5857" x1="36.5547" y1="64.4444" x2="108.305" y2="64.4444" gradientUnits="userSpaceOnUse">
<stop stop-color="#AFAEFF"/>
<stop offset="1" stop-color="#EAC2FF"/>
</linearGradient>
<linearGradient id="paint1_linear_5396_5857" x1="100.332" y1="96.3333" x2="107.165" y2="96.3333" gradientUnits="userSpaceOnUse">
<stop stop-color="#AFAEFF"/>
<stop offset="1" stop-color="#EAC2FF"/>
</linearGradient>
<linearGradient id="paint2_linear_5396_5857" x1="69.5153" y1="34.6864" x2="72.2213" y2="100.99" gradientUnits="userSpaceOnUse">
<stop stop-color="#194FA3"/>
<stop offset="1" stop-color="#AE44AF"/>
</linearGradient>
<linearGradient id="paint3_linear_5396_5857" x1="41.9733" y1="35.8105" x2="44.6793" y2="102.114" gradientUnits="userSpaceOnUse">
<stop stop-color="#194FA3"/>
<stop offset="1" stop-color="#AE44AF"/>
</linearGradient>
<linearGradient id="paint4_linear_5396_5857" x1="47.6564" y1="35.5782" x2="50.3624" y2="101.882" gradientUnits="userSpaceOnUse">
<stop stop-color="#194FA3"/>
<stop offset="1" stop-color="#AE44AF"/>
</linearGradient>
<linearGradient id="paint5_linear_5396_5857" x1="53.3426" y1="35.347" x2="56.0486" y2="101.65" gradientUnits="userSpaceOnUse">
<stop stop-color="#194FA3"/>
<stop offset="1" stop-color="#AE44AF"/>
</linearGradient>
<linearGradient id="paint6_linear_5396_5857" x1="89.5411" y1="33.8687" x2="92.2471" y2="100.173" gradientUnits="userSpaceOnUse">
<stop stop-color="#194FA3"/>
<stop offset="1" stop-color="#AE44AF"/>
</linearGradient>
<linearGradient id="paint7_linear_5396_5857" x1="57.7616" y1="35.1659" x2="60.4688" y2="101.47" gradientUnits="userSpaceOnUse">
<stop stop-color="#194FA3"/>
<stop offset="1" stop-color="#AE44AF"/>
</linearGradient>
<linearGradient id="paint8_linear_5396_5857" x1="81.6397" y1="34.191" x2="84.3469" y2="100.495" gradientUnits="userSpaceOnUse">
<stop stop-color="#194FA3"/>
<stop offset="1" stop-color="#AE44AF"/>
</linearGradient>
<linearGradient id="paint9_linear_5396_5857" x1="68.8642" y1="34.7126" x2="71.5713" y2="101.016" gradientUnits="userSpaceOnUse">
<stop stop-color="#194FA3"/>
<stop offset="1" stop-color="#AE44AF"/>
</linearGradient>
<linearGradient id="paint10_linear_5396_5857" x1="102.302" y1="33.3482" x2="105.008" y2="99.6521" gradientUnits="userSpaceOnUse">
<stop stop-color="#194FA3"/>
<stop offset="1" stop-color="#AE44AF"/>
</linearGradient>
<linearGradient id="paint11_linear_5396_5857" x1="101.189" y1="33.3938" x2="103.895" y2="99.6976" gradientUnits="userSpaceOnUse">
<stop stop-color="#194FA3"/>
<stop offset="1" stop-color="#AE44AF"/>
</linearGradient>
</defs>
</svg>
