<svg width="16" height="16" viewBox="0 0 16 16" fill="none" xmlns="http://www.w3.org/2000/svg">
<path d="M13.7813 6.61386H13.7417V5.64356C13.7417 2.52671 11.215 0 8.09811 0C4.98123 0 2.45455 2.52671 2.45455 5.64356V6.61386H2.21694C1.34565 6.61386 0.67239 7.38612 0.67239 8.27724V10.7525C0.650444 11.6162 1.33284 12.3341 2.19651 12.356C2.20334 12.3562 2.21012 12.3563 2.21694 12.3564H3.68228C3.88983 12.3467 4.0502 12.1705 4.04042 11.9629C4.04008 11.9555 4.03951 11.948 4.03871 11.9406V7.08908C4.03871 6.85147 3.9001 6.61382 3.68228 6.61382H3.24663V5.64353C3.24663 2.96414 5.41873 0.792042 8.09811 0.792042C10.7775 0.792042 12.9496 2.96414 12.9496 5.64353V6.61382H12.5139C12.2961 6.61382 12.1575 6.85143 12.1575 7.08908V11.9406C12.1354 12.1472 12.285 12.3326 12.4916 12.3547C12.499 12.3555 12.5065 12.356 12.5139 12.3564H12.9694L12.9298 12.4158C12.3356 13.2055 11.4032 13.668 10.4149 13.6633C10.1986 12.6024 9.16317 11.9178 8.10232 12.1342C7.19513 12.3192 6.54105 13.1137 6.53374 14.0395C6.54458 15.1254 7.428 16 8.51394 15.9999C9.05151 15.9912 9.56391 15.7706 9.93967 15.3861C10.1932 15.1264 10.3593 14.7941 10.4149 14.4355C11.6525 14.4402 12.8196 13.8603 13.5634 12.8712L13.9397 12.3167C14.7912 12.2573 15.3258 11.7227 15.3258 10.9504V8.47516C15.3258 7.62376 14.6922 6.61386 13.7813 6.61386ZM3.24663 11.5643H2.21694C1.79054 11.554 1.45329 11.1999 1.46367 10.7735C1.46386 10.7665 1.46413 10.7595 1.46447 10.7524V8.2772C1.46447 7.82176 1.78129 7.4059 2.21694 7.4059H3.24663V11.5643ZM9.36545 14.8317C9.146 15.0696 8.83766 15.2059 8.51398 15.2079C7.86972 15.1977 7.34689 14.6836 7.32586 14.0396C7.32559 13.3943 7.84845 12.8711 8.4937 12.8708C9.13895 12.8705 9.66222 13.3934 9.66249 14.0386C9.66249 14.0389 9.66249 14.0393 9.66249 14.0396C9.67898 14.3336 9.57118 14.621 9.36545 14.8317ZM14.5338 10.9505C14.5338 11.4851 14.0189 11.5643 13.7813 11.5643H12.9496V7.40594H13.7813C14.2169 7.40594 14.5338 8.0198 14.5338 8.47524V10.9505Z" fill="#363636"/>
</svg>
