<svg width="16" height="16" viewBox="0 0 16 16" fill="none" xmlns="http://www.w3.org/2000/svg">
<path d="M13.6686 0.413808C13.4008 0.290471 13.0853 0.338427 12.8663 0.535721L11.8265 1.45644L10.4118 0.190962C10.1275 -0.0636541 9.69725 -0.0636541 9.41304 0.190962L7.9995 1.45524L6.58562 0.190962C6.30133 -0.0636541 5.871 -0.0636541 5.58671 0.190962L4.17163 1.45644L3.13084 0.535759C2.82373 0.262784 2.35346 0.290471 2.08049 0.597577C1.95827 0.735076 1.89132 0.913 1.8926 1.09696V14.903C1.89016 15.3145 2.22177 15.6501 2.63325 15.6525C2.81725 15.6536 2.99517 15.5865 3.13271 15.4643L4.17253 14.5436L5.58723 15.809C5.87145 16.0637 6.30174 16.0637 6.58595 15.809L7.9995 14.5446L9.41326 15.8089C9.69755 16.0635 10.1279 16.0635 10.4122 15.8089L11.8272 14.5434L12.868 15.4641C13.1751 15.7372 13.6454 15.7096 13.9184 15.4025C14.0407 15.265 14.1077 15.087 14.1064 14.9029V1.09696C14.1101 0.802214 13.9379 0.533586 13.6686 0.413808ZM12.3221 13.9822C12.0379 13.7304 11.61 13.7315 11.3271 13.9849L9.91245 15.2503L8.49887 13.986C8.21462 13.7314 7.78429 13.7314 7.50004 13.986L6.08631 15.2503L4.67105 13.9849C4.38923 13.7316 3.96212 13.7304 3.67892 13.9822L2.64191 14.9026V12.9055L2.63816 1.09714L3.67686 2.01764C3.96111 2.26944 4.38897 2.26832 4.67187 2.01498L6.08654 0.749538L7.50012 2.01382C7.78437 2.26843 8.2147 2.26843 8.49895 2.01382L9.91268 0.749538L11.3279 2.01498C11.6098 2.26828 12.0369 2.26944 12.3201 2.01767L13.3571 1.09696V10.5875L13.3608 14.9027L12.3221 13.9822Z" fill="#934600"/>
<path d="M11.5518 7.62524H4.44888C4.24195 7.62524 4.07422 7.79298 4.07422 7.9999C4.07422 8.20682 4.24195 8.37456 4.44888 8.37456H11.5518C11.7588 8.37456 11.9265 8.20682 11.9265 7.9999C11.9265 7.79298 11.7587 7.62524 11.5518 7.62524Z" fill="#934600"/>
<path d="M8.17993 5.37744H4.44888C4.24195 5.37744 4.07422 5.54518 4.07422 5.7521C4.07422 5.95902 4.24195 6.12675 4.44888 6.12675H8.17993C8.38685 6.12675 8.55458 5.95902 8.55458 5.7521C8.55458 5.54518 8.38681 5.37744 8.17993 5.37744Z" fill="#934600"/>
<path d="M11.5518 9.87329H4.44888C4.24195 9.87329 4.07422 10.041 4.07422 10.2479C4.07422 10.4549 4.24195 10.6226 4.44888 10.6226H11.5518C11.7588 10.6226 11.9265 10.4549 11.9265 10.2479C11.9265 10.041 11.7587 9.87329 11.5518 9.87329Z" fill="#934600"/>
</svg>
