<svg width="16" height="16" viewBox="0 0 16 16" fill="none" xmlns="http://www.w3.org/2000/svg">
<path d="M13.7406 4.86012H9.55211V1.87237C9.55211 1.38512 9.36261 0.929117 9.01986 0.589867C8.67661 0.246617 8.22111 0.0576172 7.73711 0.0576172H1.97711C0.976359 0.0576172 0.162109 0.871867 0.162109 1.87262V5.71262C0.162109 6.71337 0.976359 7.52762 1.97711 7.52762H2.08211V8.59262C2.08211 8.94312 2.29136 9.25437 2.61486 9.38537C2.71911 9.42737 2.82736 9.44787 2.93461 9.44787C3.15861 9.44787 3.37686 9.35912 3.53661 9.19337L4.75611 7.98062V11.5489C4.75611 12.7051 5.69686 13.6459 6.85311 13.6459H9.90086L11.9216 15.6556C12.1034 15.8431 12.3471 15.9429 12.5964 15.9429C12.7154 15.9429 12.8354 15.9201 12.9504 15.8736C13.3096 15.7284 13.5414 15.3824 13.5414 14.9929V13.6459H13.7404C14.8966 13.6459 15.8374 12.7051 15.8374 11.5489V6.95712C15.8376 5.80087 14.8969 4.86012 13.7406 4.86012ZM4.75786 6.92137L3.00261 8.66662C2.97211 8.69837 2.93636 8.70662 2.89611 8.68987C2.86686 8.67812 2.83211 8.65162 2.83211 8.59237V7.15237C2.83211 6.94512 2.66436 6.77737 2.45711 6.77737H1.97711C1.38986 6.77737 0.912109 6.29962 0.912109 5.71237V1.87237C0.912109 1.28512 1.38986 0.807367 1.97711 0.807367H7.73711C8.02061 0.807367 8.28786 0.918367 8.49086 1.12137C8.69161 1.32012 8.80211 1.58687 8.80211 1.87237V4.86012H6.85311C6.29411 4.86012 5.76786 5.07862 5.37111 5.47512C4.98311 5.86312 4.76711 6.37562 4.75786 6.92137ZM15.0876 11.5486C15.0876 12.2914 14.4834 12.8956 13.7406 12.8956H13.1666C12.9596 12.8956 12.7916 13.0636 12.7916 13.2706V14.9926C12.7916 15.1154 12.7059 15.1636 12.6691 15.1784C12.6334 15.1926 12.5414 15.2171 12.4556 15.1286L10.3204 13.0049C10.2501 12.9351 10.1551 12.8956 10.0559 12.8956H6.85311C6.11036 12.8956 5.50611 12.2914 5.50611 11.5486V6.95712C5.50611 6.59812 5.64661 6.26037 5.90136 6.00562C6.15636 5.75062 6.49436 5.61012 6.85311 5.61012H13.7406C14.4834 5.61012 15.0876 6.21437 15.0876 6.95712V11.5486Z" fill="#1473CC"/>
</svg>
