<svg width="16" height="16" viewBox="0 0 16 16" fill="none" xmlns="http://www.w3.org/2000/svg">
<path fill-rule="evenodd" clip-rule="evenodd" d="M12.834 2.16699V4.83366C12.834 5.10966 13.058 5.33366 13.334 5.33366C13.61 5.33366 13.834 5.10966 13.834 4.83366V2.16699C13.834 1.89099 13.61 1.66699 13.334 1.66699C13.058 1.66699 12.834 1.89099 12.834 2.16699Z" fill="#B9B100"/>
<path fill-rule="evenodd" clip-rule="evenodd" d="M12 4H14.6667C14.9427 4 15.1667 3.776 15.1667 3.5C15.1667 3.224 14.9427 3 14.6667 3H12C11.724 3 11.5 3.224 11.5 3.5C11.5 3.776 11.724 4 12 4Z" fill="#B9B100"/>
<path fill-rule="evenodd" clip-rule="evenodd" d="M9.33398 2.00024H6.07932C5.63732 2.00024 5.23332 2.25024 5.03598 2.64491L4.40465 3.90824C4.37598 3.96424 4.31865 4.00024 4.25532 4.00024H2.66732C1.65465 4.00024 0.833984 4.82091 0.833984 5.83358V12.5002C0.833984 12.9862 1.02732 13.4529 1.37065 13.7969C1.71465 14.1402 2.18132 14.3336 2.66732 14.3336H13.334C13.82 14.3336 14.2866 14.1402 14.6306 13.7969C14.974 13.4529 15.1673 12.9862 15.1673 12.5002C15.1673 10.4689 15.1673 6.83358 15.1673 6.83358C15.1673 6.55758 14.9433 6.33358 14.6673 6.33358C14.3913 6.33358 14.1673 6.55758 14.1673 6.83358V12.5002C14.1673 12.7216 14.0793 12.9329 13.9233 13.0896C13.7667 13.2456 13.5553 13.3336 13.334 13.3336H2.66732C2.44598 13.3336 2.23465 13.2456 2.07798 13.0896C1.92198 12.9329 1.83398 12.7216 1.83398 12.5002V5.83358C1.83398 5.37358 2.20732 5.00024 2.66732 5.00024H4.25532C4.69732 5.00024 5.10132 4.75024 5.29865 4.35558L5.92998 3.09224C5.95865 3.03624 6.01598 3.00024 6.07932 3.00024H9.33398C9.60998 3.00024 9.83398 2.77624 9.83398 2.50024C9.83398 2.22424 9.60998 2.00024 9.33398 2.00024Z" fill="#B9B100"/>
<path fill-rule="evenodd" clip-rule="evenodd" d="M8.00065 5.66699C6.25265 5.66699 4.83398 7.08566 4.83398 8.83366C4.83398 10.5817 6.25265 12.0003 8.00065 12.0003C9.74865 12.0003 11.1673 10.5817 11.1673 8.83366C11.1673 7.08566 9.74865 5.66699 8.00065 5.66699ZM8.00065 6.66699C9.19665 6.66699 10.1673 7.63766 10.1673 8.83366C10.1673 10.0297 9.19665 11.0003 8.00065 11.0003C6.80465 11.0003 5.83398 10.0297 5.83398 8.83366C5.83398 7.63766 6.80465 6.66699 8.00065 6.66699Z" fill="#B9B100"/>
</svg>
