<svg width="22" height="22" viewBox="0 0 22 22" fill="none" xmlns="http://www.w3.org/2000/svg">
<path d="M9.84411 4.20298C10.1671 3.02843 11.8329 3.02843 12.1559 4.20298C12.3842 5.03322 13.3873 5.35915 14.0601 4.82168C15.0118 4.06132 16.3594 5.04041 15.9303 6.18051C15.627 6.98639 16.247 7.83969 17.1072 7.80029C18.324 7.74455 18.8388 9.32875 17.8215 9.99892C17.1025 10.4726 17.1025 11.5274 17.8215 12.0011C18.8388 12.6712 18.324 14.2555 17.1072 14.1997C16.247 14.1603 15.627 15.0136 15.9303 15.8195C16.3594 16.9596 15.0118 17.9387 14.0601 17.1783C13.3873 16.6409 12.3842 16.9668 12.1559 17.797C11.8329 18.9716 10.1671 18.9716 9.84411 17.797C9.61578 16.9668 8.61267 16.6409 7.93994 17.1783C6.98823 17.9387 5.64062 16.9596 6.06968 15.8195C6.37296 15.0136 5.753 14.1603 4.89284 14.1997C3.67595 14.2555 3.16121 12.6712 4.17846 12.0011C4.89751 11.5274 4.89751 10.4726 4.17846 9.99892C3.16121 9.32875 3.67595 7.74455 4.89284 7.80029C5.753 7.83969 6.37296 6.98639 6.06968 6.18051C5.64062 5.04041 6.98823 4.06132 7.93994 4.82168C8.61267 5.35915 9.61578 5.03322 9.84411 4.20298Z" fill="#68E365"/>
<path d="M10.4898 13.1142C10.4382 13.114 10.3872 13.104 10.3399 13.0846C10.2926 13.0653 10.2501 13.0371 10.215 13.0018L8.38526 11.1872C8.31686 11.1192 8.28022 11.0287 8.28339 10.9355C8.28657 10.8424 8.32931 10.7542 8.4022 10.6905C8.47509 10.6267 8.57217 10.5926 8.67207 10.5955C8.77198 10.5985 8.86654 10.6383 8.93493 10.7063L10.4861 12.2472L13.6524 9.01794C13.6845 8.98064 13.7245 8.94985 13.7698 8.92748C13.8152 8.9051 13.865 8.8916 13.9161 8.88782C13.9673 8.88403 14.0187 8.89004 14.0673 8.90546C14.1159 8.92089 14.1606 8.94541 14.1986 8.97752C14.2367 9.00964 14.2673 9.04866 14.2885 9.0922C14.3098 9.13573 14.3213 9.18287 14.3223 9.2307C14.3234 9.27854 14.3139 9.32606 14.2945 9.37036C14.2751 9.41465 14.2462 9.45479 14.2096 9.48829L10.7684 12.9983C10.7337 13.0343 10.6913 13.0631 10.644 13.083C10.5967 13.103 10.5455 13.1136 10.4936 13.1142H10.4898Z" fill="white"/>
</svg>
