<svg width="21" height="21" viewBox="0 0 21 21" fill="none" xmlns="http://www.w3.org/2000/svg">
<path d="M19.4587 13.4344V3.85282C19.4585 3.67218 19.3867 3.499 19.2589 3.37126C19.1312 3.24353 18.958 3.17168 18.7774 3.17147H17.1409C17.0058 3.17268 16.8767 3.22717 16.7817 3.32309C16.6866 3.41902 16.6333 3.5486 16.6333 3.68365C16.6333 3.8187 16.6866 3.94829 16.7817 4.04421C16.8767 4.14013 17.0058 4.19463 17.1409 4.19583H18.4345V7.55276H1.02437V4.19579H6.52727V4.92513C6.52694 5.19827 6.41829 5.46013 6.22515 5.65327C6.032 5.84641 5.77014 5.95505 5.497 5.95536C5.42935 5.95476 5.36225 5.96756 5.29958 5.99303C5.23691 6.0185 5.1799 6.05613 5.13185 6.10375C5.08381 6.15137 5.04567 6.20803 5.01964 6.27048C4.99361 6.33292 4.98021 6.3999 4.98021 6.46755C4.98021 6.5352 4.99361 6.60217 5.01964 6.66462C5.04567 6.72706 5.08381 6.78372 5.13185 6.83135C5.1799 6.87897 5.23691 6.9166 5.29958 6.94206C5.36225 6.96753 5.42935 6.98033 5.497 6.97973C6.04173 6.97911 6.56397 6.76244 6.94916 6.37726C7.33434 5.99207 7.55101 5.46983 7.55163 4.92509V2.06597C7.55284 1.79538 7.50059 1.52721 7.39787 1.27687C7.29516 1.02652 7.14401 0.798935 6.95309 0.607168C6.76218 0.4154 6.53527 0.263232 6.28539 0.1594C6.0355 0.0555676 5.76757 0.00211716 5.49698 0.00211716C5.22638 0.00211716 4.95845 0.0555676 4.70856 0.1594C4.45868 0.263232 4.23177 0.4154 4.04086 0.607168C3.84994 0.798935 3.69879 1.02652 3.59608 1.27687C3.49336 1.52721 3.44111 1.79538 3.44232 2.06597V3.17147H0.681311C0.500672 3.17168 0.327492 3.24353 0.199765 3.37126C0.0720376 3.499 0.000195402 3.67218 0 3.85282L0 18.7138C0.000195402 18.8944 0.0720376 19.0676 0.199765 19.1953C0.327492 19.3231 0.500672 19.3949 0.681311 19.3951H13.4033C13.7774 19.8599 14.2447 20.2411 14.7751 20.5141C15.3056 20.7872 15.8873 20.9461 16.4829 20.9805C17.0785 21.015 17.6747 20.9242 18.2331 20.7141C18.7914 20.504 19.2996 20.1793 19.7248 19.7608C20.1499 19.3422 20.4826 18.8393 20.7015 18.2843C20.9204 17.7293 21.0205 17.1346 20.9954 16.5385C20.9704 15.9425 20.8207 15.3583 20.556 14.8236C20.2913 14.289 19.9175 13.8157 19.4587 13.4344ZM4.4666 2.06597C4.46574 1.93013 4.49176 1.79545 4.54315 1.6697C4.59455 1.54395 4.6703 1.4296 4.76606 1.33324C4.86181 1.23687 4.97568 1.1604 5.10111 1.10821C5.22654 1.05603 5.36104 1.02916 5.49689 1.02916C5.63274 1.02916 5.76725 1.05603 5.89268 1.10821C6.0181 1.1604 6.13197 1.23687 6.22773 1.33324C6.32349 1.4296 6.39924 1.54395 6.45063 1.6697C6.50203 1.79545 6.52804 1.93013 6.52719 2.06597V3.17147H4.4666V2.06597ZM1.02437 18.3708V8.57716H18.4343V12.8011C17.6522 12.4603 16.7858 12.3615 15.947 12.5175C15.1082 12.6735 14.3353 13.0772 13.7279 13.6765C13.1206 14.2758 12.7067 15.0432 12.5395 15.8799C12.3723 16.7166 12.4596 17.5841 12.79 18.3708H1.02437ZM16.7284 19.9642C16.0861 19.9642 15.4583 19.7737 14.9243 19.4169C14.3903 19.0601 13.974 18.553 13.7283 17.9596C13.4825 17.3662 13.4182 16.7133 13.5434 16.0834C13.6687 15.4535 13.978 14.8749 14.4322 14.4207C14.8863 13.9666 15.4649 13.6573 16.0948 13.532C16.7247 13.4067 17.3777 13.471 17.971 13.7168C18.5644 13.9626 19.0715 14.3788 19.4284 14.9128C19.7852 15.4468 19.9756 16.0746 19.9756 16.7169C19.9747 17.5778 19.6322 18.4032 19.0235 19.012C18.4147 19.6207 17.5893 19.9632 16.7284 19.9642Z" fill="black"/>
</svg>
