<svg width="99" height="91" viewBox="0 0 99 91" fill="none" xmlns="http://www.w3.org/2000/svg">
<path d="M45.1316 90.2632C70.0571 90.2632 90.2632 70.0571 90.2632 45.1316C90.2632 20.2061 70.0571 0 45.1316 0C20.2061 0 0 20.2061 0 45.1316C0 70.0571 20.2061 90.2632 45.1316 90.2632Z" fill="#D7E7F6"/>
<path d="M50.3532 67.7919C48.7668 69.4836 46.0789 69.4759 44.5021 67.7752L21.0623 42.4924C19.8429 41.1771 19.6481 39.2109 20.5857 37.6819L24.6119 31.116C25.8715 29.0619 28.6479 28.5795 30.5266 30.0883L44.2361 41.0989C45.9317 42.4607 48.4047 42.2183 49.8036 40.553L80.9808 3.43895C82.5193 1.60746 85.3106 1.52671 86.9524 3.26619L96.3643 13.2378C97.8156 14.7756 97.8195 17.1773 96.3731 18.7197L50.3532 67.7919Z" fill="#1473CC"/>
</svg>
