<svg width="22" height="22" viewBox="0 0 22 22" fill="none" xmlns="http://www.w3.org/2000/svg">
<path d="M2.19922 11C2.19922 6.13991 6.13911 2.20001 10.9992 2.20001C15.8593 2.20001 19.7992 6.13991 19.7992 11C19.7992 15.8601 15.8593 19.8 10.9992 19.8C6.13911 19.8 2.19922 15.8601 2.19922 11Z" fill="black"/>
<path d="M14.0714 9.02783L9.89922 13.2L8.47704 11.7778M10.9992 2.20001C6.13911 2.20001 2.19922 6.13991 2.19922 11C2.19922 15.8601 6.13911 19.8 10.9992 19.8C15.8593 19.8 19.7992 15.8601 19.7992 11C19.7992 6.13991 15.8593 2.20001 10.9992 2.20001Z" stroke="white" stroke-width="2" stroke-linecap="round" stroke-linejoin="round"/>
</svg>
