<svg width="98" height="98" viewBox="0 0 98 98" fill="none" xmlns="http://www.w3.org/2000/svg">
<path d="M90.0383 55.2783C87.7414 52.9814 83.9133 52.9814 81.4633 55.2783L65.6914 70.8971C64.7727 71.8158 63.3945 71.8158 62.3227 71.8158V68.9064C62.3227 66.3033 60.6383 64.0064 58.1883 63.0877L49.7664 60.0252C45.7852 58.4939 41.3445 58.4939 37.2102 59.5658L22.357 63.7002C21.4383 62.0158 19.7539 60.6377 17.6102 60.4846L7.65703 59.4127C6.73828 59.2596 5.97266 60.0252 5.97266 60.9439V91.8752C5.97266 92.7939 6.73828 93.5596 7.65703 93.4064L17.6102 92.3346C19.6008 92.1814 21.4383 90.9564 22.357 89.2721C25.5727 90.6502 29.2477 92.0283 32.7695 92.0283L57.4227 93.1002C62.782 93.4064 68.1414 90.9564 71.5102 86.8221L90.4977 63.7002C92.4883 61.2502 92.3352 57.7283 90.0383 55.2783ZM17.3039 89.2721L9.18828 90.1908V62.6283L17.3039 63.5471C18.8352 63.7002 20.0602 65.0783 20.0602 66.6096V86.0564C20.2133 87.7408 18.9883 89.1189 17.3039 89.2721ZM88.2008 61.7096L69.2133 84.8314C66.457 88.2002 62.1695 90.1908 57.7289 90.0377L33.0758 88.9658C29.707 88.9658 26.3383 87.4346 23.2758 86.2096V66.7627L38.1289 62.4752C41.6508 61.5564 45.3258 61.5564 48.6945 62.7814L57.1164 65.8439C58.3414 66.3033 59.2602 67.5283 59.2602 68.7533V71.6627H45.1727C43.182 71.6627 43.182 74.7252 45.1727 74.7252H63.5477C65.232 74.7252 66.7633 74.1127 67.9883 72.8877L83.7602 57.2689C86.2102 54.9721 90.4977 58.6471 88.2008 61.7096Z" fill="#F7A71E"/>
<path d="M65.8438 4.59375H50.5312C42.1094 4.59375 35.2188 11.4844 35.2188 19.9062V26.0312C35.2188 34.4531 42.1094 41.3438 50.5312 41.3438H51.2969L56.8094 51.2969C57.1156 51.7562 57.575 52.0625 58.1875 52.0625C58.8 52.0625 59.2594 51.7562 59.5656 51.2969L65.0781 41.3438C73.8063 41.8031 81.1562 34.7594 81.1562 26.0312V19.9062C81.1562 11.4844 74.2656 4.59375 65.8438 4.59375ZM78.0938 26.0312C78.0938 33.5344 71.5094 39.0469 64.1594 38.2812C63.5469 38.2812 63.0875 38.5875 62.7812 39.0469L58.1875 47.3156L53.5938 39.0469C53.2875 38.5875 52.8281 38.2812 52.2156 38.2812C44.8656 39.0469 38.2812 33.5344 38.2812 26.0312V19.9062C38.2812 13.1687 43.7937 7.65625 50.5312 7.65625H65.8438C72.5812 7.65625 78.0938 13.1687 78.0938 19.9062V26.0312Z" fill="#F7A71E"/>
<path d="M52.3681 16.2315C53.1337 16.6909 54.0524 16.3846 54.5118 15.619C56.0431 12.8627 60.6368 13.169 61.5556 16.5377C62.0149 18.3752 61.0962 20.2127 59.4118 20.9784C57.5743 21.744 56.3493 23.5815 56.3493 25.5721V28.1752C56.3493 30.1659 59.4118 30.1659 59.4118 28.1752C59.5649 26.7971 58.9524 24.5002 60.6368 23.8877C66.4556 21.4377 65.8431 12.2502 59.4118 10.8721C56.3493 10.2596 53.4399 11.4846 51.9087 14.0877C51.4493 14.8534 51.7556 15.7721 52.3681 16.2315Z" fill="#F7A71E"/>
<path d="M57.8824 37.0563C54.6668 37.0563 54.6668 32.1562 57.8824 32.1562C61.098 32.3094 61.098 37.0563 57.8824 37.0563Z" fill="#F7A71E"/>
</svg>
