<svg width="20" height="20" viewBox="0 0 20 20" fill="none" xmlns="http://www.w3.org/2000/svg">
<path d="M11.9996 12.3831V7.46116M4.17647 2.88315H10.0009C10.034 4.06237 11.0003 5.00815 12.1875 5.00815C13.3747 5.00815 14.341 4.06237 14.3741 2.88315H15.8235C17.5778 2.88315 19 4.3053 19 6.05962V13.9404C19 15.6947 17.5778 17.1169 15.8235 17.1169H14.3741C14.341 15.9376 13.3747 14.9919 12.1875 14.9919C11.0003 14.9919 10.034 15.9376 10.0009 17.1169H4.17648C2.42217 17.1169 1.00001 15.6947 1.00001 13.9404L1 6.05962C1 4.3053 2.42215 2.88315 4.17647 2.88315Z" stroke="white" stroke-width="2" stroke-linecap="round" stroke-linejoin="round"/>
</svg>
